tehroc.ufo
<glyph name="exclam" format="2">
	<advance width="190"/>
	<unicode hex="0021"/>
	<note>
		exclam
	</note>
	<outline>
		<contour>
			<point x="125" y="357" type="line"/>
			<point x="149" y="358" type="line"/>
			<point x="126" y="452" type="line"/>
			<point x="150" y="453" type="line"/>
			<point x="144" y="476" type="line"/>
			<point x="43" y="500" type="line"/>
			<point x="55" y="453" type="line"/>
			<point x="31" y="452" type="line"/>
			<point x="54" y="358" type="line"/>
			<point x="30" y="357" type="line"/>
			<point x="54" y="262" type="line"/>
			<point x="30" y="262" type="line"/>
			<point x="42" y="215" type="line"/>
			<point x="131" y="239" type="line"/>
			<point x="125" y="262" type="line"/>
			<point x="149" y="262" type="line"/>
		</contour>
		<contour>
			<point x="42" y="119" type="line"/>
			<point x="143" y="96" type="line"/>
			<point x="149" y="72" type="line"/>
			<point x="125" y="71" type="line"/>
			<point x="143" y="0" type="line"/>
			<point x="42" y="24" type="line"/>
			<point x="30" y="71" type="line"/>
			<point x="54" y="72" type="line"/>
		</contour>
	</outline>
</glyph>
<glyph name="quotedbl" format="2">
	<advance width="383"/>
	<unicode hex="0022"/>
	<note>
		quotedbl
	</note>
	<outline>
		<contour>
			<point x="149" y="357" type="line"/>
			<point x="127" y="452" type="line"/>
			<point x="150" y="452" type="line"/>
			<point x="144" y="476" type="line"/>
			<point x="43" y="500" type="line"/>
			<point x="55" y="452" type="line"/>
			<point x="31" y="452" type="line"/>
			<point x="54" y="357" type="line"/>
			<point x="30" y="357" type="line"/>
			<point x="42" y="310" type="line"/>
			<point x="131" y="333" type="line"/>
			<point x="125" y="357" type="line"/>
		</contour>
		<contour>
			<point x="342" y="357" type="line"/>
			<point x="319" y="452" type="line"/>
			<point x="343" y="452" type="line"/>
			<point x="337" y="476" type="line"/>
			<point x="236" y="500" type="line"/>
			<point x="248" y="452" type="line"/>
			<point x="224" y="452" type="line"/>
			<point x="247" y="357" type="line"/>
			<point x="223" y="357" type="line"/>
			<point x="235" y="310" type="line"/>
			<point x="324" y="333" type="line"/>
			<point x="318" y="357" type="line"/>
		</contour>
	</outline>
</glyph>
<glyph name="numbersign" format="2">
	<advance width="580"/>
	<unicode hex="0023"/>
	<note>
		numbersign
	</note>
	<outline>
		<contour>
			<point x="433" y="121" type="line"/>
			<point x="523" y="143" type="line"/>
			<point x="516" y="169" type="line"/>
			<point x="540" y="169" type="line"/>
			<point x="535" y="191" type="line"/>
			<point x="433" y="216" type="line"/>
			<point x="421" y="263" type="line"/>
			<point x="445" y="263" type="line"/>
			<point x="433" y="310" type="line"/>
			<point x="523" y="334" type="line"/>
			<point x="516" y="358" type="line"/>
			<point x="540" y="358" type="line"/>
			<point x="534" y="382" type="line"/>
			<point x="433" y="406" type="line"/>
			<point x="421" y="453" type="line"/>
			<point x="445" y="452" type="line"/>
			<point x="439" y="476" type="line"/>
			<point x="338" y="500" type="line"/>
			<point x="349" y="452" type="line"/>
			<point x="326" y="453" type="line"/>
			<point x="343" y="382" type="line"/>
			<point x="243" y="405" type="line"/>
			<point x="231" y="453" type="line"/>
			<point x="255" y="452" type="line"/>
			<point x="249" y="476" type="line"/>
			<point x="148" y="500" type="line"/>
			<point x="160" y="452" type="line"/>
			<point x="136" y="453" type="line"/>
			<point x="148" y="405" type="line"/>
			<point x="147" y="405" type="line"/>
			<point x="153" y="382" type="line"/>
			<point x="52" y="405" type="line"/>
			<point x="64" y="358" type="line"/>
			<point x="40" y="358" type="line"/>
			<point x="52" y="310" type="line"/>
			<point x="141" y="334" type="line"/>
			<point x="160" y="263" type="line"/>
			<point x="136" y="263" type="line"/>
			<point x="153" y="192" type="line"/>
			<point x="52" y="216" type="line"/>
			<point x="64" y="169" type="line"/>
			<point x="40" y="169" type="line"/>
			<point x="52" y="121" type="line"/>
			<point x="141" y="145" type="line"/>
			<point x="145" y="131" type="line"/>
			<point x="160" y="71" type="line"/>
			<point x="136" y="71" type="line"/>
			<point x="148" y="24" type="line"/>
			<point x="249" y="0" type="line"/>
			<point x="231" y="71" type="line"/>
			<point x="255" y="71" type="line"/>
			<point x="243" y="121" type="line"/>
			<point x="331" y="145" type="line"/>
			<point x="349" y="71" type="line"/>
			<point x="326" y="71" type="line"/>
			<point x="338" y="24" type="line"/>
			<point x="439" y="0" type="line"/>
			<point x="421" y="71" type="line"/>
			<point x="445" y="71" type="line"/>
		</contour>
		<contour>
			<point x="231" y="263" type="line"/>
			<point x="255" y="263" type="line"/>
			<point x="243" y="310" type="line"/>
			<point x="332" y="334" type="line"/>
			<point x="349" y="263" type="line"/>
			<point x="326" y="263" type="line"/>
			<point x="343" y="193" type="line"/>
			<point x="243" y="216" type="line"/>
		</contour>
	</outline>
</glyph>
<glyph name="percent" format="2">
	<advance width="409"/>
	<unicode hex="0025"/>
	<outline>
		<contour>
			<point x="369" y="357" type="line"/>
			<point x="346" y="452" type="line"/>
			<point x="369" y="452" type="line"/>
			<point x="363" y="476" type="line"/>
			<point x="262" y="500" type="line"/>
			<point x="274" y="452" type="line"/>
			<point x="250" y="452" type="line"/>
			<point x="274" y="357" type="line"/>
			<point x="250" y="357" type="line"/>
			<point x="256" y="333" type="line"/>
			<point x="167" y="309" type="line"/>
			<point x="179" y="262" type="line"/>
			<point x="155" y="262" type="line"/>
			<point x="179" y="167" type="line"/>
			<point x="155" y="167" type="line"/>
			<point x="161" y="143" type="line"/>
			<point x="72" y="119" type="line"/>
			<point x="84" y="72" type="line"/>
			<point x="60" y="71" type="line"/>
			<point x="72" y="24" type="line"/>
			<point x="173" y="0" type="line"/>
			<point x="155" y="71" type="line"/>
			<point x="179" y="72" type="line"/>
			<point x="167" y="119" type="line"/>
			<point x="256" y="143" type="line"/>
			<point x="250" y="167" type="line"/>
			<point x="274" y="167" type="line"/>
			<point x="250" y="262" type="line"/>
			<point x="274" y="262" type="line"/>
			<point x="262" y="309" type="line"/>
			<point x="352" y="333" type="line"/>
			<point x="346" y="357" type="line"/>
		</contour>
		<contour>
			<point x="72" y="405" type="line"/>
			<point x="60" y="452" type="line"/>
			<point x="84" y="452" type="line"/>
			<point x="72" y="500" type="line"/>
			<point x="173" y="476" type="line"/>
			<point x="179" y="452" type="line"/>
			<point x="155" y="452" type="line"/>
			<point x="173" y="381" type="line"/>
		</contour>
		<contour>
			<point x="262" y="24" type="line"/>
			<point x="250" y="72" type="line"/>
			<point x="274" y="72" type="line"/>
			<point x="262" y="119" type="line"/>
			<point x="363" y="95" type="line"/>
			<point x="369" y="72" type="line"/>
			<point x="346" y="72" type="line"/>
			<point x="363" y="0" type="line"/>
		</contour>
	</outline>
</glyph>
<glyph name="ampersand" format="2">
	<advance width="581"/>
	<unicode hex="0026"/>
	<outline>
		<contour>
			<point x="344" y="476" type="line"/>
			<point x="243" y="500" type="line"/>
			<point x="249" y="476" type="line"/>
			<point x="147" y="500" type="line"/>
			<point x="159" y="452" type="line"/>
			<point x="135" y="452" type="line"/>
			<point x="141" y="428" type="line"/>
			<point x="52" y="404" type="line"/>
			<point x="64" y="357" type="line"/>
			<point x="40" y="357" type="line"/>
			<point x="52" y="309" type="line"/>
			<point x="153" y="285" type="line"/>
			<point x="159" y="261" type="line"/>
			<point x="135" y="261" type="line"/>
			<point x="141" y="238" type="line"/>
			<point x="52" y="214" type="line"/>
			<point x="64" y="166" type="line"/>
			<point x="40" y="166" type="line"/>
			<point x="64" y="71" type="line"/>
			<point x="40" y="71" type="line"/>
			<point x="52" y="24" type="line"/>
			<point x="141" y="48" type="line"/>
			<point x="147" y="23" type="line"/>
			<point x="249" y="0" type="line"/>
			<point x="243" y="23" type="line"/>
			<point x="344" y="0" type="line"/>
			<point x="338" y="23" type="line"/>
			<point x="427" y="48" type="line"/>
			<point x="422" y="71" type="line"/>
			<point x="445" y="71" type="line"/>
			<point x="422" y="166" type="line"/>
			<point x="445" y="166" type="line"/>
			<point x="433" y="214" type="line"/>
			<point x="535" y="190" type="line"/>
			<point x="517" y="261" type="line"/>
			<point x="541" y="261" type="line"/>
			<point x="535" y="285" type="line"/>
			<point x="433" y="309" type="line"/>
			<point x="439" y="285" type="line"/>
			<point x="338" y="309" type="line"/>
			<point x="350" y="261" type="line"/>
			<point x="326" y="261" type="line"/>
			<point x="350" y="166" type="line"/>
			<point x="326" y="166" type="line"/>
			<point x="344" y="95" type="line"/>
			<point x="243" y="118" type="line"/>
			<point x="249" y="95" type="line"/>
			<point x="147" y="118" type="line"/>
			<point x="136" y="166" type="line"/>
			<point x="159" y="165" type="line"/>
			<point x="147" y="214" type="line"/>
			<point x="249" y="190" type="line"/>
			<point x="231" y="261" type="line"/>
			<point x="255" y="261" type="line"/>
			<point x="249" y="285" type="line"/>
			<point x="147" y="309" type="line"/>
			<point x="136" y="356" type="line"/>
			<point x="159" y="356" type="line"/>
			<point x="147" y="404" type="line"/>
			<point x="249" y="380" type="line"/>
			<point x="243" y="404" type="line"/>
			<point x="344" y="381" type="line"/>
			<point x="326" y="452" type="line"/>
			<point x="350" y="452" type="line"/>
		</contour>
	</outline>
</glyph>
<glyph name="quotesingle" format="2">
	<advance width="189"/>
	<unicode hex="0027"/>
	<note>
		quotesingle
	</note>
	<outline>
		<contour>
			<point x="148" y="383" type="line"/>
			<point x="126" y="477" type="line"/>
			<point x="149" y="477" type="line"/>
			<point x="143" y="500" type="line"/>
			<point x="43" y="523" type="line"/>
			<point x="54" y="477" type="line"/>
			<point x="31" y="477" type="line"/>
			<point x="53" y="383" type="line"/>
			<point x="30" y="382" type="line"/>
			<point x="41" y="334" type="line"/>
			<point x="130" y="359" type="line"/>
			<point x="125" y="382" type="line"/>
		</contour>
	</outline>
</glyph>
<glyph name="parenleft" format="2">
	<advance width="313"/>
	<unicode hex="0028"/>
	<outline>
		<contour>
			<point x="147" y="119" type="line"/>
			<point x="134" y="166" type="line"/>
			<point x="159" y="166" type="line"/>
			<point x="134" y="260" type="line"/>
			<point x="159" y="260" type="line"/>
			<point x="134" y="356" type="line"/>
			<point x="159" y="356" type="line"/>
			<point x="147" y="404" type="line"/>
			<point x="236" y="428" type="line"/>
			<point x="230" y="451" type="line"/>
			<point x="253" y="451" type="line"/>
			<point x="248" y="477" type="line"/>
			<point x="146" y="500" type="line"/>
			<point x="157" y="451" type="line"/>
			<point x="134" y="451" type="line"/>
			<point x="141" y="428" type="line"/>
			<point x="52" y="404" type="line"/>
			<point x="63" y="357" type="line"/>
			<point x="40" y="357" type="line"/>
			<point x="63" y="262" type="line"/>
			<point x="40" y="262" type="line"/>
			<point x="63" y="166" type="line"/>
			<point x="40" y="166" type="line"/>
			<point x="52" y="119" type="line"/>
			<point x="152" y="96" type="line"/>
			<point x="157" y="72" type="line"/>
			<point x="134" y="72" type="line"/>
			<point x="146" y="23" type="line"/>
			<point x="248" y="0" type="line"/>
			<point x="230" y="72" type="line"/>
			<point x="253" y="72" type="line"/>
			<point x="248" y="96" type="line"/>
		</contour>
	</outline>
</glyph>
<glyph name="parenright" format="2">
	<advance width="313"/>
	<unicode hex="0029"/>
	<outline>
		<contour>
			<point x="173" y="381" type="line"/>
			<point x="179" y="356" type="line"/>
			<point x="156" y="356" type="line"/>
			<point x="179" y="260" type="line"/>
			<point x="156" y="260" type="line"/>
			<point x="179" y="166" type="line"/>
			<point x="156" y="166" type="line"/>
			<point x="161" y="143" type="line"/>
			<point x="72" y="119" type="line"/>
			<point x="84" y="72" type="line"/>
			<point x="60" y="72" type="line"/>
			<point x="72" y="25" type="line"/>
			<point x="173" y="0" type="line"/>
			<point x="154" y="72" type="line"/>
			<point x="179" y="72" type="line"/>
			<point x="166" y="119" type="line"/>
			<point x="257" y="143" type="line"/>
			<point x="250" y="166" type="line"/>
			<point x="273" y="166" type="line"/>
			<point x="250" y="262" type="line"/>
			<point x="273" y="262" type="line"/>
			<point x="250" y="357" type="line"/>
			<point x="273" y="357" type="line"/>
			<point x="268" y="381" type="line"/>
			<point x="166" y="404" type="line"/>
			<point x="154" y="451" type="line"/>
			<point x="179" y="451" type="line"/>
			<point x="173" y="477" type="line"/>
			<point x="72" y="500" type="line"/>
			<point x="84" y="451" type="line"/>
			<point x="60" y="451" type="line"/>
			<point x="72" y="404" type="line"/>
		</contour>
	</outline>
</glyph>
<glyph name="asterisk" format="2">
	<advance width="370"/>
	<unicode hex="002A"/>
	<note>
		asterisk
	</note>
	<outline>
		<contour>
			<point x="138" y="310" type="line"/>
			<point x="227" y="334" type="line"/>
			<point x="233" y="310" type="line"/>
			<point x="322" y="334" type="line"/>
			<point x="316" y="358" type="line"/>
			<point x="340" y="358" type="line"/>
			<point x="322" y="430" type="line"/>
			<point x="233" y="406" type="line"/>
			<point x="221" y="453" type="line"/>
			<point x="245" y="452" type="line"/>
			<point x="239" y="476" type="line"/>
			<point x="138" y="500" type="line"/>
			<point x="149" y="452" type="line"/>
			<point x="126" y="453" type="line"/>
			<point x="144" y="382" type="line"/>
			<point x="42" y="405" type="line"/>
			<point x="54" y="358" type="line"/>
			<point x="30" y="358" type="line"/>
			<point x="42" y="310" type="line"/>
			<point x="132" y="334" type="line"/>
		</contour>
		<contour>
			<point x="334" y="287" type="line"/>
			<point x="233" y="310" type="line"/>
			<point x="239" y="287" type="line"/>
			<point x="138" y="310" type="line"/>
			<point x="144" y="287" type="line"/>
			<point x="42" y="310" type="line"/>
			<point x="54" y="263" type="line"/>
			<point x="30" y="263" type="line"/>
			<point x="42" y="215" type="line"/>
			<point x="132" y="239" type="line"/>
			<point x="149" y="167" type="line"/>
			<point x="126" y="167" type="line"/>
			<point x="138" y="119" type="line"/>
			<point x="227" y="143" type="line"/>
			<point x="221" y="167" type="line"/>
			<point x="245" y="167" type="line"/>
			<point x="233" y="215" type="line"/>
			<point x="334" y="191" type="line"/>
			<point x="316" y="263" type="line"/>
			<point x="340" y="263" type="line"/>
		</contour>
	</outline>
</glyph>
<glyph name="plus" format="2">
	<advance width="429"/>
	<unicode hex="002B"/>
	<outline>
		<contour>
			<point x="250" y="357" type="line"/>
			<point x="262" y="310" type="line"/>
			<point x="363" y="286" type="line"/>
			<point x="369" y="262" type="line"/>
			<point x="345" y="262" type="line"/>
			<point x="363" y="191" type="line"/>
			<point x="262" y="214" type="line"/>
			<point x="274" y="167" type="line"/>
			<point x="250" y="167" type="line"/>
			<point x="268" y="95" type="line"/>
			<point x="167" y="119" type="line"/>
			<point x="155" y="167" type="line"/>
			<point x="179" y="167" type="line"/>
			<point x="173" y="191" type="line"/>
			<point x="72" y="214" type="line"/>
			<point x="60" y="262" type="line"/>
			<point x="84" y="262" type="line"/>
			<point x="72" y="310" type="line"/>
			<point x="173" y="286" type="line"/>
			<point x="155" y="357" type="line"/>
			<point x="179" y="357" type="line"/>
			<point x="167" y="404" type="line"/>
			<point x="268" y="381" type="line"/>
			<point x="274" y="357" type="line"/>
		</contour>
	</outline>
</glyph>
<glyph name="comma" format="2">
	<advance width="185"/>
	<unicode hex="002C"/>
	<note>
		comma
	</note>
	<outline>
		<contour>
			<point x="144" y="42" type="line"/>
			<point x="124" y="125" type="line"/>
			<point x="145" y="125" type="line"/>
			<point x="140" y="146" type="line"/>
			<point x="51" y="167" type="line"/>
			<point x="62" y="125" type="line"/>
			<point x="41" y="125" type="line"/>
			<point x="60" y="42" type="line"/>
			<point x="40" y="42" type="line"/>
			<point x="50" y="0" type="line"/>
			<point x="128" y="21" type="line"/>
			<point x="123" y="42" type="line"/>
		</contour>
	</outline>
</glyph>
<glyph name="hyphen" format="2">
	<advance width="379"/>
	<unicode hex="002D"/>
	<note>
		hyphen
	</note>
	<outline>
		<contour>
			<point x="52" y="214" type="line"/>
			<point x="40" y="261" type="line"/>
			<point x="64" y="261" type="line"/>
			<point x="52" y="308" type="line"/>
			<point x="153" y="285" type="line"/>
			<point x="147" y="308" type="line"/>
			<point x="248" y="285" type="line"/>
			<point x="242" y="308" type="line"/>
			<point x="343" y="285" type="line"/>
			<point x="349" y="261" type="line"/>
			<point x="325" y="261" type="line"/>
			<point x="343" y="190" type="line"/>
			<point x="242" y="214" type="line"/>
			<point x="248" y="190" type="line"/>
			<point x="147" y="214" type="line"/>
			<point x="153" y="190" type="line"/>
		</contour>
	</outline>
</glyph>
<glyph name="period" format="2">
	<advance width="128"/>
	<unicode hex="002E"/>
	<note>
		period
	</note>
	<outline>
		<contour>
			<point x="17" y="119" type="line"/>
			<point x="118" y="96" type="line"/>
			<point x="123" y="72" type="line"/>
			<point x="100" y="71" type="line"/>
			<point x="118" y="0" type="line"/>
			<point x="17" y="24" type="line"/>
			<point x="5" y="71" type="line"/>
			<point x="28" y="72" type="line"/>
		</contour>
	</outline>
</glyph>
<glyph name="zero" format="2">
	<advance width="514"/>
	<unicode hex="0030"/>
	<note>
		zero
	</note>
	<outline>
		<contour>
			<point x="67" y="500" type="line"/>
			<point x="167" y="477" type="line"/>
			<point x="162" y="500" type="line"/>
			<point x="263" y="477" type="line"/>
			<point x="258" y="500" type="line"/>
			<point x="359" y="477" type="line"/>
			<point x="352" y="500" type="line"/>
			<point x="454" y="477" type="line"/>
			<point x="459" y="453" type="line"/>
			<point x="436" y="451" type="line"/>
			<point x="459" y="357" type="line"/>
			<point x="436" y="357" type="line"/>
			<point x="459" y="262" type="line"/>
			<point x="436" y="262" type="line"/>
			<point x="459" y="168" type="line"/>
			<point x="436" y="166" type="line"/>
			<point x="459" y="72" type="line"/>
			<point x="436" y="72" type="line"/>
			<point x="454" y="0" type="line"/>
			<point x="352" y="25" type="line"/>
			<point x="359" y="0" type="line"/>
			<point x="258" y="25" type="line"/>
			<point x="263" y="0" type="line"/>
			<point x="162" y="25" type="line"/>
			<point x="167" y="0" type="line"/>
			<point x="67" y="25" type="line"/>
			<point x="55" y="72" type="line"/>
			<point x="78" y="72" type="line"/>
			<point x="55" y="166" type="line"/>
			<point x="78" y="168" type="line"/>
			<point x="55" y="262" type="line"/>
			<point x="78" y="262" type="line"/>
			<point x="55" y="357" type="line"/>
			<point x="78" y="357" type="line"/>
			<point x="55" y="451" type="line"/>
			<point x="78" y="453" type="line"/>
		</contour>
		<contour>
			<point x="151" y="356" type="line"/>
			<point x="174" y="262" type="line"/>
			<point x="151" y="262" type="line"/>
			<point x="174" y="166" type="line"/>
			<point x="151" y="166" type="line"/>
			<point x="162" y="119" type="line"/>
			<point x="263" y="96" type="line"/>
			<point x="258" y="119" type="line"/>
			<point x="359" y="96" type="line"/>
			<point x="340" y="166" type="line"/>
			<point x="365" y="166" type="line"/>
			<point x="340" y="262" type="line"/>
			<point x="365" y="262" type="line"/>
			<point x="340" y="356" type="line"/>
			<point x="365" y="356" type="line"/>
			<point x="359" y="381" type="line"/>
			<point x="258" y="404" type="line"/>
			<point x="263" y="381" type="line"/>
			<point x="162" y="404" type="line"/>
			<point x="174" y="356" type="line"/>
		</contour>
	</outline>
</glyph>
<glyph name="one" format="2">
	<advance width="420"/>
	<unicode hex="0031"/>
	<note>
		one
	</note>
	<outline>
		<contour>
			<point x="57" y="310" type="line"/>
			<point x="45" y="357" type="line"/>
			<point x="69" y="357" type="line"/>
			<point x="57" y="406" type="line"/>
			<point x="146" y="429" type="line"/>
			<point x="141" y="453" type="line"/>
			<point x="165" y="453" type="line"/>
			<point x="153" y="500" type="line"/>
			<point x="254" y="476" type="line"/>
			<point x="249" y="500" type="line"/>
			<point x="350" y="476" type="line"/>
			<point x="355" y="453" type="line"/>
			<point x="331" y="453" type="line"/>
			<point x="355" y="357" type="line"/>
			<point x="331" y="357" type="line"/>
			<point x="355" y="263" type="line"/>
			<point x="331" y="263" type="line"/>
			<point x="355" y="167" type="line"/>
			<point x="331" y="167" type="line"/>
			<point x="355" y="71" type="line"/>
			<point x="331" y="71" type="line"/>
			<point x="350" y="0" type="line"/>
			<point x="249" y="24" type="line"/>
			<point x="235" y="71" type="line"/>
			<point x="260" y="71" type="line"/>
			<point x="235" y="167" type="line"/>
			<point x="260" y="167" type="line"/>
			<point x="235" y="263" type="line"/>
			<point x="260" y="263" type="line"/>
			<point x="235" y="357" type="line"/>
			<point x="260" y="357" type="line"/>
			<point x="242" y="429" type="line"/>
			<point x="153" y="406" type="line"/>
			<point x="165" y="357" type="line"/>
			<point x="141" y="357" type="line"/>
			<point x="158" y="286" type="line"/>
		</contour>
	</outline>
</glyph>
<glyph name="two" format="2">
	<advance width="504"/>
	<unicode hex="0032"/>
	<note>
		two
	</note>
	<outline>
		<contour>
			<point x="436" y="451" type="line"/>
			<point x="459" y="451" type="line"/>
			<point x="454" y="475" type="line"/>
			<point x="352" y="500" type="line"/>
			<point x="359" y="475" type="line"/>
			<point x="258" y="500" type="line"/>
			<point x="263" y="475" type="line"/>
			<point x="162" y="500" type="line"/>
			<point x="167" y="475" type="line"/>
			<point x="67" y="500" type="line"/>
			<point x="78" y="451" type="line"/>
			<point x="55" y="451" type="line"/>
			<point x="67" y="404" type="line"/>
			<point x="167" y="381" type="line"/>
			<point x="162" y="404" type="line"/>
			<point x="263" y="381" type="line"/>
			<point x="258" y="404" type="line"/>
			<point x="359" y="381" type="line"/>
			<point x="364" y="356" type="line"/>
			<point x="340" y="357" type="line"/>
			<point x="359" y="285" type="line"/>
			<point x="258" y="309" type="line"/>
			<point x="263" y="285" type="line"/>
			<point x="162" y="309" type="line"/>
			<point x="167" y="285" type="line"/>
			<point x="67" y="309" type="line"/>
			<point x="78" y="262" type="line"/>
			<point x="55" y="262" type="line"/>
			<point x="78" y="166" type="line"/>
			<point x="55" y="166" type="line"/>
			<point x="67" y="119" type="line"/>
			<point x="78" y="70" type="line"/>
			<point x="55" y="72" type="line"/>
			<point x="67" y="23" type="line"/>
			<point x="167" y="0" type="line"/>
			<point x="162" y="23" type="line"/>
			<point x="263" y="0" type="line"/>
			<point x="258" y="23" type="line"/>
			<point x="359" y="0" type="line"/>
			<point x="352" y="23" type="line"/>
			<point x="454" y="0" type="line"/>
			<point x="436" y="72" type="line"/>
			<point x="459" y="70" type="line"/>
			<point x="454" y="96" type="line"/>
			<point x="352" y="119" type="line"/>
			<point x="359" y="96" type="line"/>
			<point x="258" y="119" type="line"/>
			<point x="263" y="96" type="line"/>
			<point x="162" y="119" type="line"/>
			<point x="151" y="166" type="line"/>
			<point x="174" y="166" type="line"/>
			<point x="162" y="213" type="line"/>
			<point x="263" y="190" type="line"/>
			<point x="258" y="213" type="line"/>
			<point x="347" y="238" type="line"/>
			<point x="352" y="215" type="line"/>
			<point x="441" y="238" type="line"/>
			<point x="436" y="262" type="line"/>
			<point x="459" y="262" type="line"/>
			<point x="436" y="357" type="line"/>
			<point x="459" y="356" type="line"/>
		</contour>
	</outline>
</glyph>
<glyph name="three" format="2">
	<advance width="513"/>
	<unicode hex="0033"/>
	<note>
		three
	</note>
	<outline>
		<contour>
			<point x="424" y="166" type="line"/>
			<point x="448" y="70" type="line"/>
			<point x="424" y="70" type="line"/>
			<point x="443" y="0" type="line"/>
			<point x="342" y="23" type="line"/>
			<point x="347" y="0" type="line"/>
			<point x="246" y="23" type="line"/>
			<point x="251" y="0" type="line"/>
			<point x="151" y="23" type="line"/>
			<point x="157" y="0" type="line"/>
			<point x="57" y="23" type="line"/>
			<point x="45" y="70" type="line"/>
			<point x="68" y="70" type="line"/>
			<point x="57" y="119" type="line"/>
			<point x="157" y="96" type="line"/>
			<point x="151" y="119" type="line"/>
			<point x="251" y="96" type="line"/>
			<point x="246" y="119" type="line"/>
			<point x="347" y="96" type="line"/>
			<point x="330" y="166" type="line"/>
			<point x="354" y="166" type="line"/>
			<point x="335" y="238" type="line"/>
			<point x="246" y="213" type="line"/>
			<point x="240" y="238" type="line"/>
			<point x="151" y="213" type="line"/>
			<point x="139" y="262" type="line"/>
			<point x="162" y="262" type="line"/>
			<point x="151" y="309" type="line"/>
			<point x="251" y="285" type="line"/>
			<point x="246" y="309" type="line"/>
			<point x="347" y="285" type="line"/>
			<point x="330" y="357" type="line"/>
			<point x="354" y="356" type="line"/>
			<point x="335" y="428" type="line"/>
			<point x="246" y="404" type="line"/>
			<point x="251" y="381" type="line"/>
			<point x="151" y="404" type="line"/>
			<point x="157" y="381" type="line"/>
			<point x="57" y="404" type="line"/>
			<point x="45" y="451" type="line"/>
			<point x="68" y="451" type="line"/>
			<point x="57" y="500" type="line"/>
			<point x="157" y="475" type="line"/>
			<point x="151" y="500" type="line"/>
			<point x="251" y="475" type="line"/>
			<point x="246" y="500" type="line"/>
			<point x="347" y="475" type="line"/>
			<point x="342" y="500" type="line"/>
			<point x="443" y="475" type="line"/>
			<point x="448" y="451" type="line"/>
			<point x="424" y="451" type="line"/>
			<point x="448" y="356" type="line"/>
			<point x="424" y="357" type="line"/>
			<point x="448" y="262" type="line"/>
			<point x="424" y="262" type="line"/>
			<point x="448" y="166" type="line"/>
		</contour>
	</outline>
</glyph>
<glyph name="four" format="2">
	<advance width="517"/>
	<unicode hex="0034"/>
	<note>
		four
	</note>
	<outline>
		<contour>
			<point x="333" y="262" type="line"/>
			<point x="357" y="262" type="line"/>
			<point x="333" y="357" type="line"/>
			<point x="357" y="357" type="line"/>
			<point x="333" y="452" type="line"/>
			<point x="357" y="452" type="line"/>
			<point x="345" y="500" type="line"/>
			<point x="446" y="476" type="line"/>
			<point x="452" y="452" type="line"/>
			<point x="428" y="452" type="line"/>
			<point x="452" y="357" type="line"/>
			<point x="428" y="357" type="line"/>
			<point x="452" y="262" type="line"/>
			<point x="428" y="262" type="line"/>
			<point x="452" y="167" type="line"/>
			<point x="428" y="167" type="line"/>
			<point x="452" y="71" type="line"/>
			<point x="428" y="71" type="line"/>
			<point x="446" y="0" type="line"/>
			<point x="345" y="24" type="line"/>
			<point x="333" y="71" type="line"/>
			<point x="357" y="71" type="line"/>
			<point x="337" y="144" type="line"/>
			<point x="248" y="120" type="line"/>
			<point x="242" y="144" type="line"/>
			<point x="152" y="119" type="line"/>
			<point x="146" y="143" type="line"/>
			<point x="57" y="119" type="line"/>
			<point x="45" y="167" type="line"/>
			<point x="69" y="167" type="line"/>
			<point x="45" y="262" type="line"/>
			<point x="69" y="262" type="line"/>
			<point x="45" y="357" type="line"/>
			<point x="69" y="357" type="line"/>
			<point x="45" y="452" type="line"/>
			<point x="69" y="452" type="line"/>
			<point x="57" y="500" type="line"/>
			<point x="158" y="476" type="line"/>
			<point x="164" y="452" type="line"/>
			<point x="141" y="452" type="line"/>
			<point x="164" y="357" type="line"/>
			<point x="141" y="357" type="line"/>
			<point x="164" y="262" type="line"/>
			<point x="141" y="262" type="line"/>
			<point x="152" y="214" type="line"/>
			<point x="253" y="191" type="line"/>
			<point x="248" y="215" type="line"/>
			<point x="349" y="191" type="line"/>
		</contour>
	</outline>
</glyph>
<glyph name="five" format="2">
	<advance width="505"/>
	<unicode hex="0035"/>
	<note>
		five
	</note>
	<outline>
		<contour>
			<point x="444" y="476" type="line"/>
			<point x="342" y="500" type="line"/>
			<point x="348" y="476" type="line"/>
			<point x="247" y="500" type="line"/>
			<point x="253" y="476" type="line"/>
			<point x="152" y="500" type="line"/>
			<point x="158" y="476" type="line"/>
			<point x="57" y="500" type="line"/>
			<point x="69" y="452" type="line"/>
			<point x="45" y="452" type="line"/>
			<point x="69" y="357" type="line"/>
			<point x="45" y="358" type="line"/>
			<point x="69" y="263" type="line"/>
			<point x="45" y="263" type="line"/>
			<point x="57" y="215" type="line"/>
			<point x="146" y="239" type="line"/>
			<point x="152" y="215" type="line"/>
			<point x="241" y="239" type="line"/>
			<point x="247" y="215" type="line"/>
			<point x="337" y="239" type="line"/>
			<point x="354" y="167" type="line"/>
			<point x="331" y="167" type="line"/>
			<point x="348" y="96" type="line"/>
			<point x="247" y="119" type="line"/>
			<point x="253" y="96" type="line"/>
			<point x="152" y="119" type="line"/>
			<point x="146" y="143" type="line"/>
			<point x="57" y="119" type="line"/>
			<point x="69" y="72" type="line"/>
			<point x="45" y="71" type="line"/>
			<point x="57" y="24" type="line"/>
			<point x="146" y="48" type="line"/>
			<point x="152" y="24" type="line"/>
			<point x="253" y="0" type="line"/>
			<point x="247" y="24" type="line"/>
			<point x="348" y="0" type="line"/>
			<point x="342" y="24" type="line"/>
			<point x="432" y="48" type="line"/>
			<point x="426" y="71" type="line"/>
			<point x="450" y="72" type="line"/>
			<point x="426" y="167" type="line"/>
			<point x="450" y="167" type="line"/>
			<point x="426" y="263" type="line"/>
			<point x="450" y="263" type="line"/>
			<point x="444" y="287" type="line"/>
			<point x="342" y="310" type="line"/>
			<point x="337" y="334" type="line"/>
			<point x="247" y="310" type="line"/>
			<point x="253" y="286" type="line"/>
			<point x="152" y="310" type="line"/>
			<point x="140" y="358" type="line"/>
			<point x="164" y="357" type="line"/>
			<point x="152" y="404" type="line"/>
			<point x="241" y="428" type="line"/>
			<point x="247" y="404" type="line"/>
			<point x="337" y="428" type="line"/>
			<point x="342" y="405" type="line"/>
			<point x="444" y="381" type="line"/>
			<point x="426" y="452" type="line"/>
			<point x="450" y="452" type="line"/>
		</contour>
	</outline>
</glyph>
<glyph name="six" format="2">
	<advance width="525"/>
	<unicode hex="0036"/>
	<note>
		six
	</note>
	<outline>
		<contour>
			<point x="464" y="381" type="line"/>
			<point x="446" y="452" type="line"/>
			<point x="470" y="452" type="line"/>
			<point x="464" y="476" type="line"/>
			<point x="363" y="500" type="line"/>
			<point x="369" y="476" type="line"/>
			<point x="268" y="500" type="line"/>
			<point x="274" y="476" type="line"/>
			<point x="172" y="500" type="line"/>
			<point x="178" y="476" type="line"/>
			<point x="77" y="500" type="line"/>
			<point x="89" y="452" type="line"/>
			<point x="65" y="452" type="line"/>
			<point x="89" y="357" type="line"/>
			<point x="65" y="358" type="line"/>
			<point x="89" y="263" type="line"/>
			<point x="65" y="263" type="line"/>
			<point x="89" y="168" type="line"/>
			<point x="65" y="167" type="line"/>
			<point x="89" y="72" type="line"/>
			<point x="65" y="72" type="line"/>
			<point x="77" y="24" type="line"/>
			<point x="178" y="0" type="line"/>
			<point x="172" y="24" type="line"/>
			<point x="274" y="0" type="line"/>
			<point x="268" y="24" type="line"/>
			<point x="369" y="0" type="line"/>
			<point x="363" y="24" type="line"/>
			<point x="464" y="0" type="line"/>
			<point x="446" y="72" type="line"/>
			<point x="470" y="72" type="line"/>
			<point x="446" y="167" type="line"/>
			<point x="470" y="168" type="line"/>
			<point x="446" y="263" type="line"/>
			<point x="470" y="263" type="line"/>
			<point x="464" y="287" type="line"/>
			<point x="363" y="310" type="line"/>
			<point x="369" y="287" type="line"/>
			<point x="268" y="310" type="line"/>
			<point x="274" y="287" type="line"/>
			<point x="172" y="310" type="line"/>
			<point x="160" y="358" type="line"/>
			<point x="184" y="357" type="line"/>
			<point x="172" y="405" type="line"/>
			<point x="274" y="381" type="line"/>
			<point x="268" y="405" type="line"/>
			<point x="369" y="381" type="line"/>
			<point x="363" y="405" type="line"/>
		</contour>
		<contour>
			<point x="172" y="120" type="line"/>
			<point x="160" y="167" type="line"/>
			<point x="184" y="168" type="line"/>
			<point x="172" y="215" type="line"/>
			<point x="262" y="239" type="line"/>
			<point x="268" y="215" type="line"/>
			<point x="357" y="239" type="line"/>
			<point x="375" y="168" type="line"/>
			<point x="351" y="167" type="line"/>
			<point x="369" y="96" type="line"/>
			<point x="268" y="120" type="line"/>
			<point x="274" y="96" type="line"/>
		</contour>
	</outline>
</glyph>
<glyph name="seven" format="2">
	<advance width="510"/>
	<unicode hex="0037"/>
	<note>
		seven
	</note>
	<outline>
		<contour>
			<point x="57" y="405" type="line"/>
			<point x="45" y="452" type="line"/>
			<point x="69" y="452" type="line"/>
			<point x="57" y="500" type="line"/>
			<point x="158" y="476" type="line"/>
			<point x="152" y="500" type="line"/>
			<point x="253" y="476" type="line"/>
			<point x="247" y="500" type="line"/>
			<point x="348" y="476" type="line"/>
			<point x="343" y="500" type="line"/>
			<point x="444" y="476" type="line"/>
			<point x="450" y="452" type="line"/>
			<point x="426" y="452" type="line"/>
			<point x="450" y="357" type="line"/>
			<point x="426" y="357" type="line"/>
			<point x="432" y="334" type="line"/>
			<point x="343" y="310" type="line"/>
			<point x="354" y="262" type="line"/>
			<point x="331" y="262" type="line"/>
			<point x="354" y="167" type="line"/>
			<point x="331" y="166" type="line"/>
			<point x="354" y="71" type="line"/>
			<point x="331" y="71" type="line"/>
			<point x="348" y="0" type="line"/>
			<point x="247" y="24" type="line"/>
			<point x="235" y="71" type="line"/>
			<point x="259" y="71" type="line"/>
			<point x="235" y="166" type="line"/>
			<point x="259" y="167" type="line"/>
			<point x="235" y="262" type="line"/>
			<point x="259" y="262" type="line"/>
			<point x="247" y="310" type="line"/>
			<point x="337" y="334" type="line"/>
			<point x="331" y="357" type="line"/>
			<point x="354" y="357" type="line"/>
			<point x="337" y="429" type="line"/>
			<point x="247" y="405" type="line"/>
			<point x="253" y="381" type="line"/>
			<point x="152" y="405" type="line"/>
			<point x="158" y="381" type="line"/>
		</contour>
	</outline>
</glyph>
<glyph name="eight" format="2">
	<advance width="535"/>
	<unicode hex="0038"/>
	<note>
		eight
	</note>
	<outline>
		<contour>
			<point x="77" y="500" type="line"/>
			<point x="178" y="476" type="line"/>
			<point x="172" y="500" type="line"/>
			<point x="274" y="476" type="line"/>
			<point x="268" y="500" type="line"/>
			<point x="369" y="476" type="line"/>
			<point x="363" y="500" type="line"/>
			<point x="464" y="476" type="line"/>
			<point x="470" y="452" type="line"/>
			<point x="446" y="452" type="line"/>
			<point x="470" y="357" type="line"/>
			<point x="446" y="357" type="line"/>
			<point x="470" y="262" type="line"/>
			<point x="446" y="262" type="line"/>
			<point x="470" y="167" type="line"/>
			<point x="446" y="166" type="line"/>
			<point x="470" y="71" type="line"/>
			<point x="446" y="71" type="line"/>
			<point x="464" y="0" type="line"/>
			<point x="363" y="24" type="line"/>
			<point x="369" y="0" type="line"/>
			<point x="268" y="24" type="line"/>
			<point x="274" y="0" type="line"/>
			<point x="172" y="24" type="line"/>
			<point x="178" y="0" type="line"/>
			<point x="77" y="24" type="line"/>
			<point x="65" y="71" type="line"/>
			<point x="89" y="71" type="line"/>
			<point x="65" y="166" type="line"/>
			<point x="89" y="167" type="line"/>
			<point x="65" y="262" type="line"/>
			<point x="89" y="262" type="line"/>
			<point x="65" y="357" type="line"/>
			<point x="89" y="357" type="line"/>
			<point x="65" y="452" type="line"/>
			<point x="89" y="452" type="line"/>
		</contour>
		<contour>
			<point x="351" y="356" type="line"/>
			<point x="375" y="356" type="line"/>
			<point x="357" y="428" type="line"/>
			<point x="268" y="404" type="line"/>
			<point x="262" y="428" type="line"/>
			<point x="173" y="404" type="line"/>
			<point x="184" y="356" type="line"/>
			<point x="161" y="356" type="line"/>
			<point x="173" y="309" type="line"/>
			<point x="274" y="286" type="line"/>
			<point x="268" y="309" type="line"/>
			<point x="369" y="286" type="line"/>
		</contour>
		<contour>
			<point x="184" y="166" type="line"/>
			<point x="161" y="166" type="line"/>
			<point x="173" y="119" type="line"/>
			<point x="274" y="95" type="line"/>
			<point x="268" y="119" type="line"/>
			<point x="369" y="95" type="line"/>
			<point x="351" y="166" type="line"/>
			<point x="375" y="166" type="line"/>
			<point x="357" y="238" type="line"/>
			<point x="268" y="214" type="line"/>
			<point x="262" y="238" type="line"/>
			<point x="173" y="214" type="line"/>
		</contour>
	</outline>
</glyph>
<glyph name="nine" format="2">
	<advance width="525"/>
	<unicode hex="0039"/>
	<note>
		nine
	</note>
	<outline>
		<contour>
			<point x="67" y="24" type="line"/>
			<point x="168" y="0" type="line"/>
			<point x="162" y="24" type="line"/>
			<point x="263" y="0" type="line"/>
			<point x="257" y="24" type="line"/>
			<point x="358" y="0" type="line"/>
			<point x="353" y="24" type="line"/>
			<point x="454" y="0" type="line"/>
			<point x="436" y="71" type="line"/>
			<point x="460" y="71" type="line"/>
			<point x="436" y="167" type="line"/>
			<point x="460" y="167" type="line"/>
			<point x="436" y="262" type="line"/>
			<point x="460" y="262" type="line"/>
			<point x="436" y="357" type="line"/>
			<point x="460" y="357" type="line"/>
			<point x="436" y="452" type="line"/>
			<point x="460" y="452" type="line"/>
			<point x="454" y="476" type="line"/>
			<point x="353" y="500" type="line"/>
			<point x="358" y="476" type="line"/>
			<point x="257" y="500" type="line"/>
			<point x="263" y="476" type="line"/>
			<point x="162" y="500" type="line"/>
			<point x="168" y="476" type="line"/>
			<point x="67" y="500" type="line"/>
			<point x="79" y="452" type="line"/>
			<point x="55" y="452" type="line"/>
			<point x="79" y="357" type="line"/>
			<point x="55" y="357" type="line"/>
			<point x="79" y="262" type="line"/>
			<point x="55" y="262" type="line"/>
			<point x="67" y="214" type="line"/>
			<point x="168" y="191" type="line"/>
			<point x="162" y="214" type="line"/>
			<point x="263" y="191" type="line"/>
			<point x="257" y="214" type="line"/>
			<point x="358" y="191" type="line"/>
			<point x="364" y="167" type="line"/>
			<point x="341" y="167" type="line"/>
			<point x="358" y="95" type="line"/>
			<point x="257" y="119" type="line"/>
			<point x="263" y="95" type="line"/>
			<point x="162" y="119" type="line"/>
			<point x="168" y="95" type="line"/>
			<point x="67" y="119" type="line"/>
			<point x="78" y="72" type="line"/>
			<point x="55" y="71" type="line"/>
		</contour>
		<contour>
			<point x="162" y="404" type="line"/>
			<point x="251" y="428" type="line"/>
			<point x="257" y="404" type="line"/>
			<point x="346" y="428" type="line"/>
			<point x="364" y="357" type="line"/>
			<point x="341" y="357" type="line"/>
			<point x="358" y="286" type="line"/>
			<point x="257" y="309" type="line"/>
			<point x="263" y="286" type="line"/>
			<point x="162" y="309" type="line"/>
			<point x="150" y="357" type="line"/>
			<point x="174" y="357" type="line"/>
		</contour>
	</outline>
</glyph>
<glyph name="colon" format="2">
	<advance width="130"/>
	<unicode hex="003A"/>
	<note>
		colon
	</note>
	<outline>
		<contour>
			<point x="18" y="404" type="line"/>
			<point x="119" y="380" type="line"/>
			<point x="125" y="356" type="line"/>
			<point x="101" y="356" type="line"/>
			<point x="119" y="284" type="line"/>
			<point x="18" y="308" type="line"/>
			<point x="6" y="356" type="line"/>
			<point x="30" y="356" type="line"/>
		</contour>
		<contour>
			<point x="17" y="215" type="line"/>
			<point x="118" y="191" type="line"/>
			<point x="124" y="167" type="line"/>
			<point x="101" y="167" type="line"/>
			<point x="118" y="95" type="line"/>
			<point x="17" y="119" type="line"/>
			<point x="5" y="167" type="line"/>
			<point x="29" y="167" type="line"/>
		</contour>
	</outline>
</glyph>
<glyph name="semicolon" format="2">
	<advance width="196"/>
	<unicode hex="003B"/>
	<note>
		semicolon
	</note>
	<outline>
		<contour>
			<point x="62" y="333" type="line"/>
			<point x="150" y="312" type="line"/>
			<point x="156" y="291" type="line"/>
			<point x="135" y="291" type="line"/>
			<point x="150" y="228" type="line"/>
			<point x="62" y="249" type="line"/>
			<point x="51" y="291" type="line"/>
			<point x="72" y="291" type="line"/>
		</contour>
		<contour>
			<point x="154" y="42" type="line"/>
			<point x="134" y="125" type="line"/>
			<point x="155" y="125" type="line"/>
			<point x="150" y="146" type="line"/>
			<point x="61" y="167" type="line"/>
			<point x="72" y="125" type="line"/>
			<point x="51" y="125" type="line"/>
			<point x="70" y="42" type="line"/>
			<point x="50" y="42" type="line"/>
			<point x="60" y="0" type="line"/>
			<point x="138" y="21" type="line"/>
			<point x="133" y="42" type="line"/>
		</contour>
	</outline>
</glyph>
<glyph name="less" format="2">
	<advance width="314"/>
	<unicode hex="003C"/>
	<outline>
		<contour>
			<point x="248" y="381" type="line"/>
			<point x="254" y="357" type="line"/>
			<point x="230" y="357" type="line"/>
			<point x="236" y="334" type="line"/>
			<point x="147" y="310" type="line"/>
			<point x="159" y="262" type="line"/>
			<point x="135" y="262" type="line"/>
			<point x="147" y="214" type="line"/>
			<point x="248" y="191" type="line"/>
			<point x="254" y="167" type="line"/>
			<point x="230" y="167" type="line"/>
			<point x="236" y="143" type="line"/>
			<point x="248" y="95" type="line"/>
			<point x="147" y="119" type="line"/>
			<point x="135" y="167" type="line"/>
			<point x="159" y="167" type="line"/>
			<point x="153" y="191" type="line"/>
			<point x="52" y="214" type="line"/>
			<point x="40" y="262" type="line"/>
			<point x="63" y="262" type="line"/>
			<point x="52" y="310" type="line"/>
			<point x="141" y="334" type="line"/>
			<point x="135" y="357" type="line"/>
			<point x="159" y="357" type="line"/>
			<point x="147" y="405" type="line"/>
		</contour>
	</outline>
</glyph>
<glyph name="equal" format="2">
	<advance width="430"/>
	<unicode hex="003D"/>
	<outline>
		<contour>
			<point x="72" y="119" type="line"/>
			<point x="60" y="167" type="line"/>
			<point x="84" y="167" type="line"/>
			<point x="72" y="214" type="line"/>
			<point x="173" y="190" type="line"/>
			<point x="167" y="214" type="line"/>
			<point x="268" y="190" type="line"/>
			<point x="262" y="214" type="line"/>
			<point x="364" y="190" type="line"/>
			<point x="370" y="167" type="line"/>
			<point x="346" y="167" type="line"/>
			<point x="364" y="95" type="line"/>
			<point x="262" y="119" type="line"/>
			<point x="268" y="95" type="line"/>
			<point x="167" y="119" type="line"/>
			<point x="173" y="95" type="line"/>
		</contour>
		<contour>
			<point x="72" y="310" type="line"/>
			<point x="60" y="357" type="line"/>
			<point x="84" y="357" type="line"/>
			<point x="72" y="405" type="line"/>
			<point x="173" y="381" type="line"/>
			<point x="167" y="405" type="line"/>
			<point x="268" y="381" type="line"/>
			<point x="262" y="405" type="line"/>
			<point x="364" y="381" type="line"/>
			<point x="370" y="357" type="line"/>
			<point x="346" y="357" type="line"/>
			<point x="364" y="286" type="line"/>
			<point x="262" y="310" type="line"/>
			<point x="268" y="286" type="line"/>
			<point x="167" y="310" type="line"/>
			<point x="173" y="286" type="line"/>
		</contour>
	</outline>
</glyph>
<glyph name="greater" format="2">
	<advance width="315"/>
	<unicode hex="003E"/>
	<outline>
		<contour>
			<point x="72" y="404" type="line"/>
			<point x="173" y="381" type="line"/>
			<point x="179" y="357" type="line"/>
			<point x="156" y="357" type="line"/>
			<point x="167" y="309" type="line"/>
			<point x="269" y="286" type="line"/>
			<point x="275" y="262" type="line"/>
			<point x="251" y="262" type="line"/>
			<point x="257" y="238" type="line"/>
			<point x="167" y="214" type="line"/>
			<point x="179" y="167" type="line"/>
			<point x="156" y="167" type="line"/>
			<point x="161" y="143" type="line"/>
			<point x="72" y="119" type="line"/>
			<point x="60" y="167" type="line"/>
			<point x="84" y="167" type="line"/>
			<point x="72" y="214" type="line"/>
			<point x="161" y="238" type="line"/>
			<point x="156" y="262" type="line"/>
			<point x="179" y="262" type="line"/>
			<point x="173" y="286" type="line"/>
			<point x="72" y="309" type="line"/>
			<point x="60" y="357" type="line"/>
			<point x="84" y="357" type="line"/>
		</contour>
	</outline>
</glyph>
<glyph name="question" format="2">
	<advance width="399"/>
	<unicode hex="003F"/>
	<note>
		question
	</note>
	<outline>
		<contour>
			<point x="153" y="381" type="line"/>
			<point x="52" y="405" type="line"/>
			<point x="40" y="453" type="line"/>
			<point x="63" y="453" type="line"/>
			<point x="52" y="500" type="line"/>
			<point x="153" y="477" type="line"/>
			<point x="147" y="500" type="line"/>
			<point x="248" y="477" type="line"/>
			<point x="242" y="500" type="line"/>
			<point x="343" y="477" type="line"/>
			<point x="349" y="453" type="line"/>
			<point x="326" y="453" type="line"/>
			<point x="349" y="357" type="line"/>
			<point x="326" y="357" type="line"/>
			<point x="331" y="334" type="line"/>
			<point x="242" y="310" type="line"/>
			<point x="254" y="262" type="line"/>
			<point x="230" y="262" type="line"/>
			<point x="248" y="191" type="line"/>
			<point x="147" y="215" type="line"/>
			<point x="135" y="262" type="line"/>
			<point x="159" y="262" type="line"/>
			<point x="147" y="310" type="line"/>
			<point x="236" y="334" type="line"/>
			<point x="230" y="357" type="line"/>
			<point x="254" y="357" type="line"/>
			<point x="236" y="429" type="line"/>
			<point x="147" y="405" type="line"/>
		</contour>
		<contour>
			<point x="147" y="120" type="line"/>
			<point x="248" y="96" type="line"/>
			<point x="254" y="72" type="line"/>
			<point x="230" y="71" type="line"/>
			<point x="248" y="0" type="line"/>
			<point x="147" y="24" type="line"/>
			<point x="135" y="71" type="line"/>
			<point x="159" y="72" type="line"/>
		</contour>
	</outline>
</glyph>
<glyph name="A" format="2">
	<advance width="485"/>
	<unicode hex="0041"/>
	<note>
		A
	</note>
	<outline>
		<contour>
			<point x="338" y="24" type="line"/>
			<point x="439" y="0" type="line"/>
			<point x="421" y="71" type="line"/>
			<point x="445" y="71" type="line"/>
			<point x="421" y="166" type="line"/>
			<point x="445" y="166" type="line"/>
			<point x="421" y="261" type="line"/>
			<point x="445" y="262" type="line"/>
			<point x="421" y="357" type="line"/>
			<point x="445" y="357" type="line"/>
			<point x="421" y="452" type="line"/>
			<point x="445" y="452" type="line"/>
			<point x="439" y="475" type="line"/>
			<point x="338" y="500" type="line"/>
			<point x="344" y="476" type="line"/>
			<point x="242" y="500" type="line"/>
			<point x="248" y="476" type="line"/>
			<point x="147" y="500" type="line"/>
			<point x="153" y="476" type="line"/>
			<point x="52" y="500" type="line"/>
			<point x="64" y="452" type="line"/>
			<point x="40" y="452" type="line"/>
			<point x="64" y="357" type="line"/>
			<point x="40" y="357" type="line"/>
			<point x="64" y="262" type="line"/>
			<point x="40" y="261" type="line"/>
			<point x="64" y="166" type="line"/>
			<point x="40" y="166" type="line"/>
			<point x="64" y="71" type="line"/>
			<point x="40" y="71" type="line"/>
			<point x="52" y="24" type="line"/>
			<point x="153" y="0" type="line"/>
			<point x="135" y="71" type="line"/>
			<point x="159" y="71" type="line"/>
			<point x="135" y="166" type="line"/>
			<point x="159" y="166" type="line"/>
			<point x="147" y="214" type="line"/>
			<point x="248" y="190" type="line"/>
			<point x="242" y="214" type="line"/>
			<point x="344" y="190" type="line"/>
			<point x="350" y="166" type="line"/>
			<point x="326" y="166" type="line"/>
			<point x="350" y="71" type="line"/>
			<point x="326" y="71" type="line"/>
		</contour>
		<contour>
			<point x="147" y="309" type="line"/>
			<point x="135" y="357" type="line"/>
			<point x="159" y="357" type="line"/>
			<point x="147" y="405" type="line"/>
			<point x="236" y="429" type="line"/>
			<point x="242" y="405" type="line"/>
			<point x="332" y="429" type="line"/>
			<point x="350" y="357" type="line"/>
			<point x="326" y="357" type="line"/>
			<point x="344" y="286" type="line"/>
			<point x="242" y="309" type="line"/>
			<point x="248" y="286" type="line"/>
		</contour>
	</outline>
</glyph>
<glyph name="B" format="2">
	<advance width="505"/>
	<unicode hex="0042"/>
	<note>
		B
	</note>
	<outline>
		<contour>
			<point x="72" y="500" type="line"/>
			<point x="84" y="452" type="line"/>
			<point x="60" y="452" type="line"/>
			<point x="84" y="357" type="line"/>
			<point x="60" y="357" type="line"/>
			<point x="84" y="262" type="line"/>
			<point x="60" y="261" type="line"/>
			<point x="84" y="166" type="line"/>
			<point x="60" y="167" type="line"/>
			<point x="84" y="72" type="line"/>
			<point x="60" y="72" type="line"/>
			<point x="72" y="24" type="line"/>
			<point x="161" y="48" type="line"/>
			<point x="167" y="24" type="line"/>
			<point x="268" y="0" type="line"/>
			<point x="263" y="24" type="line"/>
			<point x="364" y="0" type="line"/>
			<point x="358" y="24" type="line"/>
			<point x="459" y="0" type="line"/>
			<point x="441" y="72" type="line"/>
			<point x="465" y="72" type="line"/>
			<point x="441" y="167" type="line"/>
			<point x="465" y="166" type="line"/>
			<point x="447" y="238" type="line"/>
			<point x="358" y="214" type="line"/>
			<point x="346" y="261" type="line"/>
			<point x="370" y="262" type="line"/>
			<point x="358" y="309" type="line"/>
			<point x="459" y="286" type="line"/>
			<point x="441" y="357" type="line"/>
			<point x="465" y="357" type="line"/>
			<point x="441" y="452" type="line"/>
			<point x="465" y="452" type="line"/>
			<point x="459" y="476" type="line"/>
			<point x="358" y="500" type="line"/>
			<point x="364" y="476" type="line"/>
			<point x="263" y="500" type="line"/>
			<point x="268" y="476" type="line"/>
			<point x="167" y="500" type="line"/>
			<point x="173" y="476" type="line"/>
		</contour>
		<contour>
			<point x="167" y="309" type="line"/>
			<point x="155" y="357" type="line"/>
			<point x="179" y="357" type="line"/>
			<point x="167" y="405" type="line"/>
			<point x="257" y="429" type="line"/>
			<point x="263" y="405" type="line"/>
			<point x="352" y="429" type="line"/>
			<point x="370" y="357" type="line"/>
			<point x="346" y="357" type="line"/>
			<point x="352" y="333" type="line"/>
			<point x="263" y="309" type="line"/>
			<point x="257" y="333" type="line"/>
		</contour>
		<contour>
			<point x="167" y="214" type="line"/>
			<point x="257" y="238" type="line"/>
			<point x="263" y="214" type="line"/>
			<point x="364" y="190" type="line"/>
			<point x="370" y="166" type="line"/>
			<point x="346" y="167" type="line"/>
			<point x="364" y="95" type="line"/>
			<point x="263" y="119" type="line"/>
			<point x="268" y="95" type="line"/>
			<point x="167" y="119" type="line"/>
			<point x="155" y="167" type="line"/>
			<point x="179" y="166" type="line"/>
		</contour>
	</outline>
</glyph>
<glyph name="C" format="2">
	<advance width="496"/>
	<unicode hex="0043"/>
	<note>
		C
	</note>
	<outline>
		<contour>
			<point x="456" y="72" type="line"/>
			<point x="432" y="72" type="line"/>
			<point x="438" y="48" type="line"/>
			<point x="348" y="24" type="line"/>
			<point x="354" y="0" type="line"/>
			<point x="253" y="24" type="line"/>
			<point x="259" y="0" type="line"/>
			<point x="158" y="24" type="line"/>
			<point x="152" y="48" type="line"/>
			<point x="62" y="24" type="line"/>
			<point x="50" y="72" type="line"/>
			<point x="74" y="72" type="line"/>
			<point x="50" y="167" type="line"/>
			<point x="74" y="166" type="line"/>
			<point x="50" y="261" type="line"/>
			<point x="74" y="262" type="line"/>
			<point x="50" y="357" type="line"/>
			<point x="74" y="357" type="line"/>
			<point x="50" y="452" type="line"/>
			<point x="74" y="452" type="line"/>
			<point x="62" y="500" type="line"/>
			<point x="164" y="476" type="line"/>
			<point x="158" y="500" type="line"/>
			<point x="259" y="476" type="line"/>
			<point x="253" y="500" type="line"/>
			<point x="354" y="476" type="line"/>
			<point x="348" y="500" type="line"/>
			<point x="450" y="476" type="line"/>
			<point x="456" y="452" type="line"/>
			<point x="432" y="452" type="line"/>
			<point x="450" y="381" type="line"/>
			<point x="348" y="405" type="line"/>
			<point x="342" y="429" type="line"/>
			<point x="253" y="405" type="line"/>
			<point x="247" y="429" type="line"/>
			<point x="158" y="405" type="line"/>
			<point x="170" y="357" type="line"/>
			<point x="146" y="357" type="line"/>
			<point x="170" y="262" type="line"/>
			<point x="146" y="261" type="line"/>
			<point x="170" y="166" type="line"/>
			<point x="146" y="167" type="line"/>
			<point x="158" y="119" type="line"/>
			<point x="259" y="96" type="line"/>
			<point x="253" y="119" type="line"/>
			<point x="354" y="95" type="line"/>
			<point x="348" y="119" type="line"/>
			<point x="438" y="143" type="line"/>
		</contour>
	</outline>
</glyph>
<glyph name="D" format="2">
	<advance width="515"/>
	<unicode hex="0044"/>
	<note>
		D
	</note>
	<outline>
		<contour>
			<point x="72" y="500" type="line"/>
			<point x="84" y="452" type="line"/>
			<point x="60" y="452" type="line"/>
			<point x="84" y="357" type="line"/>
			<point x="60" y="357" type="line"/>
			<point x="84" y="262" type="line"/>
			<point x="60" y="261" type="line"/>
			<point x="84" y="166" type="line"/>
			<point x="60" y="167" type="line"/>
			<point x="84" y="72" type="line"/>
			<point x="60" y="72" type="line"/>
			<point x="72" y="24" type="line"/>
			<point x="161" y="48" type="line"/>
			<point x="167" y="24" type="line"/>
			<point x="268" y="0" type="line"/>
			<point x="262" y="24" type="line"/>
			<point x="364" y="0" type="line"/>
			<point x="358" y="24" type="line"/>
			<point x="447" y="48" type="line"/>
			<point x="441" y="72" type="line"/>
			<point x="465" y="72" type="line"/>
			<point x="441" y="167" type="line"/>
			<point x="465" y="166" type="line"/>
			<point x="441" y="261" type="line"/>
			<point x="465" y="262" type="line"/>
			<point x="441" y="357" type="line"/>
			<point x="465" y="357" type="line"/>
			<point x="459" y="381" type="line"/>
			<point x="358" y="405" type="line"/>
			<point x="346" y="452" type="line"/>
			<point x="370" y="452" type="line"/>
			<point x="364" y="476" type="line"/>
			<point x="262" y="500" type="line"/>
			<point x="268" y="476" type="line"/>
			<point x="167" y="500" type="line"/>
			<point x="173" y="476" type="line"/>
		</contour>
		<contour>
			<point x="167" y="405" type="line"/>
			<point x="268" y="381" type="line"/>
			<point x="262" y="405" type="line"/>
			<point x="364" y="381" type="line"/>
			<point x="370" y="357" type="line"/>
			<point x="346" y="357" type="line"/>
			<point x="370" y="262" type="line"/>
			<point x="346" y="261" type="line"/>
			<point x="370" y="166" type="line"/>
			<point x="346" y="167" type="line"/>
			<point x="364" y="96" type="line"/>
			<point x="262" y="119" type="line"/>
			<point x="268" y="95" type="line"/>
			<point x="167" y="119" type="line"/>
			<point x="155" y="167" type="line"/>
			<point x="179" y="166" type="line"/>
			<point x="155" y="261" type="line"/>
			<point x="179" y="262" type="line"/>
			<point x="155" y="357" type="line"/>
			<point x="179" y="357" type="line"/>
		</contour>
	</outline>
</glyph>
<glyph name="E" format="2">
	<advance width="504"/>
	<unicode hex="0045"/>
	<note>
		E
	</note>
	<outline>
		<contour>
			<point x="72" y="500" type="line"/>
			<point x="84" y="453" type="line"/>
			<point x="60" y="452" type="line"/>
			<point x="84" y="357" type="line"/>
			<point x="60" y="357" type="line"/>
			<point x="84" y="262" type="line"/>
			<point x="60" y="261" type="line"/>
			<point x="84" y="166" type="line"/>
			<point x="60" y="166" type="line"/>
			<point x="84" y="71" type="line"/>
			<point x="60" y="71" type="line"/>
			<point x="72" y="24" type="line"/>
			<point x="173" y="0" type="line"/>
			<point x="167" y="24" type="line"/>
			<point x="268" y="0" type="line"/>
			<point x="262" y="24" type="line"/>
			<point x="363" y="0" type="line"/>
			<point x="357" y="24" type="line"/>
			<point x="446" y="47" type="line"/>
			<point x="440" y="71" type="line"/>
			<point x="464" y="71" type="line"/>
			<point x="446" y="143" type="line"/>
			<point x="357" y="119" type="line"/>
			<point x="363" y="95" type="line"/>
			<point x="262" y="119" type="line"/>
			<point x="268" y="95" type="line"/>
			<point x="167" y="119" type="line"/>
			<point x="155" y="166" type="line"/>
			<point x="179" y="166" type="line"/>
			<point x="167" y="214" type="line"/>
			<point x="268" y="190" type="line"/>
			<point x="262" y="214" type="line"/>
			<point x="363" y="190" type="line"/>
			<point x="345" y="261" type="line"/>
			<point x="369" y="262" type="line"/>
			<point x="363" y="286" type="line"/>
			<point x="262" y="309" type="line"/>
			<point x="268" y="286" type="line"/>
			<point x="167" y="309" type="line"/>
			<point x="155" y="357" type="line"/>
			<point x="179" y="357" type="line"/>
			<point x="167" y="404" type="line"/>
			<point x="268" y="381" type="line"/>
			<point x="262" y="404" type="line"/>
			<point x="363" y="381" type="line"/>
			<point x="357" y="404" type="line"/>
			<point x="458" y="381" type="line"/>
			<point x="440" y="452" type="line"/>
			<point x="464" y="453" type="line"/>
			<point x="458" y="476" type="line"/>
			<point x="357" y="500" type="line"/>
			<point x="363" y="476" type="line"/>
			<point x="262" y="500" type="line"/>
			<point x="268" y="476" type="line"/>
			<point x="167" y="500" type="line"/>
			<point x="173" y="476" type="line"/>
		</contour>
	</outline>
</glyph>
<glyph name="F" format="2">
	<advance width="498"/>
	<unicode hex="0046"/>
	<note>
		F
	</note>
	<outline>
		<contour>
			<point x="178" y="71" type="line"/>
			<point x="155" y="166" type="line"/>
			<point x="178" y="166" type="line"/>
			<point x="166" y="213" type="line"/>
			<point x="267" y="190" type="line"/>
			<point x="261" y="213" type="line"/>
			<point x="362" y="190" type="line"/>
			<point x="344" y="261" type="line"/>
			<point x="368" y="262" type="line"/>
			<point x="362" y="285" type="line"/>
			<point x="261" y="309" type="line"/>
			<point x="267" y="285" type="line"/>
			<point x="166" y="309" type="line"/>
			<point x="155" y="356" type="line"/>
			<point x="178" y="357" type="line"/>
			<point x="166" y="404" type="line"/>
			<point x="267" y="380" type="line"/>
			<point x="261" y="404" type="line"/>
			<point x="362" y="380" type="line"/>
			<point x="356" y="404" type="line"/>
			<point x="457" y="380" type="line"/>
			<point x="439" y="451" type="line"/>
			<point x="463" y="452" type="line"/>
			<point x="457" y="476" type="line"/>
			<point x="356" y="500" type="line"/>
			<point x="362" y="476" type="line"/>
			<point x="261" y="500" type="line"/>
			<point x="267" y="476" type="line"/>
			<point x="166" y="500" type="line"/>
			<point x="172" y="476" type="line"/>
			<point x="72" y="500" type="line"/>
			<point x="83" y="452" type="line"/>
			<point x="60" y="451" type="line"/>
			<point x="83" y="357" type="line"/>
			<point x="60" y="356" type="line"/>
			<point x="83" y="262" type="line"/>
			<point x="60" y="261" type="line"/>
			<point x="83" y="166" type="line"/>
			<point x="60" y="166" type="line"/>
			<point x="83" y="71" type="line"/>
			<point x="60" y="71" type="line"/>
			<point x="72" y="24" type="line"/>
			<point x="172" y="0" type="line"/>
			<point x="155" y="71" type="line"/>
		</contour>
	</outline>
</glyph>
<glyph name="H" format="2">
	<advance width="525"/>
	<unicode hex="0048"/>
	<note>
		H
	</note>
	<outline>
		<contour>
			<point x="369" y="453" type="line"/>
			<point x="358" y="500" type="line"/>
			<point x="459" y="476" type="line"/>
			<point x="465" y="453" type="line"/>
			<point x="441" y="453" type="line"/>
			<point x="465" y="357" type="line"/>
			<point x="441" y="357" type="line"/>
			<point x="465" y="262" type="line"/>
			<point x="441" y="262" type="line"/>
			<point x="465" y="166" type="line"/>
			<point x="441" y="167" type="line"/>
			<point x="465" y="71" type="line"/>
			<point x="441" y="71" type="line"/>
			<point x="459" y="0" type="line"/>
			<point x="358" y="24" type="line"/>
			<point x="346" y="71" type="line"/>
			<point x="370" y="71" type="line"/>
			<point x="346" y="167" type="line"/>
			<point x="370" y="166" type="line"/>
			<point x="364" y="190" type="line"/>
			<point x="263" y="214" type="line"/>
			<point x="268" y="190" type="line"/>
			<point x="167" y="214" type="line"/>
			<point x="179" y="166" type="line"/>
			<point x="155" y="167" type="line"/>
			<point x="179" y="71" type="line"/>
			<point x="155" y="71" type="line"/>
			<point x="173" y="0" type="line"/>
			<point x="72" y="24" type="line"/>
			<point x="60" y="71" type="line"/>
			<point x="84" y="71" type="line"/>
			<point x="60" y="167" type="line"/>
			<point x="84" y="166" type="line"/>
			<point x="60" y="262" type="line"/>
			<point x="84" y="262" type="line"/>
			<point x="60" y="357" type="line"/>
			<point x="84" y="357" type="line"/>
			<point x="60" y="453" type="line"/>
			<point x="84" y="453" type="line"/>
			<point x="72" y="500" type="line"/>
			<point x="173" y="476" type="line"/>
			<point x="179" y="453" type="line"/>
			<point x="155" y="453" type="line"/>
			<point x="179" y="357" type="line"/>
			<point x="155" y="357" type="line"/>
			<point x="167" y="309" type="line"/>
			<point x="268" y="286" type="line"/>
			<point x="262" y="310" type="line"/>
			<point x="363" y="286" type="line"/>
			<point x="346" y="357" type="line"/>
			<point x="369" y="357" type="line"/>
			<point x="346" y="453" type="line"/>
		</contour>
	</outline>
</glyph>
<glyph name="I" format="2">
	<advance width="428"/>
	<unicode hex="0049"/>
	<note>
		I
	</note>
	<outline>
		<contour>
			<point x="249" y="166" type="line"/>
			<point x="273" y="166" type="line"/>
			<point x="249" y="261" type="line"/>
			<point x="273" y="262" type="line"/>
			<point x="249" y="357" type="line"/>
			<point x="273" y="357" type="line"/>
			<point x="261" y="404" type="line"/>
			<point x="362" y="381" type="line"/>
			<point x="344" y="452" type="line"/>
			<point x="368" y="452" type="line"/>
			<point x="362" y="476" type="line"/>
			<point x="261" y="500" type="line"/>
			<point x="267" y="476" type="line"/>
			<point x="166" y="500" type="line"/>
			<point x="172" y="476" type="line"/>
			<point x="71" y="499" type="line"/>
			<point x="83" y="452" type="line"/>
			<point x="60" y="452" type="line"/>
			<point x="71" y="404" type="line"/>
			<point x="160" y="428" type="line"/>
			<point x="178" y="357" type="line"/>
			<point x="154" y="357" type="line"/>
			<point x="178" y="262" type="line"/>
			<point x="154" y="261" type="line"/>
			<point x="178" y="166" type="line"/>
			<point x="154" y="166" type="line"/>
			<point x="172" y="96" type="line"/>
			<point x="71" y="119" type="line"/>
			<point x="83" y="72" type="line"/>
			<point x="60" y="73" type="line"/>
			<point x="71" y="25" type="line"/>
			<point x="172" y="0" type="line"/>
			<point x="166" y="24" type="line"/>
			<point x="267" y="0" type="line"/>
			<point x="261" y="25" type="line"/>
			<point x="362" y="2" type="line"/>
			<point x="344" y="73" type="line"/>
			<point x="368" y="72" type="line"/>
			<point x="362" y="96" type="line"/>
			<point x="261" y="119" type="line"/>
		</contour>
	</outline>
</glyph>
<glyph name="J" format="2">
	<advance width="505"/>
	<unicode hex="004A"/>
	<note>
		J
	</note>
	<outline>
		<contour>
			<point x="249" y="95" type="line"/>
			<point x="243" y="119" type="line"/>
			<point x="344" y="95" type="line"/>
			<point x="326" y="167" type="line"/>
			<point x="350" y="167" type="line"/>
			<point x="326" y="262" type="line"/>
			<point x="350" y="262" type="line"/>
			<point x="326" y="357" type="line"/>
			<point x="350" y="357" type="line"/>
			<point x="326" y="452" type="line"/>
			<point x="350" y="452" type="line"/>
			<point x="338" y="500" type="line"/>
			<point x="439" y="476" type="line"/>
			<point x="445" y="452" type="line"/>
			<point x="421" y="452" type="line"/>
			<point x="445" y="357" type="line"/>
			<point x="421" y="357" type="line"/>
			<point x="445" y="262" type="line"/>
			<point x="421" y="262" type="line"/>
			<point x="445" y="167" type="line"/>
			<point x="421" y="167" type="line"/>
			<point x="445" y="71" type="line"/>
			<point x="421" y="71" type="line"/>
			<point x="427" y="48" type="line"/>
			<point x="338" y="24" type="line"/>
			<point x="344" y="0" type="line"/>
			<point x="243" y="24" type="line"/>
			<point x="249" y="0" type="line"/>
			<point x="148" y="24" type="line"/>
			<point x="136" y="71" type="line"/>
			<point x="159" y="71" type="line"/>
			<point x="153" y="95" type="line"/>
			<point x="52" y="119" type="line"/>
			<point x="40" y="167" type="line"/>
			<point x="64" y="167" type="line"/>
			<point x="52" y="214" type="line"/>
			<point x="142" y="238" type="line"/>
			<point x="159" y="167" type="line"/>
			<point x="136" y="167" type="line"/>
			<point x="148" y="119" type="line"/>
		</contour>
	</outline>
</glyph>
<glyph name="K" format="2">
	<advance width="505"/>
	<unicode hex="004B"/>
	<note>
		K
	</note>
	<outline>
		<contour>
			<point x="465" y="357" type="line"/>
			<point x="442" y="357" type="line"/>
			<point x="447" y="333" type="line"/>
			<point x="358" y="309" type="line"/>
			<point x="370" y="261" type="line"/>
			<point x="346" y="261" type="line"/>
			<point x="358" y="214" type="line"/>
			<point x="447" y="238" type="line"/>
			<point x="465" y="166" type="line"/>
			<point x="442" y="167" type="line"/>
			<point x="465" y="71" type="line"/>
			<point x="442" y="71" type="line"/>
			<point x="459" y="0" type="line"/>
			<point x="358" y="24" type="line"/>
			<point x="346" y="71" type="line"/>
			<point x="370" y="71" type="line"/>
			<point x="346" y="167" type="line"/>
			<point x="370" y="166" type="line"/>
			<point x="364" y="190" type="line"/>
			<point x="263" y="214" type="line"/>
			<point x="257" y="238" type="line"/>
			<point x="167" y="214" type="line"/>
			<point x="179" y="166" type="line"/>
			<point x="155" y="167" type="line"/>
			<point x="179" y="71" type="line"/>
			<point x="155" y="71" type="line"/>
			<point x="173" y="0" type="line"/>
			<point x="72" y="24" type="line"/>
			<point x="60" y="71" type="line"/>
			<point x="84" y="71" type="line"/>
			<point x="60" y="167" type="line"/>
			<point x="84" y="166" type="line"/>
			<point x="60" y="261" type="line"/>
			<point x="84" y="261" type="line"/>
			<point x="60" y="357" type="line"/>
			<point x="84" y="357" type="line"/>
			<point x="60" y="452" type="line"/>
			<point x="84" y="452" type="line"/>
			<point x="72" y="500" type="line"/>
			<point x="173" y="476" type="line"/>
			<point x="179" y="452" type="line"/>
			<point x="155" y="452" type="line"/>
			<point x="179" y="357" type="line"/>
			<point x="155" y="357" type="line"/>
			<point x="167" y="309" type="line"/>
			<point x="269" y="285" type="line"/>
			<point x="263" y="309" type="line"/>
			<point x="352" y="333" type="line"/>
			<point x="346" y="357" type="line"/>
			<point x="370" y="357" type="line"/>
			<point x="346" y="452" type="line"/>
			<point x="370" y="452" type="line"/>
			<point x="358" y="500" type="line"/>
			<point x="459" y="476" type="line"/>
			<point x="465" y="452" type="line"/>
			<point x="441" y="452" type="line"/>
		</contour>
	</outline>
</glyph>
<glyph name="L" format="2">
	<advance width="505"/>
	<unicode hex="004C"/>
	<note>
		L
	</note>
	<outline>
		<contour>
			<point x="72" y="500" type="line"/>
			<point x="84" y="452" type="line"/>
			<point x="60" y="452" type="line"/>
			<point x="84" y="357" type="line"/>
			<point x="60" y="357" type="line"/>
			<point x="84" y="262" type="line"/>
			<point x="60" y="262" type="line"/>
			<point x="84" y="167" type="line"/>
			<point x="60" y="167" type="line"/>
			<point x="84" y="71" type="line"/>
			<point x="60" y="71" type="line"/>
			<point x="72" y="24" type="line"/>
			<point x="173" y="0" type="line"/>
			<point x="167" y="24" type="line"/>
			<point x="269" y="0" type="line"/>
			<point x="263" y="24" type="line"/>
			<point x="364" y="0" type="line"/>
			<point x="358" y="24" type="line"/>
			<point x="459" y="0" type="line"/>
			<point x="441" y="71" type="line"/>
			<point x="465" y="71" type="line"/>
			<point x="447" y="143" type="line"/>
			<point x="358" y="119" type="line"/>
			<point x="364" y="95" type="line"/>
			<point x="263" y="119" type="line"/>
			<point x="269" y="95" type="line"/>
			<point x="167" y="119" type="line"/>
			<point x="156" y="167" type="line"/>
			<point x="179" y="167" type="line"/>
			<point x="156" y="262" type="line"/>
			<point x="179" y="262" type="line"/>
			<point x="156" y="357" type="line"/>
			<point x="179" y="357" type="line"/>
			<point x="156" y="452" type="line"/>
			<point x="179" y="452" type="line"/>
			<point x="173" y="476" type="line"/>
		</contour>
	</outline>
</glyph>
<glyph name="M" format="2">
	<advance width="806"/>
	<unicode hex="004D"/>
	<note>
		M
	</note>
	<outline>
		<contour>
			<point x="537" y="429" type="line"/>
			<point x="531" y="452" type="line"/>
			<point x="555" y="452" type="line"/>
			<point x="543" y="500" type="line"/>
			<point x="644" y="476" type="line"/>
			<point x="639" y="500" type="line"/>
			<point x="740" y="476" type="line"/>
			<point x="746" y="452" type="line"/>
			<point x="722" y="452" type="line"/>
			<point x="746" y="357" type="line"/>
			<point x="722" y="357" type="line"/>
			<point x="746" y="262" type="line"/>
			<point x="722" y="262" type="line"/>
			<point x="746" y="167" type="line"/>
			<point x="722" y="167" type="line"/>
			<point x="746" y="72" type="line"/>
			<point x="722" y="71" type="line"/>
			<point x="740" y="0" type="line"/>
			<point x="639" y="24" type="line"/>
			<point x="627" y="71" type="line"/>
			<point x="650" y="72" type="line"/>
			<point x="627" y="167" type="line"/>
			<point x="650" y="167" type="line"/>
			<point x="627" y="262" type="line"/>
			<point x="650" y="262" type="line"/>
			<point x="627" y="357" type="line"/>
			<point x="650" y="357" type="line"/>
			<point x="632" y="429" type="line"/>
			<point x="543" y="405" type="line"/>
			<point x="555" y="357" type="line"/>
			<point x="531" y="357" type="line"/>
			<point x="537" y="333" type="line"/>
			<point x="448" y="309" type="line"/>
			<point x="460" y="262" type="line"/>
			<point x="436" y="262" type="line"/>
			<point x="460" y="167" type="line"/>
			<point x="436" y="167" type="line"/>
			<point x="460" y="72" type="line"/>
			<point x="436" y="71" type="line"/>
			<point x="454" y="0" type="line"/>
			<point x="353" y="24" type="line"/>
			<point x="341" y="71" type="line"/>
			<point x="365" y="72" type="line"/>
			<point x="341" y="167" type="line"/>
			<point x="365" y="167" type="line"/>
			<point x="341" y="262" type="line"/>
			<point x="365" y="262" type="line"/>
			<point x="359" y="286" type="line"/>
			<point x="258" y="309" type="line"/>
			<point x="246" y="357" type="line"/>
			<point x="270" y="357" type="line"/>
			<point x="264" y="381" type="line"/>
			<point x="162" y="405" type="line"/>
			<point x="174" y="357" type="line"/>
			<point x="150" y="357" type="line"/>
			<point x="174" y="262" type="line"/>
			<point x="150" y="262" type="line"/>
			<point x="174" y="167" type="line"/>
			<point x="150" y="167" type="line"/>
			<point x="174" y="72" type="line"/>
			<point x="150" y="71" type="line"/>
			<point x="168" y="0" type="line"/>
			<point x="67" y="24" type="line"/>
			<point x="55" y="71" type="line"/>
			<point x="79" y="72" type="line"/>
			<point x="55" y="167" type="line"/>
			<point x="79" y="167" type="line"/>
			<point x="55" y="262" type="line"/>
			<point x="79" y="262" type="line"/>
			<point x="55" y="357" type="line"/>
			<point x="79" y="357" type="line"/>
			<point x="55" y="452" type="line"/>
			<point x="79" y="452" type="line"/>
			<point x="67" y="500" type="line"/>
			<point x="168" y="476" type="line"/>
			<point x="162" y="500" type="line"/>
			<point x="264" y="476" type="line"/>
			<point x="270" y="452" type="line"/>
			<point x="246" y="452" type="line"/>
			<point x="258" y="405" type="line"/>
			<point x="359" y="381" type="line"/>
			<point x="365" y="357" type="line"/>
			<point x="341" y="357" type="line"/>
			<point x="353" y="309" type="line"/>
			<point x="442" y="333" type="line"/>
			<point x="436" y="357" type="line"/>
			<point x="460" y="357" type="line"/>
			<point x="448" y="405" type="line"/>
		</contour>
	</outline>
</glyph>
<glyph name="N" format="2">
	<advance width="610"/>
	<unicode hex="004E"/>
	<note>
		N
	</note>
	<outline>
		<contour>
			<point x="263" y="476" type="line"/>
			<point x="162" y="500" type="line"/>
			<point x="168" y="476" type="line"/>
			<point x="67" y="500" type="line"/>
			<point x="79" y="453" type="line"/>
			<point x="55" y="453" type="line"/>
			<point x="79" y="357" type="line"/>
			<point x="55" y="357" type="line"/>
			<point x="79" y="262" type="line"/>
			<point x="55" y="262" type="line"/>
			<point x="79" y="167" type="line"/>
			<point x="55" y="167" type="line"/>
			<point x="79" y="71" type="line"/>
			<point x="55" y="71" type="line"/>
			<point x="67" y="24" type="line"/>
			<point x="168" y="0" type="line"/>
			<point x="150" y="71" type="line"/>
			<point x="174" y="71" type="line"/>
			<point x="150" y="167" type="line"/>
			<point x="174" y="167" type="line"/>
			<point x="150" y="262" type="line"/>
			<point x="174" y="262" type="line"/>
			<point x="150" y="357" type="line"/>
			<point x="174" y="357" type="line"/>
			<point x="162" y="405" type="line"/>
			<point x="263" y="381" type="line"/>
			<point x="269" y="357" type="line"/>
			<point x="245" y="357" type="line"/>
			<point x="269" y="262" type="line"/>
			<point x="245" y="262" type="line"/>
			<point x="269" y="167" type="line"/>
			<point x="245" y="167" type="line"/>
			<point x="257" y="119" type="line"/>
			<point x="358" y="95" type="line"/>
			<point x="364" y="71" type="line"/>
			<point x="341" y="71" type="line"/>
			<point x="352" y="24" type="line"/>
			<point x="454" y="0" type="line"/>
			<point x="448" y="24" type="line"/>
			<point x="549" y="0" type="line"/>
			<point x="531" y="71" type="line"/>
			<point x="555" y="71" type="line"/>
			<point x="531" y="167" type="line"/>
			<point x="555" y="167" type="line"/>
			<point x="531" y="262" type="line"/>
			<point x="555" y="262" type="line"/>
			<point x="531" y="357" type="line"/>
			<point x="555" y="357" type="line"/>
			<point x="531" y="452" type="line"/>
			<point x="555" y="452" type="line"/>
			<point x="549" y="476" type="line"/>
			<point x="448" y="500" type="line"/>
			<point x="460" y="452" type="line"/>
			<point x="436" y="452" type="line"/>
			<point x="460" y="357" type="line"/>
			<point x="436" y="357" type="line"/>
			<point x="460" y="262" type="line"/>
			<point x="436" y="262" type="line"/>
			<point x="460" y="167" type="line"/>
			<point x="436" y="167" type="line"/>
			<point x="454" y="95" type="line"/>
			<point x="352" y="119" type="line"/>
			<point x="341" y="167" type="line"/>
			<point x="364" y="167" type="line"/>
			<point x="341" y="262" type="line"/>
			<point x="364" y="262" type="line"/>
			<point x="341" y="357" type="line"/>
			<point x="364" y="357" type="line"/>
			<point x="358" y="381" type="line"/>
			<point x="257" y="405" type="line"/>
			<point x="245" y="453" type="line"/>
			<point x="269" y="453" type="line"/>
		</contour>
	</outline>
</glyph>
<glyph name="P" format="2">
	<advance width="515"/>
	<unicode hex="0050"/>
	<note>
		P
	</note>
	<outline>
		<contour>
			<point x="72" y="500" type="line"/>
			<point x="84" y="452" type="line"/>
			<point x="60" y="452" type="line"/>
			<point x="84" y="357" type="line"/>
			<point x="60" y="357" type="line"/>
			<point x="84" y="262" type="line"/>
			<point x="60" y="262" type="line"/>
			<point x="84" y="166" type="line"/>
			<point x="60" y="167" type="line"/>
			<point x="84" y="71" type="line"/>
			<point x="60" y="71" type="line"/>
			<point x="72" y="24" type="line"/>
			<point x="173" y="0" type="line"/>
			<point x="156" y="71" type="line"/>
			<point x="179" y="71" type="line"/>
			<point x="156" y="167" type="line"/>
			<point x="179" y="166" type="line"/>
			<point x="168" y="214" type="line"/>
			<point x="269" y="190" type="line"/>
			<point x="263" y="214" type="line"/>
			<point x="364" y="190" type="line"/>
			<point x="358" y="214" type="line"/>
			<point x="447" y="238" type="line"/>
			<point x="442" y="262" type="line"/>
			<point x="465" y="262" type="line"/>
			<point x="442" y="357" type="line"/>
			<point x="465" y="357" type="line"/>
			<point x="442" y="452" type="line"/>
			<point x="465" y="452" type="line"/>
			<point x="459" y="476" type="line"/>
			<point x="358" y="500" type="line"/>
			<point x="364" y="476" type="line"/>
			<point x="263" y="500" type="line"/>
			<point x="269" y="476" type="line"/>
			<point x="168" y="500" type="line"/>
			<point x="173" y="476" type="line"/>
		</contour>
		<contour>
			<point x="168" y="405" type="line"/>
			<point x="257" y="429" type="line"/>
			<point x="263" y="405" type="line"/>
			<point x="352" y="429" type="line"/>
			<point x="370" y="357" type="line"/>
			<point x="346" y="357" type="line"/>
			<point x="364" y="286" type="line"/>
			<point x="263" y="309" type="line"/>
			<point x="269" y="286" type="line"/>
			<point x="168" y="309" type="line"/>
			<point x="156" y="357" type="line"/>
			<point x="179" y="357" type="line"/>
		</contour>
	</outline>
</glyph>
<glyph name="Q" format="2">
	<advance width="571"/>
	<unicode hex="0051"/>
	<note>
		Q
	</note>
	<outline>
		<contour>
			<point x="432" y="167" type="line"/>
			<point x="455" y="166" type="line"/>
			<point x="432" y="261" type="line"/>
			<point x="455" y="262" type="line"/>
			<point x="432" y="357" type="line"/>
			<point x="455" y="357" type="line"/>
			<point x="432" y="452" type="line"/>
			<point x="455" y="452" type="line"/>
			<point x="449" y="476" type="line"/>
			<point x="348" y="500" type="line"/>
			<point x="354" y="476" type="line"/>
			<point x="253" y="500" type="line"/>
			<point x="259" y="476" type="line"/>
			<point x="157" y="500" type="line"/>
			<point x="169" y="452" type="line"/>
			<point x="145" y="452" type="line"/>
			<point x="151" y="429" type="line"/>
			<point x="62" y="405" type="line"/>
			<point x="74" y="357" type="line"/>
			<point x="50" y="357" type="line"/>
			<point x="74" y="262" type="line"/>
			<point x="50" y="261" type="line"/>
			<point x="74" y="166" type="line"/>
			<point x="50" y="167" type="line"/>
			<point x="74" y="71" type="line"/>
			<point x="50" y="71" type="line"/>
			<point x="62" y="24" type="line"/>
			<point x="151" y="48" type="line"/>
			<point x="157" y="24" type="line"/>
			<point x="259" y="0" type="line"/>
			<point x="253" y="24" type="line"/>
			<point x="342" y="48" type="line"/>
			<point x="348" y="23" type="line"/>
			<point x="438" y="47" type="line"/>
			<point x="444" y="23" type="line"/>
			<point x="533" y="47" type="line"/>
			<point x="527" y="71" type="line"/>
			<point x="551" y="71" type="line"/>
			<point x="533" y="142" type="line"/>
			<point x="444" y="118" type="line"/>
		</contour>
		<contour>
			<point x="336" y="261" type="line"/>
			<point x="360" y="166" type="line"/>
			<point x="336" y="166" type="line"/>
			<point x="354" y="95" type="line"/>
			<point x="253" y="119" type="line"/>
			<point x="259" y="95" type="line"/>
			<point x="157" y="119" type="line"/>
			<point x="145" y="167" type="line"/>
			<point x="169" y="166" type="line"/>
			<point x="145" y="261" type="line"/>
			<point x="169" y="262" type="line"/>
			<point x="145" y="357" type="line"/>
			<point x="169" y="357" type="line"/>
			<point x="157" y="405" type="line"/>
			<point x="259" y="381" type="line"/>
			<point x="253" y="405" type="line"/>
			<point x="342" y="429" type="line"/>
			<point x="360" y="357" type="line"/>
			<point x="336" y="357" type="line"/>
			<point x="360" y="262" type="line"/>
		</contour>
	</outline>
</glyph>
<glyph name="R" format="2">
	<advance width="505"/>
	<unicode hex="0052"/>
	<note>
		R
	</note>
	<outline>
		<contour>
			<point x="465" y="357" type="line"/>
			<point x="441" y="357" type="line"/>
			<point x="465" y="262" type="line"/>
			<point x="441" y="262" type="line"/>
			<point x="447" y="238" type="line"/>
			<point x="358" y="214" type="line"/>
			<point x="459" y="190" type="line"/>
			<point x="465" y="167" type="line"/>
			<point x="441" y="167" type="line"/>
			<point x="465" y="71" type="line"/>
			<point x="441" y="71" type="line"/>
			<point x="459" y="0" type="line"/>
			<point x="358" y="24" type="line"/>
			<point x="346" y="71" type="line"/>
			<point x="369" y="71" type="line"/>
			<point x="346" y="167" type="line"/>
			<point x="369" y="167" type="line"/>
			<point x="363" y="191" type="line"/>
			<point x="262" y="214" type="line"/>
			<point x="256" y="238" type="line"/>
			<point x="167" y="214" type="line"/>
			<point x="179" y="167" type="line"/>
			<point x="155" y="167" type="line"/>
			<point x="179" y="71" type="line"/>
			<point x="155" y="71" type="line"/>
			<point x="173" y="0" type="line"/>
			<point x="72" y="24" type="line"/>
			<point x="60" y="71" type="line"/>
			<point x="84" y="71" type="line"/>
			<point x="60" y="167" type="line"/>
			<point x="84" y="167" type="line"/>
			<point x="60" y="262" type="line"/>
			<point x="84" y="262" type="line"/>
			<point x="60" y="357" type="line"/>
			<point x="84" y="357" type="line"/>
			<point x="60" y="452" type="line"/>
			<point x="84" y="452" type="line"/>
			<point x="72" y="500" type="line"/>
			<point x="173" y="476" type="line"/>
			<point x="167" y="500" type="line"/>
			<point x="268" y="476" type="line"/>
			<point x="262" y="500" type="line"/>
			<point x="363" y="476" type="line"/>
			<point x="369" y="452" type="line"/>
			<point x="346" y="452" type="line"/>
			<point x="358" y="405" type="line"/>
			<point x="459" y="381" type="line"/>
		</contour>
		<contour>
			<point x="168" y="404" type="line"/>
			<point x="180" y="357" type="line"/>
			<point x="156" y="358" type="line"/>
			<point x="168" y="310" type="line"/>
			<point x="269" y="286" type="line"/>
			<point x="263" y="310" type="line"/>
			<point x="364" y="286" type="line"/>
			<point x="346" y="358" type="line"/>
			<point x="370" y="357" type="line"/>
			<point x="364" y="381" type="line"/>
			<point x="263" y="404" type="line"/>
			<point x="257" y="428" type="line"/>
		</contour>
	</outline>
</glyph>
<glyph name="U" format="2">
	<advance width="519"/>
	<unicode hex="0055"/>
	<note>
		U
	</note>
	<outline>
		<contour>
			<point x="72" y="500" type="line"/>
			<point x="173" y="476" type="line"/>
			<point x="179" y="452" type="line"/>
			<point x="155" y="452" type="line"/>
			<point x="179" y="357" type="line"/>
			<point x="155" y="358" type="line"/>
			<point x="179" y="263" type="line"/>
			<point x="155" y="263" type="line"/>
			<point x="179" y="168" type="line"/>
			<point x="155" y="167" type="line"/>
			<point x="167" y="120" type="line"/>
			<point x="268" y="96" type="line"/>
			<point x="262" y="120" type="line"/>
			<point x="363" y="96" type="line"/>
			<point x="345" y="167" type="line"/>
			<point x="369" y="168" type="line"/>
			<point x="345" y="263" type="line"/>
			<point x="369" y="263" type="line"/>
			<point x="345" y="358" type="line"/>
			<point x="369" y="357" type="line"/>
			<point x="345" y="452" type="line"/>
			<point x="369" y="452" type="line"/>
			<point x="357" y="500" type="line"/>
			<point x="458" y="476" type="line"/>
			<point x="464" y="452" type="line"/>
			<point x="441" y="452" type="line"/>
			<point x="464" y="357" type="line"/>
			<point x="441" y="358" type="line"/>
			<point x="464" y="263" type="line"/>
			<point x="441" y="263" type="line"/>
			<point x="464" y="168" type="line"/>
			<point x="441" y="167" type="line"/>
			<point x="464" y="72" type="line"/>
			<point x="441" y="72" type="line"/>
			<point x="458" y="0" type="line"/>
			<point x="357" y="24" type="line"/>
			<point x="363" y="0" type="line"/>
			<point x="262" y="24" type="line"/>
			<point x="268" y="0" type="line"/>
			<point x="167" y="24" type="line"/>
			<point x="173" y="0" type="line"/>
			<point x="72" y="24" type="line"/>
			<point x="60" y="72" type="line"/>
			<point x="84" y="72" type="line"/>
			<point x="60" y="167" type="line"/>
			<point x="84" y="168" type="line"/>
			<point x="60" y="263" type="line"/>
			<point x="84" y="263" type="line"/>
			<point x="60" y="358" type="line"/>
			<point x="84" y="357" type="line"/>
			<point x="60" y="452" type="line"/>
			<point x="84" y="452" type="line"/>
		</contour>
	</outline>
</glyph>
<glyph name="X" format="2">
	<advance width="486"/>
	<unicode hex="0058"/>
	<note>
		X
	</note>
	<outline>
		<contour>
			<point x="136" y="262" type="line"/>
			<point x="159" y="262" type="line"/>
			<point x="153" y="286" type="line"/>
			<point x="52" y="309" type="line"/>
			<point x="40" y="357" type="line"/>
			<point x="64" y="357" type="line"/>
			<point x="40" y="452" type="line"/>
			<point x="64" y="452" type="line"/>
			<point x="52" y="500" type="line"/>
			<point x="153" y="476" type="line"/>
			<point x="159" y="452" type="line"/>
			<point x="136" y="452" type="line"/>
			<point x="159" y="357" type="line"/>
			<point x="136" y="357" type="line"/>
			<point x="148" y="309" type="line"/>
			<point x="249" y="286" type="line"/>
			<point x="243" y="309" type="line"/>
			<point x="332" y="333" type="line"/>
			<point x="327" y="357" type="line"/>
			<point x="351" y="357" type="line"/>
			<point x="327" y="452" type="line"/>
			<point x="351" y="452" type="line"/>
			<point x="339" y="500" type="line"/>
			<point x="440" y="476" type="line"/>
			<point x="446" y="452" type="line"/>
			<point x="423" y="452" type="line"/>
			<point x="446" y="357" type="line"/>
			<point x="423" y="357" type="line"/>
			<point x="439" y="286" type="line"/>
			<point x="338" y="309" type="line"/>
			<point x="350" y="262" type="line"/>
			<point x="326" y="262" type="line"/>
			<point x="338" y="214" type="line"/>
			<point x="439" y="190" type="line"/>
			<point x="445" y="167" type="line"/>
			<point x="421" y="167" type="line"/>
			<point x="445" y="71" type="line"/>
			<point x="421" y="71" type="line"/>
			<point x="439" y="0" type="line"/>
			<point x="338" y="24" type="line"/>
			<point x="326" y="71" type="line"/>
			<point x="350" y="71" type="line"/>
			<point x="326" y="167" type="line"/>
			<point x="350" y="167" type="line"/>
			<point x="344" y="190" type="line"/>
			<point x="243" y="214" type="line"/>
			<point x="255" y="167" type="line"/>
			<point x="231" y="167" type="line"/>
			<point x="237" y="143" type="line"/>
			<point x="148" y="119" type="line"/>
			<point x="159" y="71" type="line"/>
			<point x="136" y="71" type="line"/>
			<point x="153" y="0" type="line"/>
			<point x="52" y="24" type="line"/>
			<point x="40" y="71" type="line"/>
			<point x="64" y="71" type="line"/>
			<point x="40" y="167" type="line"/>
			<point x="64" y="167" type="line"/>
			<point x="52" y="214" type="line"/>
			<point x="153" y="191" type="line"/>
		</contour>
	</outline>
</glyph>
<glyph name="Y" format="2">
	<advance width="486"/>
	<unicode hex="0059"/>
	<note>
		Y
	</note>
	<outline>
		<contour>
			<point x="148" y="24" type="line"/>
			<point x="250" y="0" type="line"/>
			<point x="232" y="71" type="line"/>
			<point x="256" y="71" type="line"/>
			<point x="244" y="119" type="line"/>
			<point x="333" y="143" type="line"/>
			<point x="327" y="167" type="line"/>
			<point x="351" y="167" type="line"/>
			<point x="339" y="214" type="line"/>
			<point x="428" y="238" type="line"/>
			<point x="422" y="262" type="line"/>
			<point x="446" y="262" type="line"/>
			<point x="422" y="357" type="line"/>
			<point x="446" y="357" type="line"/>
			<point x="422" y="453" type="line"/>
			<point x="446" y="453" type="line"/>
			<point x="440" y="476" type="line"/>
			<point x="339" y="500" type="line"/>
			<point x="351" y="453" type="line"/>
			<point x="327" y="453" type="line"/>
			<point x="351" y="357" type="line"/>
			<point x="327" y="357" type="line"/>
			<point x="351" y="262" type="line"/>
			<point x="327" y="262" type="line"/>
			<point x="333" y="238" type="line"/>
			<point x="244" y="214" type="line"/>
			<point x="231" y="262" type="line"/>
			<point x="254" y="262" type="line"/>
			<point x="248" y="286" type="line"/>
			<point x="147" y="309" type="line"/>
			<point x="135" y="357" type="line"/>
			<point x="159" y="357" type="line"/>
			<point x="135" y="452" type="line"/>
			<point x="159" y="452" type="line"/>
			<point x="153" y="476" type="line"/>
			<point x="51" y="500" type="line"/>
			<point x="63" y="452" type="line"/>
			<point x="40" y="452" type="line"/>
			<point x="63" y="357" type="line"/>
			<point x="40" y="357" type="line"/>
			<point x="63" y="262" type="line"/>
			<point x="40" y="262" type="line"/>
			<point x="52" y="214" type="line"/>
			<point x="141" y="238" type="line"/>
			<point x="148" y="214" type="line"/>
			<point x="250" y="191" type="line"/>
			<point x="256" y="167" type="line"/>
			<point x="232" y="167" type="line"/>
			<point x="238" y="143" type="line"/>
			<point x="148" y="119" type="line"/>
			<point x="160" y="71" type="line"/>
			<point x="136" y="71" type="line"/>
		</contour>
	</outline>
</glyph>
<glyph name="Z" format="2">
	<advance width="469"/>
	<unicode hex="005A"/>
	<note>
		Z
	</note>
	<outline>
		<contour>
			<point x="47" y="500" type="line"/>
			<point x="148" y="476" type="line"/>
			<point x="142" y="500" type="line"/>
			<point x="243" y="476" type="line"/>
			<point x="237" y="500" type="line"/>
			<point x="338" y="476" type="line"/>
			<point x="332" y="500" type="line"/>
			<point x="433" y="476" type="line"/>
			<point x="439" y="453" type="line"/>
			<point x="415" y="452" type="line"/>
			<point x="439" y="357" type="line"/>
			<point x="415" y="357" type="line"/>
			<point x="433" y="286" type="line"/>
			<point x="332" y="309" type="line"/>
			<point x="344" y="262" type="line"/>
			<point x="320" y="261" type="line"/>
			<point x="326" y="238" type="line"/>
			<point x="237" y="214" type="line"/>
			<point x="231" y="238" type="line"/>
			<point x="142" y="214" type="line"/>
			<point x="154" y="166" type="line"/>
			<point x="130" y="166" type="line"/>
			<point x="142" y="119" type="line"/>
			<point x="243" y="95" type="line"/>
			<point x="237" y="119" type="line"/>
			<point x="338" y="95" type="line"/>
			<point x="332" y="119" type="line"/>
			<point x="421" y="143" type="line"/>
			<point x="439" y="71" type="line"/>
			<point x="415" y="71" type="line"/>
			<point x="433" y="0" type="line"/>
			<point x="332" y="24" type="line"/>
			<point x="338" y="0" type="line"/>
			<point x="237" y="24" type="line"/>
			<point x="243" y="0" type="line"/>
			<point x="142" y="24" type="line"/>
			<point x="136" y="47" type="line"/>
			<point x="47" y="24" type="line"/>
			<point x="35" y="71" type="line"/>
			<point x="59" y="71" type="line"/>
			<point x="35" y="166" type="line"/>
			<point x="59" y="166" type="line"/>
			<point x="47" y="214" type="line"/>
			<point x="136" y="238" type="line"/>
			<point x="130" y="261" type="line"/>
			<point x="154" y="262" type="line"/>
			<point x="142" y="309" type="line"/>
			<point x="243" y="286" type="line"/>
			<point x="237" y="309" type="line"/>
			<point x="326" y="333" type="line"/>
			<point x="320" y="357" type="line"/>
			<point x="344" y="357" type="line"/>
			<point x="326" y="428" type="line"/>
			<point x="237" y="404" type="line"/>
			<point x="243" y="381" type="line"/>
			<point x="142" y="404" type="line"/>
			<point x="147" y="381" type="line"/>
			<point x="47" y="404" type="line"/>
			<point x="35" y="452" type="line"/>
			<point x="59" y="453" type="line"/>
		</contour>
	</outline>
</glyph>
<glyph name="bracketleft" format="2">
	<advance width="294"/>
	<unicode hex="005B"/>
	<outline>
		<contour>
			<point x="148" y="119" type="line"/>
			<point x="136" y="166" type="line"/>
			<point x="159" y="166" type="line"/>
			<point x="136" y="261" type="line"/>
			<point x="159" y="261" type="line"/>
			<point x="136" y="356" type="line"/>
			<point x="159" y="356" type="line"/>
			<point x="148" y="404" type="line"/>
			<point x="248" y="381" type="line"/>
			<point x="231" y="452" type="line"/>
			<point x="254" y="453" type="line"/>
			<point x="248" y="476" type="line"/>
			<point x="147" y="500" type="line"/>
			<point x="153" y="476" type="line"/>
			<point x="52" y="500" type="line"/>
			<point x="64" y="452" type="line"/>
			<point x="40" y="452" type="line"/>
			<point x="64" y="357" type="line"/>
			<point x="40" y="357" type="line"/>
			<point x="64" y="262" type="line"/>
			<point x="40" y="262" type="line"/>
			<point x="64" y="167" type="line"/>
			<point x="40" y="166" type="line"/>
			<point x="64" y="71" type="line"/>
			<point x="40" y="71" type="line"/>
			<point x="52" y="24" type="line"/>
			<point x="153" y="0" type="line"/>
			<point x="147" y="24" type="line"/>
			<point x="248" y="1" type="line"/>
			<point x="231" y="72" type="line"/>
			<point x="254" y="71" type="line"/>
			<point x="248" y="95" type="line"/>
		</contour>
	</outline>
</glyph>
<glyph name="backslash" format="2">
	<advance width="389"/>
	<unicode hex="005C"/>
	<note>
		backslash
	</note>
	<outline>
		<contour>
			<point x="51" y="500" type="line"/>
			<point x="153" y="476" type="line"/>
			<point x="159" y="452" type="line"/>
			<point x="135" y="452" type="line"/>
			<point x="147" y="405" type="line"/>
			<point x="248" y="381" type="line"/>
			<point x="254" y="357" type="line"/>
			<point x="230" y="357" type="line"/>
			<point x="254" y="262" type="line"/>
			<point x="230" y="262" type="line"/>
			<point x="254" y="165" type="line"/>
			<point x="230" y="167" type="line"/>
			<point x="242" y="119" type="line"/>
			<point x="343" y="95" type="line"/>
			<point x="349" y="72" type="line"/>
			<point x="325" y="71" type="line"/>
			<point x="343" y="0" type="line"/>
			<point x="242" y="24" type="line"/>
			<point x="230" y="71" type="line"/>
			<point x="254" y="72" type="line"/>
			<point x="248" y="95" type="line"/>
			<point x="147" y="119" type="line"/>
			<point x="135" y="167" type="line"/>
			<point x="159" y="167" type="line"/>
			<point x="135" y="262" type="line"/>
			<point x="159" y="262" type="line"/>
			<point x="135" y="357" type="line"/>
			<point x="159" y="357" type="line"/>
			<point x="153" y="381" type="line"/>
			<point x="51" y="405" type="line"/>
			<point x="40" y="452" type="line"/>
			<point x="63" y="452" type="line"/>
		</contour>
	</outline>
</glyph>
<glyph name="bracketright" format="2">
	<advance width="295"/>
	<unicode hex="005D"/>
	<outline>
		<contour>
			<point x="153" y="381" type="line"/>
			<point x="159" y="356" type="line"/>
			<point x="136" y="356" type="line"/>
			<point x="159" y="261" type="line"/>
			<point x="136" y="261" type="line"/>
			<point x="159" y="165" type="line"/>
			<point x="136" y="166" type="line"/>
			<point x="153" y="95" type="line"/>
			<point x="52" y="119" type="line"/>
			<point x="64" y="71" type="line"/>
			<point x="40" y="72" type="line"/>
			<point x="52" y="24" type="line"/>
			<point x="153" y="0" type="line"/>
			<point x="147" y="24" type="line"/>
			<point x="249" y="0" type="line"/>
			<point x="231" y="71" type="line"/>
			<point x="255" y="71" type="line"/>
			<point x="231" y="166" type="line"/>
			<point x="255" y="167" type="line"/>
			<point x="231" y="262" type="line"/>
			<point x="255" y="262" type="line"/>
			<point x="231" y="357" type="line"/>
			<point x="255" y="357" type="line"/>
			<point x="231" y="452" type="line"/>
			<point x="255" y="452" type="line"/>
			<point x="249" y="476" type="line"/>
			<point x="147" y="500" type="line"/>
			<point x="153" y="476" type="line"/>
			<point x="52" y="500" type="line"/>
			<point x="64" y="452" type="line"/>
			<point x="40" y="452" type="line"/>
			<point x="52" y="405" type="line"/>
		</contour>
	</outline>
</glyph>
<glyph name="underscore" format="2">
	<advance width="403"/>
	<unicode hex="005F"/>
	<note>
		underscore
	</note>
	<outline>
		<contour>
			<point x="303" y="-95" type="line"/>
			<point x="202" y="-71" type="line"/>
			<point x="208" y="-95" type="line"/>
			<point x="107" y="-71" type="line"/>
			<point x="113" y="-95" type="line"/>
			<point x="12" y="-71" type="line"/>
			<point x="0" y="-24" type="line"/>
			<point x="24" y="-24" type="line"/>
			<point x="12" y="24" type="line"/>
			<point x="113" y="0" type="line"/>
			<point x="107" y="24" type="line"/>
			<point x="208" y="0" type="line"/>
			<point x="202" y="24" type="line"/>
			<point x="303" y="0" type="line"/>
			<point x="296" y="24" type="line"/>
			<point x="397" y="0" type="line"/>
			<point x="403" y="-24" type="line"/>
			<point x="379" y="-24" type="line"/>
			<point x="397" y="-95" type="line"/>
			<point x="296" y="-71" type="line"/>
		</contour>
	</outline>
</glyph>
<glyph name="a" format="2">
	<advance width="516"/>
	<unicode hex="0061"/>
	<note>
		a
	</note>
	<outline>
		<contour>
			<point x="430" y="357" type="line"/>
			<point x="456" y="357" type="line"/>
			<point x="437" y="429" type="line"/>
			<point x="348" y="406" type="line"/>
			<point x="336" y="453" type="line"/>
			<point x="360" y="453" type="line"/>
			<point x="353" y="476" type="line"/>
			<point x="252" y="500" type="line"/>
			<point x="259" y="476" type="line"/>
			<point x="156" y="500" type="line"/>
			<point x="163" y="476" type="line"/>
			<point x="62" y="500" type="line"/>
			<point x="74" y="453" type="line"/>
			<point x="50" y="453" type="line"/>
			<point x="62" y="406" type="line"/>
			<point x="163" y="382" type="line"/>
			<point x="156" y="406" type="line"/>
			<point x="259" y="382" type="line"/>
			<point x="252" y="406" type="line"/>
			<point x="353" y="382" type="line"/>
			<point x="360" y="357" type="line"/>
			<point x="336" y="357" type="line"/>
			<point x="353" y="286" type="line"/>
			<point x="252" y="310" type="line"/>
			<point x="247" y="333" type="line"/>
			<point x="156" y="310" type="line"/>
			<point x="163" y="286" type="line"/>
			<point x="62" y="310" type="line"/>
			<point x="74" y="263" type="line"/>
			<point x="50" y="263" type="line"/>
			<point x="74" y="167" type="line"/>
			<point x="50" y="167" type="line"/>
			<point x="74" y="72" type="line"/>
			<point x="50" y="72" type="line"/>
			<point x="62" y="24" type="line"/>
			<point x="163" y="0" type="line"/>
			<point x="156" y="24" type="line"/>
			<point x="259" y="0" type="line"/>
			<point x="240" y="72" type="line"/>
			<point x="264" y="72" type="line"/>
			<point x="252" y="120" type="line"/>
			<point x="353" y="96" type="line"/>
			<point x="360" y="72" type="line"/>
			<point x="336" y="72" type="line"/>
			<point x="348" y="24" type="line"/>
			<point x="449" y="0" type="line"/>
			<point x="430" y="72" type="line"/>
			<point x="456" y="72" type="line"/>
			<point x="437" y="145" type="line"/>
			<point x="348" y="118" type="line"/>
			<point x="336" y="167" type="line"/>
			<point x="360" y="167" type="line"/>
			<point x="348" y="214" type="line"/>
			<point x="449" y="190" type="line"/>
			<point x="430" y="263" type="line"/>
			<point x="456" y="263" type="line"/>
		</contour>
		<contour>
			<point x="240" y="168" type="line"/>
			<point x="247" y="143" type="line"/>
			<point x="156" y="120" type="line"/>
			<point x="144" y="168" type="line"/>
			<point x="170" y="167" type="line"/>
			<point x="156" y="215" type="line"/>
			<point x="247" y="239" type="line"/>
			<point x="264" y="167" type="line"/>
		</contour>
	</outline>
</glyph>
<glyph name="b" format="2">
	<advance width="515"/>
	<unicode hex="0062"/>
	<note>
		b
	</note>
	<outline>
		<contour>
			<point x="71" y="500" type="line"/>
			<point x="84" y="453" type="line"/>
			<point x="60" y="452" type="line"/>
			<point x="84" y="357" type="line"/>
			<point x="60" y="357" type="line"/>
			<point x="84" y="262" type="line"/>
			<point x="60" y="262" type="line"/>
			<point x="84" y="166" type="line"/>
			<point x="60" y="166" type="line"/>
			<point x="84" y="71" type="line"/>
			<point x="60" y="71" type="line"/>
			<point x="71" y="24" type="line"/>
			<point x="173" y="0" type="line"/>
			<point x="155" y="71" type="line"/>
			<point x="179" y="71" type="line"/>
			<point x="167" y="119" type="line"/>
			<point x="269" y="95" type="line"/>
			<point x="274" y="71" type="line"/>
			<point x="251" y="71" type="line"/>
			<point x="262" y="24" type="line"/>
			<point x="351" y="48" type="line"/>
			<point x="358" y="24" type="line"/>
			<point x="447" y="48" type="line"/>
			<point x="441" y="71" type="line"/>
			<point x="465" y="71" type="line"/>
			<point x="441" y="166" type="line"/>
			<point x="465" y="166" type="line"/>
			<point x="441" y="262" type="line"/>
			<point x="465" y="262" type="line"/>
			<point x="459" y="286" type="line"/>
			<point x="358" y="310" type="line"/>
			<point x="364" y="286" type="line"/>
			<point x="262" y="310" type="line"/>
			<point x="274" y="262" type="line"/>
			<point x="251" y="262" type="line"/>
			<point x="256" y="239" type="line"/>
			<point x="167" y="214" type="line"/>
			<point x="155" y="262" type="line"/>
			<point x="179" y="262" type="line"/>
			<point x="155" y="357" type="line"/>
			<point x="179" y="357" type="line"/>
			<point x="155" y="452" type="line"/>
			<point x="179" y="453" type="line"/>
			<point x="173" y="476" type="line"/>
		</contour>
		<contour>
			<point x="263" y="119" type="line"/>
			<point x="251" y="167" type="line"/>
			<point x="275" y="166" type="line"/>
			<point x="263" y="214" type="line"/>
			<point x="352" y="238" type="line"/>
			<point x="370" y="166" type="line"/>
			<point x="346" y="167" type="line"/>
			<point x="352" y="143" type="line"/>
		</contour>
	</outline>
</glyph>
<glyph name="d" format="2">
	<advance width="515"/>
	<unicode hex="0064"/>
	<note>
		d
	</note>
	<outline>
		<contour>
			<point x="348" y="500" type="line"/>
			<point x="360" y="453" type="line"/>
			<point x="336" y="454" type="line"/>
			<point x="360" y="359" type="line"/>
			<point x="336" y="359" type="line"/>
			<point x="360" y="263" type="line"/>
			<point x="336" y="263" type="line"/>
			<point x="354" y="192" type="line"/>
			<point x="253" y="214" type="line"/>
			<point x="241" y="263" type="line"/>
			<point x="264" y="263" type="line"/>
			<point x="258" y="285" type="line"/>
			<point x="157" y="311" type="line"/>
			<point x="163" y="287" type="line"/>
			<point x="62" y="311" type="line"/>
			<point x="74" y="263" type="line"/>
			<point x="50" y="263" type="line"/>
			<point x="74" y="168" type="line"/>
			<point x="50" y="167" type="line"/>
			<point x="74" y="72" type="line"/>
			<point x="50" y="72" type="line"/>
			<point x="62" y="24" type="line"/>
			<point x="163" y="0" type="line"/>
			<point x="157" y="24" type="line"/>
			<point x="258" y="0" type="line"/>
			<point x="246" y="48" type="line"/>
			<point x="270" y="48" type="line"/>
			<point x="264" y="71" type="line"/>
			<point x="354" y="95" type="line"/>
			<point x="366" y="48" type="line"/>
			<point x="342" y="48" type="line"/>
			<point x="348" y="24" type="line"/>
			<point x="449" y="0" type="line"/>
			<point x="431" y="72" type="line"/>
			<point x="455" y="72" type="line"/>
			<point x="431" y="167" type="line"/>
			<point x="455" y="168" type="line"/>
			<point x="431" y="263" type="line"/>
			<point x="455" y="263" type="line"/>
			<point x="431" y="359" type="line"/>
			<point x="455" y="359" type="line"/>
			<point x="431" y="454" type="line"/>
			<point x="455" y="453" type="line"/>
			<point x="449" y="476" type="line"/>
		</contour>
		<contour>
			<point x="157" y="215" type="line"/>
			<point x="258" y="192" type="line"/>
			<point x="264" y="168" type="line"/>
			<point x="241" y="167" type="line"/>
			<point x="258" y="96" type="line"/>
			<point x="157" y="119" type="line"/>
			<point x="145" y="167" type="line"/>
			<point x="169" y="168" type="line"/>
		</contour>
	</outline>
</glyph>
<glyph name="e" format="2">
	<advance width="501"/>
	<unicode hex="0065"/>
	<note>
		e
	</note>
	<outline>
		<contour>
			<point x="432" y="357" type="line"/>
			<point x="456" y="357" type="line"/>
			<point x="432" y="453" type="line"/>
			<point x="456" y="453" type="line"/>
			<point x="449" y="476" type="line"/>
			<point x="348" y="500" type="line"/>
			<point x="355" y="476" type="line"/>
			<point x="252" y="500" type="line"/>
			<point x="259" y="476" type="line"/>
			<point x="158" y="500" type="line"/>
			<point x="170" y="453" type="line"/>
			<point x="146" y="453" type="line"/>
			<point x="163" y="380" type="line"/>
			<point x="62" y="404" type="line"/>
			<point x="74" y="357" type="line"/>
			<point x="50" y="357" type="line"/>
			<point x="74" y="263" type="line"/>
			<point x="50" y="263" type="line"/>
			<point x="74" y="167" type="line"/>
			<point x="50" y="167" type="line"/>
			<point x="62" y="118" type="line"/>
			<point x="163" y="94" type="line"/>
			<point x="170" y="71" type="line"/>
			<point x="146" y="71" type="line"/>
			<point x="158" y="24" type="line"/>
			<point x="259" y="0" type="line"/>
			<point x="254" y="24" type="line"/>
			<point x="355" y="0" type="line"/>
			<point x="348" y="24" type="line"/>
			<point x="437" y="47" type="line"/>
			<point x="432" y="71" type="line"/>
			<point x="456" y="71" type="line"/>
			<point x="437" y="143" type="line"/>
			<point x="348" y="118" type="line"/>
			<point x="355" y="94" type="line"/>
			<point x="254" y="118" type="line"/>
			<point x="259" y="94" type="line"/>
			<point x="158" y="120" type="line"/>
			<point x="146" y="167" type="line"/>
			<point x="170" y="167" type="line"/>
			<point x="146" y="261" type="line"/>
			<point x="170" y="261" type="line"/>
			<point x="158" y="310" type="line"/>
			<point x="259" y="286" type="line"/>
			<point x="265" y="261" type="line"/>
			<point x="240" y="261" type="line"/>
			<point x="254" y="214" type="line"/>
			<point x="343" y="237" type="line"/>
			<point x="348" y="214" type="line"/>
			<point x="437" y="237" type="line"/>
			<point x="432" y="261" type="line"/>
			<point x="456" y="261" type="line"/>
		</contour>
		<contour>
			<point x="355" y="286" type="line"/>
			<point x="254" y="310" type="line"/>
			<point x="242" y="357" type="line"/>
			<point x="265" y="357" type="line"/>
			<point x="254" y="404" type="line"/>
			<point x="343" y="429" type="line"/>
			<point x="361" y="357" type="line"/>
			<point x="338" y="357" type="line"/>
		</contour>
	</outline>
</glyph>
<glyph name="f" format="2">
	<advance width="410"/>
	<unicode hex="0066"/>
	<note>
		f
	</note>
	<outline>
		<contour>
			<point x="173" y="0" type="line"/>
			<point x="72" y="24" type="line"/>
			<point x="60" y="71" type="line"/>
			<point x="84" y="71" type="line"/>
			<point x="60" y="167" type="line"/>
			<point x="84" y="167" type="line"/>
			<point x="60" y="261" type="line"/>
			<point x="84" y="261" type="line"/>
			<point x="60" y="357" type="line"/>
			<point x="84" y="357" type="line"/>
			<point x="60" y="452" type="line"/>
			<point x="84" y="452" type="line"/>
			<point x="72" y="500" type="line"/>
			<point x="173" y="476" type="line"/>
			<point x="167" y="500" type="line"/>
			<point x="269" y="476" type="line"/>
			<point x="263" y="500" type="line"/>
			<point x="364" y="476" type="line"/>
			<point x="370" y="452" type="line"/>
			<point x="346" y="452" type="line"/>
			<point x="364" y="381" type="line"/>
			<point x="263" y="404" type="line"/>
			<point x="257" y="428" type="line"/>
			<point x="167" y="404" type="line"/>
			<point x="179" y="357" type="line"/>
			<point x="155" y="357" type="line"/>
			<point x="167" y="309" type="line"/>
			<point x="257" y="333" type="line"/>
			<point x="275" y="261" type="line"/>
			<point x="251" y="261" type="line"/>
			<point x="257" y="239" type="line"/>
			<point x="167" y="215" type="line"/>
			<point x="179" y="167" type="line"/>
			<point x="155" y="167" type="line"/>
			<point x="179" y="71" type="line"/>
			<point x="155" y="71" type="line"/>
		</contour>
	</outline>
</glyph>
<glyph name="g" format="2">
	<advance width="485"/>
	<unicode hex="0067"/>
	<note>
		g
	</note>
	<outline>
		<contour>
			<point x="439" y="381" type="line"/>
			<point x="338" y="405" type="line"/>
			<point x="326" y="452" type="line"/>
			<point x="350" y="452" type="line"/>
			<point x="344" y="476" type="line"/>
			<point x="242" y="500" type="line"/>
			<point x="248" y="476" type="line"/>
			<point x="147" y="500" type="line"/>
			<point x="153" y="476" type="line"/>
			<point x="52" y="500" type="line"/>
			<point x="64" y="452" type="line"/>
			<point x="40" y="452" type="line"/>
			<point x="64" y="357" type="line"/>
			<point x="40" y="357" type="line"/>
			<point x="64" y="261" type="line"/>
			<point x="40" y="262" type="line"/>
			<point x="52" y="215" type="line"/>
			<point x="141" y="239" type="line"/>
			<point x="147" y="215" type="line"/>
			<point x="236" y="239" type="line"/>
			<point x="230" y="262" type="line"/>
			<point x="254" y="261" type="line"/>
			<point x="242" y="309" type="line"/>
			<point x="332" y="333" type="line"/>
			<point x="350" y="261" type="line"/>
			<point x="326" y="262" type="line"/>
			<point x="350" y="167" type="line"/>
			<point x="326" y="167" type="line"/>
			<point x="344" y="95" type="line"/>
			<point x="242" y="119" type="line"/>
			<point x="248" y="95" type="line"/>
			<point x="147" y="119" type="line"/>
			<point x="153" y="96" type="line"/>
			<point x="52" y="119" type="line"/>
			<point x="64" y="72" type="line"/>
			<point x="40" y="72" type="line"/>
			<point x="52" y="24" type="line"/>
			<point x="153" y="0" type="line"/>
			<point x="147" y="24" type="line"/>
			<point x="248" y="0" type="line"/>
			<point x="242" y="24" type="line"/>
			<point x="344" y="0" type="line"/>
			<point x="338" y="24" type="line"/>
			<point x="427" y="48" type="line"/>
			<point x="421" y="72" type="line"/>
			<point x="445" y="72" type="line"/>
			<point x="421" y="167" type="line"/>
			<point x="445" y="167" type="line"/>
			<point x="421" y="262" type="line"/>
			<point x="445" y="261" type="line"/>
			<point x="421" y="357" type="line"/>
			<point x="445" y="357" type="line"/>
		</contour>
		<contour>
			<point x="231" y="357" type="line"/>
			<point x="236" y="333" type="line"/>
			<point x="147" y="309" type="line"/>
			<point x="135" y="357" type="line"/>
			<point x="159" y="357" type="line"/>
			<point x="147" y="405" type="line"/>
			<point x="236" y="428" type="line"/>
			<point x="254" y="357" type="line"/>
		</contour>
	</outline>
</glyph>
<glyph name="h" format="2">
	<advance width="529"/>
	<unicode hex="0068"/>
	<note>
		h
	</note>
	<outline>
		<contour>
			<point x="184" y="70" type="line"/>
			<point x="160" y="71" type="line"/>
			<point x="178" y="0" type="line"/>
			<point x="77" y="24" type="line"/>
			<point x="65" y="70" type="line"/>
			<point x="89" y="70" type="line"/>
			<point x="65" y="168" type="line"/>
			<point x="89" y="168" type="line"/>
			<point x="65" y="263" type="line"/>
			<point x="89" y="262" type="line"/>
			<point x="65" y="357" type="line"/>
			<point x="89" y="357" type="line"/>
			<point x="65" y="452" type="line"/>
			<point x="89" y="452" type="line"/>
			<point x="77" y="500" type="line"/>
			<point x="178" y="476" type="line"/>
			<point x="184" y="452" type="line"/>
			<point x="160" y="452" type="line"/>
			<point x="182" y="360" type="line"/>
			<point x="158" y="360" type="line"/>
			<point x="184" y="262" type="line"/>
			<point x="160" y="263" type="line"/>
			<point x="172" y="217" type="line"/>
			<point x="261" y="241" type="line"/>
			<point x="255" y="265" type="line"/>
			<point x="279" y="265" type="line"/>
			<point x="267" y="312" type="line"/>
			<point x="368" y="289" type="line"/>
			<point x="362" y="312" type="line"/>
			<point x="463" y="289" type="line"/>
			<point x="469" y="265" type="line"/>
			<point x="445" y="265" type="line"/>
			<point x="469" y="170" type="line"/>
			<point x="445" y="170" type="line"/>
			<point x="469" y="75" type="line"/>
			<point x="445" y="75" type="line"/>
			<point x="464" y="0" type="line"/>
			<point x="362" y="27" type="line"/>
			<point x="350" y="75" type="line"/>
			<point x="374" y="75" type="line"/>
			<point x="350" y="170" type="line"/>
			<point x="374" y="170" type="line"/>
			<point x="356" y="241" type="line"/>
			<point x="267" y="217" type="line"/>
			<point x="279" y="170" type="line"/>
			<point x="255" y="170" type="line"/>
			<point x="261" y="146" type="line"/>
			<point x="172" y="122" type="line"/>
		</contour>
	</outline>
</glyph>
<glyph name="i" format="2">
	<advance width="245"/>
	<unicode hex="0069"/>
	<note>
		i
	</note>
	<outline>
		<contour>
			<point x="79" y="500" type="line"/>
			<point x="179" y="477" type="line"/>
			<point x="185" y="453" type="line"/>
			<point x="161" y="453" type="line"/>
			<point x="179" y="382" type="line"/>
			<point x="79" y="405" type="line"/>
			<point x="67" y="453" type="line"/>
			<point x="90" y="453" type="line"/>
		</contour>
		<contour>
			<point x="88" y="264" type="line"/>
			<point x="78" y="311" type="line"/>
			<point x="178" y="288" type="line"/>
			<point x="184" y="264" type="line"/>
			<point x="160" y="264" type="line"/>
			<point x="184" y="169" type="line"/>
			<point x="160" y="168" type="line"/>
			<point x="184" y="74" type="line"/>
			<point x="160" y="74" type="line"/>
			<point x="179" y="0" type="line"/>
			<point x="78" y="27" type="line"/>
			<point x="66" y="74" type="line"/>
			<point x="89" y="74" type="line"/>
			<point x="66" y="168" type="line"/>
			<point x="89" y="169" type="line"/>
			<point x="65" y="264" type="line"/>
		</contour>
	</outline>
</glyph>
<glyph name="j" format="2">
	<advance width="334"/>
	<unicode hex="006A"/>
	<note>
		j
	</note>
	<outline>
		<contour>
			<point x="167" y="500" type="line"/>
			<point x="268" y="476" type="line"/>
			<point x="274" y="452" type="line"/>
			<point x="250" y="452" type="line"/>
			<point x="268" y="381" type="line"/>
			<point x="167" y="404" type="line"/>
			<point x="155" y="452" type="line"/>
			<point x="179" y="452" type="line"/>
		</contour>
		<contour>
			<point x="249" y="167" type="line"/>
			<point x="273" y="167" type="line"/>
			<point x="249" y="262" type="line"/>
			<point x="273" y="262" type="line"/>
			<point x="267" y="286" type="line"/>
			<point x="166" y="310" type="line"/>
			<point x="177" y="263" type="line"/>
			<point x="153" y="262" type="line"/>
			<point x="178" y="167" type="line"/>
			<point x="154" y="167" type="line"/>
			<point x="173" y="96" type="line"/>
			<point x="72" y="119" type="line"/>
			<point x="84" y="72" type="line"/>
			<point x="60" y="71" type="line"/>
			<point x="72" y="24" type="line"/>
			<point x="173" y="0" type="line"/>
			<point x="167" y="24" type="line"/>
			<point x="268" y="0" type="line"/>
			<point x="250" y="71" type="line"/>
			<point x="274" y="72" type="line"/>
		</contour>
	</outline>
</glyph>
<glyph name="k" format="2">
	<advance width="511"/>
	<unicode hex="006B"/>
	<note>
		k
	</note>
	<outline>
		<contour>
			<point x="172" y="214" type="line"/>
			<point x="262" y="238" type="line"/>
			<point x="268" y="214" type="line"/>
			<point x="369" y="190" type="line"/>
			<point x="375" y="166" type="line"/>
			<point x="351" y="167" type="line"/>
			<point x="375" y="71" type="line"/>
			<point x="351" y="71" type="line"/>
			<point x="363" y="24" type="line"/>
			<point x="465" y="0" type="line"/>
			<point x="447" y="71" type="line"/>
			<point x="471" y="71" type="line"/>
			<point x="447" y="167" type="line"/>
			<point x="471" y="166" type="line"/>
			<point x="453" y="238" type="line"/>
			<point x="363" y="214" type="line"/>
			<point x="351" y="261" type="line"/>
			<point x="375" y="262" type="line"/>
			<point x="363" y="309" type="line"/>
			<point x="453" y="333" type="line"/>
			<point x="447" y="357" type="line"/>
			<point x="471" y="357" type="line"/>
			<point x="453" y="429" type="line"/>
			<point x="363" y="405" type="line"/>
			<point x="375" y="357" type="line"/>
			<point x="351" y="357" type="line"/>
			<point x="357" y="333" type="line"/>
			<point x="268" y="309" type="line"/>
			<point x="274" y="286" type="line"/>
			<point x="172" y="309" type="line"/>
			<point x="160" y="357" type="line"/>
			<point x="184" y="357" type="line"/>
			<point x="160" y="452" type="line"/>
			<point x="184" y="452" type="line"/>
			<point x="178" y="476" type="line"/>
			<point x="77" y="500" type="line"/>
			<point x="89" y="452" type="line"/>
			<point x="65" y="452" type="line"/>
			<point x="89" y="357" type="line"/>
			<point x="65" y="357" type="line"/>
			<point x="89" y="262" type="line"/>
			<point x="65" y="261" type="line"/>
			<point x="89" y="166" type="line"/>
			<point x="65" y="167" type="line"/>
			<point x="89" y="71" type="line"/>
			<point x="65" y="71" type="line"/>
			<point x="77" y="24" type="line"/>
			<point x="178" y="0" type="line"/>
			<point x="160" y="71" type="line"/>
			<point x="184" y="71" type="line"/>
			<point x="160" y="167" type="line"/>
			<point x="184" y="166" type="line"/>
		</contour>
	</outline>
</glyph>
<glyph name="l" format="2">
	<advance width="340"/>
	<unicode hex="006C"/>
	<note>
		l
	</note>
	<outline>
		<contour>
			<point x="77" y="500" type="line"/>
			<point x="178" y="476" type="line"/>
			<point x="184" y="453" type="line"/>
			<point x="161" y="452" type="line"/>
			<point x="184" y="357" type="line"/>
			<point x="161" y="357" type="line"/>
			<point x="184" y="262" type="line"/>
			<point x="161" y="262" type="line"/>
			<point x="184" y="167" type="line"/>
			<point x="161" y="167" type="line"/>
			<point x="172" y="119" type="line"/>
			<point x="262" y="143" type="line"/>
			<point x="280" y="71" type="line"/>
			<point x="256" y="71" type="line"/>
			<point x="262" y="48" type="line"/>
			<point x="172" y="24" type="line"/>
			<point x="178" y="0" type="line"/>
			<point x="77" y="24" type="line"/>
			<point x="65" y="71" type="line"/>
			<point x="89" y="71" type="line"/>
			<point x="65" y="167" type="line"/>
			<point x="89" y="167" type="line"/>
			<point x="65" y="262" type="line"/>
			<point x="89" y="262" type="line"/>
			<point x="65" y="357" type="line"/>
			<point x="89" y="357" type="line"/>
			<point x="65" y="452" type="line"/>
			<point x="89" y="453" type="line"/>
		</contour>
	</outline>
</glyph>
<glyph name="m" format="2">
	<advance width="810"/>
	<unicode hex="006D"/>
	<note>
		m
	</note>
	<outline>
		<contour>
			<point x="464" y="262" type="line"/>
			<point x="440" y="262" type="line"/>
			<point x="464" y="169" type="line"/>
			<point x="440" y="169" type="line"/>
			<point x="464" y="72" type="line"/>
			<point x="440" y="72" type="line"/>
			<point x="457" y="0" type="line"/>
			<point x="357" y="25" type="line"/>
			<point x="345" y="72" type="line"/>
			<point x="368" y="72" type="line"/>
			<point x="345" y="169" type="line"/>
			<point x="368" y="169" type="line"/>
			<point x="345" y="262" type="line"/>
			<point x="368" y="262" type="line"/>
			<point x="345" y="358" type="line"/>
			<point x="368" y="358" type="line"/>
			<point x="350" y="428" type="line"/>
			<point x="261" y="404" type="line"/>
			<point x="273" y="358" type="line"/>
			<point x="249" y="358" type="line"/>
			<point x="256" y="334" type="line"/>
			<point x="167" y="309" type="line"/>
			<point x="179" y="262" type="line"/>
			<point x="156" y="262" type="line"/>
			<point x="179" y="169" type="line"/>
			<point x="156" y="169" type="line"/>
			<point x="179" y="72" type="line"/>
			<point x="156" y="72" type="line"/>
			<point x="172" y="0" type="line"/>
			<point x="72" y="25" type="line"/>
			<point x="60" y="72" type="line"/>
			<point x="83" y="72" type="line"/>
			<point x="60" y="169" type="line"/>
			<point x="83" y="169" type="line"/>
			<point x="60" y="262" type="line"/>
			<point x="83" y="262" type="line"/>
			<point x="60" y="358" type="line"/>
			<point x="83" y="358" type="line"/>
			<point x="60" y="453" type="line"/>
			<point x="83" y="453" type="line"/>
			<point x="72" y="500" type="line"/>
			<point x="172" y="477" type="line"/>
			<point x="179" y="453" type="line"/>
			<point x="156" y="453" type="line"/>
			<point x="167" y="404" type="line"/>
			<point x="256" y="428" type="line"/>
			<point x="249" y="453" type="line"/>
			<point x="273" y="453" type="line"/>
			<point x="261" y="500" type="line"/>
			<point x="363" y="477" type="line"/>
			<point x="357" y="500" type="line"/>
			<point x="457" y="477" type="line"/>
			<point x="464" y="453" type="line"/>
			<point x="440" y="453" type="line"/>
			<point x="454" y="403" type="line"/>
			<point x="543" y="426" type="line"/>
			<point x="536" y="450" type="line"/>
			<point x="559" y="450" type="line"/>
			<point x="548" y="500" type="line"/>
			<point x="648" y="473" type="line"/>
			<point x="643" y="500" type="line"/>
			<point x="744" y="473" type="line"/>
			<point x="750" y="450" type="line"/>
			<point x="727" y="450" type="line"/>
			<point x="750" y="356" type="line"/>
			<point x="727" y="356" type="line"/>
			<point x="750" y="260" type="line"/>
			<point x="727" y="260" type="line"/>
			<point x="750" y="166" type="line"/>
			<point x="727" y="166" type="line"/>
			<point x="750" y="72" type="line"/>
			<point x="727" y="72" type="line"/>
			<point x="744" y="0" type="line"/>
			<point x="643" y="23" type="line"/>
			<point x="631" y="72" type="line"/>
			<point x="655" y="72" type="line"/>
			<point x="631" y="166" type="line"/>
			<point x="655" y="166" type="line"/>
			<point x="631" y="260" type="line"/>
			<point x="655" y="260" type="line"/>
			<point x="631" y="356" type="line"/>
			<point x="655" y="356" type="line"/>
			<point x="636" y="426" type="line"/>
			<point x="548" y="403" type="line"/>
			<point x="559" y="356" type="line"/>
			<point x="536" y="356" type="line"/>
			<point x="543" y="332" type="line"/>
			<point x="454" y="307" type="line"/>
		</contour>
	</outline>
</glyph>
<glyph name="n" format="2">
	<advance width="526"/>
	<unicode hex="006E"/>
	<note>
		n
	</note>
	<outline>
		<contour>
			<point x="441" y="168" type="line"/>
			<point x="464" y="168" type="line"/>
			<point x="441" y="262" type="line"/>
			<point x="464" y="262" type="line"/>
			<point x="441" y="357" type="line"/>
			<point x="464" y="357" type="line"/>
			<point x="441" y="453" type="line"/>
			<point x="464" y="453" type="line"/>
			<point x="459" y="477" type="line"/>
			<point x="359" y="500" type="line"/>
			<point x="364" y="477" type="line"/>
			<point x="263" y="500" type="line"/>
			<point x="275" y="453" type="line"/>
			<point x="251" y="453" type="line"/>
			<point x="256" y="430" type="line"/>
			<point x="167" y="404" type="line"/>
			<point x="156" y="453" type="line"/>
			<point x="179" y="453" type="line"/>
			<point x="174" y="477" type="line"/>
			<point x="73" y="500" type="line"/>
			<point x="85" y="453" type="line"/>
			<point x="60" y="453" type="line"/>
			<point x="85" y="357" type="line"/>
			<point x="60" y="357" type="line"/>
			<point x="85" y="262" type="line"/>
			<point x="60" y="262" type="line"/>
			<point x="85" y="168" type="line"/>
			<point x="60" y="168" type="line"/>
			<point x="85" y="70" type="line"/>
			<point x="60" y="70" type="line"/>
			<point x="73" y="23" type="line"/>
			<point x="174" y="0" type="line"/>
			<point x="156" y="70" type="line"/>
			<point x="181" y="70" type="line"/>
			<point x="156" y="168" type="line"/>
			<point x="179" y="168" type="line"/>
			<point x="156" y="262" type="line"/>
			<point x="179" y="262" type="line"/>
			<point x="167" y="310" type="line"/>
			<point x="256" y="334" type="line"/>
			<point x="251" y="357" type="line"/>
			<point x="275" y="357" type="line"/>
			<point x="263" y="404" type="line"/>
			<point x="352" y="430" type="line"/>
			<point x="370" y="357" type="line"/>
			<point x="347" y="357" type="line"/>
			<point x="370" y="262" type="line"/>
			<point x="347" y="262" type="line"/>
			<point x="370" y="168" type="line"/>
			<point x="347" y="168" type="line"/>
			<point x="370" y="70" type="line"/>
			<point x="347" y="70" type="line"/>
			<point x="359" y="23" type="line"/>
			<point x="459" y="0" type="line"/>
			<point x="441" y="70" type="line"/>
			<point x="466" y="70" type="line"/>
		</contour>
	</outline>
</glyph>
<glyph name="p" format="2">
	<advance width="520"/>
	<unicode hex="0070"/>
	<note>
		p
	</note>
	<outline>
		<contour>
			<point x="178" y="0" type="line"/>
			<point x="160" y="71" type="line"/>
			<point x="183" y="72" type="line"/>
			<point x="160" y="167" type="line"/>
			<point x="183" y="167" type="line"/>
			<point x="160" y="262" type="line"/>
			<point x="183" y="262" type="line"/>
			<point x="171" y="310" type="line"/>
			<point x="273" y="287" type="line"/>
			<point x="278" y="262" type="line"/>
			<point x="255" y="262" type="line"/>
			<point x="267" y="216" type="line"/>
			<point x="356" y="239" type="line"/>
			<point x="361" y="217" type="line"/>
			<point x="452" y="239" type="line"/>
			<point x="445" y="262" type="line"/>
			<point x="470" y="261" type="line"/>
			<point x="445" y="357" type="line"/>
			<point x="470" y="357" type="line"/>
			<point x="445" y="453" type="line"/>
			<point x="470" y="453" type="line"/>
			<point x="463" y="477" type="line"/>
			<point x="363" y="500" type="line"/>
			<point x="368" y="477" type="line"/>
			<point x="267" y="500" type="line"/>
			<point x="278" y="453" type="line"/>
			<point x="255" y="453" type="line"/>
			<point x="262" y="429" type="line"/>
			<point x="171" y="404" type="line"/>
			<point x="160" y="453" type="line"/>
			<point x="185" y="453" type="line"/>
			<point x="178" y="477" type="line"/>
			<point x="77" y="500" type="line"/>
			<point x="88" y="453" type="line"/>
			<point x="65" y="453" type="line"/>
			<point x="88" y="357" type="line"/>
			<point x="65" y="357" type="line"/>
			<point x="88" y="261" type="line"/>
			<point x="65" y="262" type="line"/>
			<point x="88" y="167" type="line"/>
			<point x="65" y="167" type="line"/>
			<point x="88" y="72" type="line"/>
			<point x="65" y="71" type="line"/>
			<point x="77" y="24" type="line"/>
		</contour>
		<contour>
			<point x="269" y="407" type="line"/>
			<point x="359" y="431" type="line"/>
			<point x="377" y="361" type="line"/>
			<point x="352" y="359" type="line"/>
			<point x="359" y="335" type="line"/>
			<point x="269" y="312" type="line"/>
			<point x="257" y="359" type="line"/>
			<point x="280" y="361" type="line"/>
		</contour>
	</outline>
</glyph>
<glyph name="q" format="2">
	<advance width="515"/>
	<unicode hex="0071"/>
	<note>
		q
	</note>
	<outline>
		<contour>
			<point x="348" y="500" type="line"/>
			<point x="449" y="476" type="line"/>
			<point x="455" y="452" type="line"/>
			<point x="431" y="452" type="line"/>
			<point x="455" y="357" type="line"/>
			<point x="431" y="357" type="line"/>
			<point x="455" y="262" type="line"/>
			<point x="431" y="261" type="line"/>
			<point x="455" y="166" type="line"/>
			<point x="431" y="167" type="line"/>
			<point x="455" y="72" type="line"/>
			<point x="431" y="72" type="line"/>
			<point x="449" y="0" type="line"/>
			<point x="348" y="24" type="line"/>
			<point x="336" y="72" type="line"/>
			<point x="360" y="72" type="line"/>
			<point x="336" y="167" type="line"/>
			<point x="360" y="166" type="line"/>
			<point x="342" y="238" type="line"/>
			<point x="253" y="214" type="line"/>
			<point x="247" y="238" type="line"/>
			<point x="157" y="214" type="line"/>
			<point x="163" y="190" type="line"/>
			<point x="62" y="214" type="line"/>
			<point x="50" y="261" type="line"/>
			<point x="74" y="262" type="line"/>
			<point x="50" y="357" type="line"/>
			<point x="74" y="357" type="line"/>
			<point x="50" y="452" type="line"/>
			<point x="74" y="452" type="line"/>
			<point x="62" y="500" type="line"/>
			<point x="163" y="476" type="line"/>
			<point x="157" y="500" type="line"/>
			<point x="258" y="476" type="line"/>
			<point x="264" y="452" type="line"/>
			<point x="241" y="452" type="line"/>
			<point x="253" y="405" type="line"/>
			<point x="354" y="381" type="line"/>
			<point x="336" y="452" type="line"/>
			<point x="360" y="452" type="line"/>
		</contour>
		<contour>
			<point x="157" y="405" type="line"/>
			<point x="169" y="358" type="line"/>
			<point x="145" y="357" type="line"/>
			<point x="157" y="309" type="line"/>
			<point x="259" y="286" type="line"/>
			<point x="241" y="357" type="line"/>
			<point x="264" y="358" type="line"/>
			<point x="258" y="381" type="line"/>
		</contour>
	</outline>
</glyph>
<glyph name="r" format="2">
	<advance width="474"/>
	<unicode hex="0072"/>
	<note>
		r
	</note>
	<outline>
		<contour>
			<point x="167" y="310" type="line"/>
			<point x="256" y="334" type="line"/>
			<point x="250" y="357" type="line"/>
			<point x="274" y="357" type="line"/>
			<point x="262" y="405" type="line"/>
			<point x="351" y="429" type="line"/>
			<point x="357" y="405" type="line"/>
			<point x="458" y="381" type="line"/>
			<point x="441" y="452" type="line"/>
			<point x="464" y="452" type="line"/>
			<point x="458" y="476" type="line"/>
			<point x="357" y="500" type="line"/>
			<point x="363" y="476" type="line"/>
			<point x="262" y="500" type="line"/>
			<point x="274" y="452" type="line"/>
			<point x="250" y="452" type="line"/>
			<point x="256" y="429" type="line"/>
			<point x="167" y="405" type="line"/>
			<point x="156" y="452" type="line"/>
			<point x="179" y="452" type="line"/>
			<point x="173" y="476" type="line"/>
			<point x="72" y="500" type="line"/>
			<point x="84" y="452" type="line"/>
			<point x="60" y="452" type="line"/>
			<point x="84" y="357" type="line"/>
			<point x="60" y="357" type="line"/>
			<point x="84" y="262" type="line"/>
			<point x="60" y="263" type="line"/>
			<point x="84" y="168" type="line"/>
			<point x="60" y="168" type="line"/>
			<point x="85" y="70" type="line"/>
			<point x="60" y="70" type="line"/>
			<point x="73" y="24" type="line"/>
			<point x="174" y="0" type="line"/>
			<point x="156" y="71" type="line"/>
			<point x="180" y="70" type="line"/>
			<point x="155" y="167" type="line"/>
			<point x="179" y="167" type="line"/>
			<point x="156" y="263" type="line"/>
			<point x="179" y="262" type="line"/>
		</contour>
	</outline>
</glyph>
<glyph name="s" format="2">
	<advance width="504"/>
	<unicode hex="0073"/>
	<note>
		s
	</note>
	<outline>
		<contour>
			<point x="62" y="404" type="line"/>
			<point x="151" y="428" type="line"/>
			<point x="145" y="452" type="line"/>
			<point x="169" y="453" type="line"/>
			<point x="157" y="500" type="line"/>
			<point x="258" y="476" type="line"/>
			<point x="252" y="500" type="line"/>
			<point x="353" y="476" type="line"/>
			<point x="347" y="500" type="line"/>
			<point x="448" y="476" type="line"/>
			<point x="454" y="453" type="line"/>
			<point x="431" y="451" type="line"/>
			<point x="448" y="381" type="line"/>
			<point x="347" y="404" type="line"/>
			<point x="341" y="428" type="line"/>
			<point x="252" y="404" type="line"/>
			<point x="246" y="428" type="line"/>
			<point x="157" y="404" type="line"/>
			<point x="169" y="357" type="line"/>
			<point x="145" y="357" type="line"/>
			<point x="157" y="309" type="line"/>
			<point x="258" y="286" type="line"/>
			<point x="252" y="309" type="line"/>
			<point x="353" y="286" type="line"/>
			<point x="347" y="309" type="line"/>
			<point x="448" y="286" type="line"/>
			<point x="454" y="262" type="line"/>
			<point x="430" y="261" type="line"/>
			<point x="454" y="166" type="line"/>
			<point x="430" y="166" type="line"/>
			<point x="454" y="71" type="line"/>
			<point x="430" y="71" type="line"/>
			<point x="436" y="47" type="line"/>
			<point x="347" y="24" type="line"/>
			<point x="353" y="0" type="line"/>
			<point x="252" y="24" type="line"/>
			<point x="258" y="0" type="line"/>
			<point x="157" y="24" type="line"/>
			<point x="151" y="48" type="line"/>
			<point x="62" y="24" type="line"/>
			<point x="50" y="71" type="line"/>
			<point x="74" y="71" type="line"/>
			<point x="62" y="119" type="line"/>
			<point x="151" y="143" type="line"/>
			<point x="157" y="119" type="line"/>
			<point x="258" y="95" type="line"/>
			<point x="252" y="119" type="line"/>
			<point x="353" y="95" type="line"/>
			<point x="335" y="166" type="line"/>
			<point x="359" y="166" type="line"/>
			<point x="341" y="237" type="line"/>
			<point x="252" y="214" type="line"/>
			<point x="246" y="238" type="line"/>
			<point x="157" y="214" type="line"/>
			<point x="151" y="238" type="line"/>
			<point x="62" y="214" type="line"/>
			<point x="50" y="261" type="line"/>
			<point x="74" y="262" type="line"/>
			<point x="50" y="357" type="line"/>
			<point x="74" y="357" type="line"/>
		</contour>
	</outline>
</glyph>
<glyph name="t" format="2">
	<advance width="396"/>
	<unicode hex="0074"/>
	<note>
		t
	</note>
	<outline>
		<contour>
			<point x="356" y="69" type="line"/>
			<point x="340" y="136" type="line"/>
			<point x="253" y="114" type="line"/>
			<point x="260" y="91" type="line"/>
			<point x="163" y="114" type="line"/>
			<point x="152" y="159" type="line"/>
			<point x="174" y="159" type="line"/>
			<point x="152" y="249" type="line"/>
			<point x="174" y="249" type="line"/>
			<point x="161" y="296" type="line"/>
			<point x="248" y="318" type="line"/>
			<point x="253" y="296" type="line"/>
			<point x="338" y="318" type="line"/>
			<point x="334" y="341" type="line"/>
			<point x="356" y="341" type="line"/>
			<point x="338" y="408" type="line"/>
			<point x="253" y="386" type="line"/>
			<point x="248" y="408" type="line"/>
			<point x="161" y="386" type="line"/>
			<point x="150" y="432" type="line"/>
			<point x="174" y="432" type="line"/>
			<point x="157" y="500" type="line"/>
			<point x="71" y="477" type="line"/>
			<point x="83" y="432" type="line"/>
			<point x="60" y="432" type="line"/>
			<point x="71" y="386" type="line"/>
			<point x="168" y="363" type="line"/>
			<point x="174" y="341" type="line"/>
			<point x="150" y="341" type="line"/>
			<point x="157" y="318" type="line"/>
			<point x="71" y="296" type="line"/>
			<point x="83" y="249" type="line"/>
			<point x="60" y="249" type="line"/>
			<point x="83" y="159" type="line"/>
			<point x="60" y="159" type="line"/>
			<point x="83" y="69" type="line"/>
			<point x="60" y="69" type="line"/>
			<point x="71" y="22" type="line"/>
			<point x="168" y="0" type="line"/>
			<point x="163" y="22" type="line"/>
			<point x="248" y="46" type="line"/>
			<point x="253" y="22" type="line"/>
			<point x="340" y="46" type="line"/>
			<point x="334" y="69" type="line"/>
		</contour>
	</outline>
</glyph>
<glyph name="u" format="2">
	<advance width="505"/>
	<unicode hex="0075"/>
	<note>
		u
	</note>
	<outline>
		<contour>
			<point x="62" y="500" type="line"/>
			<point x="163" y="476" type="line"/>
			<point x="169" y="452" type="line"/>
			<point x="145" y="452" type="line"/>
			<point x="169" y="357" type="line"/>
			<point x="145" y="358" type="line"/>
			<point x="169" y="263" type="line"/>
			<point x="145" y="263" type="line"/>
			<point x="169" y="167" type="line"/>
			<point x="145" y="167" type="line"/>
			<point x="157" y="119" type="line"/>
			<point x="258" y="96" type="line"/>
			<point x="252" y="120" type="line"/>
			<point x="353" y="96" type="line"/>
			<point x="335" y="167" type="line"/>
			<point x="359" y="167" type="line"/>
			<point x="335" y="263" type="line"/>
			<point x="359" y="263" type="line"/>
			<point x="335" y="358" type="line"/>
			<point x="359" y="357" type="line"/>
			<point x="335" y="452" type="line"/>
			<point x="359" y="452" type="line"/>
			<point x="347" y="500" type="line"/>
			<point x="449" y="476" type="line"/>
			<point x="455" y="452" type="line"/>
			<point x="431" y="452" type="line"/>
			<point x="455" y="357" type="line"/>
			<point x="431" y="358" type="line"/>
			<point x="455" y="263" type="line"/>
			<point x="431" y="263" type="line"/>
			<point x="455" y="167" type="line"/>
			<point x="431" y="167" type="line"/>
			<point x="455" y="72" type="line"/>
			<point x="431" y="71" type="line"/>
			<point x="447" y="5" type="line"/>
			<point x="347" y="24" type="line"/>
			<point x="341" y="48" type="line"/>
			<point x="252" y="24" type="line"/>
			<point x="258" y="0" type="line"/>
			<point x="157" y="24" type="line"/>
			<point x="163" y="0" type="line"/>
			<point x="62" y="24" type="line"/>
			<point x="50" y="71" type="line"/>
			<point x="74" y="72" type="line"/>
			<point x="50" y="167" type="line"/>
			<point x="74" y="167" type="line"/>
			<point x="50" y="263" type="line"/>
			<point x="74" y="263" type="line"/>
			<point x="50" y="358" type="line"/>
			<point x="74" y="357" type="line"/>
			<point x="50" y="452" type="line"/>
			<point x="74" y="452" type="line"/>
		</contour>
	</outline>
</glyph>
<glyph name="v" format="2">
	<advance width="484"/>
	<unicode hex="0076"/>
	<note>
		v
	</note>
	<outline>
		<contour>
			<point x="147" y="24" type="line"/>
			<point x="248" y="0" type="line"/>
			<point x="242" y="24" type="line"/>
			<point x="331" y="48" type="line"/>
			<point x="325" y="71" type="line"/>
			<point x="349" y="71" type="line"/>
			<point x="337" y="119" type="line"/>
			<point x="427" y="143" type="line"/>
			<point x="421" y="167" type="line"/>
			<point x="444" y="166" type="line"/>
			<point x="421" y="262" type="line"/>
			<point x="444" y="262" type="line"/>
			<point x="421" y="357" type="line"/>
			<point x="444" y="357" type="line"/>
			<point x="421" y="452" type="line"/>
			<point x="444" y="452" type="line"/>
			<point x="439" y="475" type="line"/>
			<point x="337" y="500" type="line"/>
			<point x="349" y="452" type="line"/>
			<point x="325" y="452" type="line"/>
			<point x="349" y="357" type="line"/>
			<point x="325" y="357" type="line"/>
			<point x="349" y="262" type="line"/>
			<point x="325" y="262" type="line"/>
			<point x="349" y="166" type="line"/>
			<point x="325" y="167" type="line"/>
			<point x="331" y="143" type="line"/>
			<point x="242" y="119" type="line"/>
			<point x="248" y="95" type="line"/>
			<point x="147" y="119" type="line"/>
			<point x="135" y="167" type="line"/>
			<point x="159" y="166" type="line"/>
			<point x="135" y="262" type="line"/>
			<point x="159" y="262" type="line"/>
			<point x="135" y="357" type="line"/>
			<point x="159" y="357" type="line"/>
			<point x="135" y="452" type="line"/>
			<point x="159" y="452" type="line"/>
			<point x="153" y="476" type="line"/>
			<point x="51" y="500" type="line"/>
			<point x="63" y="452" type="line"/>
			<point x="40" y="452" type="line"/>
			<point x="63" y="357" type="line"/>
			<point x="40" y="357" type="line"/>
			<point x="63" y="262" type="line"/>
			<point x="40" y="262" type="line"/>
			<point x="63" y="166" type="line"/>
			<point x="40" y="167" type="line"/>
			<point x="51" y="119" type="line"/>
			<point x="153" y="95" type="line"/>
			<point x="159" y="71" type="line"/>
			<point x="135" y="71" type="line"/>
		</contour>
	</outline>
</glyph>
<glyph name="w" format="2">
	<advance width="768"/>
	<unicode hex="0077"/>
	<note>
		w
	</note>
	<outline>
		<contour>
			<point x="52" y="500" type="line"/>
			<point x="152" y="476" type="line"/>
			<point x="158" y="453" type="line"/>
			<point x="135" y="452" type="line"/>
			<point x="158" y="357" type="line"/>
			<point x="135" y="357" type="line"/>
			<point x="158" y="262" type="line"/>
			<point x="135" y="261" type="line"/>
			<point x="158" y="166" type="line"/>
			<point x="135" y="166" type="line"/>
			<point x="147" y="119" type="line"/>
			<point x="247" y="95" type="line"/>
			<point x="242" y="119" type="line"/>
			<point x="330" y="143" type="line"/>
			<point x="325" y="166" type="line"/>
			<point x="348" y="166" type="line"/>
			<point x="325" y="261" type="line"/>
			<point x="348" y="262" type="line"/>
			<point x="325" y="357" type="line"/>
			<point x="348" y="357" type="line"/>
			<point x="325" y="452" type="line"/>
			<point x="348" y="453" type="line"/>
			<point x="336" y="500" type="line"/>
			<point x="437" y="476" type="line"/>
			<point x="443" y="453" type="line"/>
			<point x="420" y="452" type="line"/>
			<point x="443" y="357" type="line"/>
			<point x="420" y="357" type="line"/>
			<point x="443" y="262" type="line"/>
			<point x="420" y="261" type="line"/>
			<point x="443" y="166" type="line"/>
			<point x="420" y="166" type="line"/>
			<point x="431" y="119" type="line"/>
			<point x="532" y="95" type="line"/>
			<point x="526" y="119" type="line"/>
			<point x="615" y="143" type="line"/>
			<point x="609" y="166" type="line"/>
			<point x="633" y="166" type="line"/>
			<point x="609" y="261" type="line"/>
			<point x="633" y="262" type="line"/>
			<point x="609" y="357" type="line"/>
			<point x="633" y="357" type="line"/>
			<point x="609" y="452" type="line"/>
			<point x="633" y="453" type="line"/>
			<point x="621" y="500" type="line"/>
			<point x="722" y="476" type="line"/>
			<point x="728" y="453" type="line"/>
			<point x="704" y="452" type="line"/>
			<point x="728" y="357" type="line"/>
			<point x="704" y="357" type="line"/>
			<point x="728" y="262" type="line"/>
			<point x="704" y="261" type="line"/>
			<point x="728" y="166" type="line"/>
			<point x="704" y="166" type="line"/>
			<point x="722" y="95" type="line"/>
			<point x="621" y="119" type="line"/>
			<point x="633" y="71" type="line"/>
			<point x="609" y="71" type="line"/>
			<point x="615" y="47" type="line"/>
			<point x="526" y="24" type="line"/>
			<point x="532" y="0" type="line"/>
			<point x="431" y="24" type="line"/>
			<point x="425" y="48" type="line"/>
			<point x="336" y="24" type="line"/>
			<point x="330" y="48" type="line"/>
			<point x="242" y="24" type="line"/>
			<point x="247" y="0" type="line"/>
			<point x="147" y="24" type="line"/>
			<point x="141" y="47" type="line"/>
			<point x="52" y="24" type="line"/>
			<point x="40" y="71" type="line"/>
			<point x="63" y="71" type="line"/>
			<point x="40" y="166" type="line"/>
			<point x="63" y="166" type="line"/>
			<point x="40" y="261" type="line"/>
			<point x="63" y="262" type="line"/>
			<point x="40" y="357" type="line"/>
			<point x="63" y="357" type="line"/>
			<point x="40" y="452" type="line"/>
			<point x="63" y="453" type="line"/>
		</contour>
	</outline>
</glyph>
<glyph name="x" format="2">
	<advance width="486"/>
	<unicode hex="0078"/>
	<note>
		x
	</note>
	<outline>
		<contour>
			<point x="136" y="262" type="line"/>
			<point x="159" y="262" type="line"/>
			<point x="153" y="285" type="line"/>
			<point x="52" y="309" type="line"/>
			<point x="40" y="356" type="line"/>
			<point x="64" y="356" type="line"/>
			<point x="40" y="452" type="line"/>
			<point x="64" y="452" type="line"/>
			<point x="52" y="500" type="line"/>
			<point x="153" y="475" type="line"/>
			<point x="159" y="452" type="line"/>
			<point x="136" y="452" type="line"/>
			<point x="159" y="356" type="line"/>
			<point x="136" y="356" type="line"/>
			<point x="148" y="309" type="line"/>
			<point x="249" y="285" type="line"/>
			<point x="243" y="308" type="line"/>
			<point x="332" y="333" type="line"/>
			<point x="326" y="356" type="line"/>
			<point x="350" y="356" type="line"/>
			<point x="327" y="452" type="line"/>
			<point x="350" y="452" type="line"/>
			<point x="339" y="500" type="line"/>
			<point x="440" y="475" type="line"/>
			<point x="446" y="452" type="line"/>
			<point x="423" y="452" type="line"/>
			<point x="446" y="356" type="line"/>
			<point x="423" y="356" type="line"/>
			<point x="439" y="285" type="line"/>
			<point x="338" y="308" type="line"/>
			<point x="349" y="262" type="line"/>
			<point x="326" y="262" type="line"/>
			<point x="338" y="214" type="line"/>
			<point x="439" y="190" type="line"/>
			<point x="445" y="167" type="line"/>
			<point x="421" y="167" type="line"/>
			<point x="445" y="71" type="line"/>
			<point x="421" y="71" type="line"/>
			<point x="439" y="0" type="line"/>
			<point x="338" y="23" type="line"/>
			<point x="326" y="71" type="line"/>
			<point x="349" y="71" type="line"/>
			<point x="326" y="167" type="line"/>
			<point x="349" y="167" type="line"/>
			<point x="343" y="190" type="line"/>
			<point x="243" y="214" type="line"/>
			<point x="255" y="167" type="line"/>
			<point x="230" y="167" type="line"/>
			<point x="236" y="143" type="line"/>
			<point x="148" y="119" type="line"/>
			<point x="159" y="71" type="line"/>
			<point x="136" y="71" type="line"/>
			<point x="153" y="0" type="line"/>
			<point x="52" y="23" type="line"/>
			<point x="40" y="71" type="line"/>
			<point x="64" y="71" type="line"/>
			<point x="40" y="167" type="line"/>
			<point x="64" y="167" type="line"/>
			<point x="52" y="214" type="line"/>
			<point x="153" y="190" type="line"/>
		</contour>
	</outline>
</glyph>
<glyph name="y" format="2">
	<advance width="484"/>
	<unicode hex="0079"/>
	<note>
		y
	</note>
	<outline>
		<contour>
			<point x="337" y="500" type="line"/>
			<point x="438" y="476" type="line"/>
			<point x="444" y="453" type="line"/>
			<point x="420" y="452" type="line"/>
			<point x="444" y="357" type="line"/>
			<point x="420" y="357" type="line"/>
			<point x="444" y="262" type="line"/>
			<point x="420" y="261" type="line"/>
			<point x="444" y="166" type="line"/>
			<point x="420" y="166" type="line"/>
			<point x="444" y="71" type="line"/>
			<point x="420" y="71" type="line"/>
			<point x="426" y="47" type="line"/>
			<point x="337" y="24" type="line"/>
			<point x="343" y="0" type="line"/>
			<point x="242" y="24" type="line"/>
			<point x="248" y="0" type="line"/>
			<point x="147" y="24" type="line"/>
			<point x="141" y="48" type="line"/>
			<point x="52" y="24" type="line"/>
			<point x="40" y="71" type="line"/>
			<point x="64" y="71" type="line"/>
			<point x="52" y="119" type="line"/>
			<point x="141" y="143" type="line"/>
			<point x="147" y="119" type="line"/>
			<point x="248" y="95" type="line"/>
			<point x="242" y="119" type="line"/>
			<point x="343" y="95" type="line"/>
			<point x="325" y="166" type="line"/>
			<point x="349" y="166" type="line"/>
			<point x="331" y="237" type="line"/>
			<point x="242" y="214" type="line"/>
			<point x="236" y="237" type="line"/>
			<point x="147" y="214" type="line"/>
			<point x="141" y="238" type="line"/>
			<point x="52" y="214" type="line"/>
			<point x="40" y="261" type="line"/>
			<point x="64" y="262" type="line"/>
			<point x="40" y="357" type="line"/>
			<point x="64" y="357" type="line"/>
			<point x="40" y="452" type="line"/>
			<point x="64" y="453" type="line"/>
			<point x="52" y="500" type="line"/>
			<point x="153" y="476" type="line"/>
			<point x="159" y="453" type="line"/>
			<point x="135" y="452" type="line"/>
			<point x="159" y="357" type="line"/>
			<point x="135" y="357" type="line"/>
			<point x="147" y="309" type="line"/>
			<point x="248" y="286" type="line"/>
			<point x="242" y="309" type="line"/>
			<point x="343" y="286" type="line"/>
			<point x="325" y="357" type="line"/>
			<point x="349" y="357" type="line"/>
			<point x="325" y="452" type="line"/>
			<point x="349" y="453" type="line"/>
		</contour>
	</outline>
</glyph>
<glyph name="z" format="2">
	<advance width="504"/>
	<unicode hex="007A"/>
	<note>
		z
	</note>
	<outline>
		<contour>
			<point x="62" y="500" type="line"/>
			<point x="163" y="476" type="line"/>
			<point x="157" y="500" type="line"/>
			<point x="258" y="476" type="line"/>
			<point x="252" y="500" type="line"/>
			<point x="353" y="476" type="line"/>
			<point x="347" y="500" type="line"/>
			<point x="448" y="476" type="line"/>
			<point x="454" y="453" type="line"/>
			<point x="430" y="452" type="line"/>
			<point x="454" y="357" type="line"/>
			<point x="430" y="357" type="line"/>
			<point x="448" y="286" type="line"/>
			<point x="347" y="309" type="line"/>
			<point x="359" y="262" type="line"/>
			<point x="335" y="261" type="line"/>
			<point x="341" y="238" type="line"/>
			<point x="252" y="214" type="line"/>
			<point x="246" y="238" type="line"/>
			<point x="157" y="214" type="line"/>
			<point x="169" y="166" type="line"/>
			<point x="145" y="166" type="line"/>
			<point x="157" y="119" type="line"/>
			<point x="258" y="95" type="line"/>
			<point x="252" y="119" type="line"/>
			<point x="353" y="95" type="line"/>
			<point x="347" y="119" type="line"/>
			<point x="436" y="143" type="line"/>
			<point x="454" y="71" type="line"/>
			<point x="430" y="71" type="line"/>
			<point x="448" y="0" type="line"/>
			<point x="347" y="24" type="line"/>
			<point x="353" y="0" type="line"/>
			<point x="252" y="24" type="line"/>
			<point x="258" y="0" type="line"/>
			<point x="157" y="24" type="line"/>
			<point x="151" y="47" type="line"/>
			<point x="62" y="24" type="line"/>
			<point x="50" y="71" type="line"/>
			<point x="74" y="71" type="line"/>
			<point x="50" y="166" type="line"/>
			<point x="74" y="166" type="line"/>
			<point x="62" y="214" type="line"/>
			<point x="151" y="238" type="line"/>
			<point x="145" y="261" type="line"/>
			<point x="169" y="262" type="line"/>
			<point x="157" y="309" type="line"/>
			<point x="258" y="286" type="line"/>
			<point x="252" y="309" type="line"/>
			<point x="341" y="333" type="line"/>
			<point x="335" y="357" type="line"/>
			<point x="359" y="357" type="line"/>
			<point x="341" y="428" type="line"/>
			<point x="252" y="404" type="line"/>
			<point x="258" y="381" type="line"/>
			<point x="157" y="404" type="line"/>
			<point x="162" y="381" type="line"/>
			<point x="62" y="404" type="line"/>
			<point x="50" y="452" type="line"/>
			<point x="74" y="453" type="line"/>
		</contour>
	</outline>
</glyph>
<glyph name="braceleft" format="2">
	<advance width="409"/>
	<unicode hex="007B"/>
	<outline>
		<contour>
			<point x="231" y="166" type="line"/>
			<point x="255" y="166" type="line"/>
			<point x="248" y="191" type="line"/>
			<point x="147" y="215" type="line"/>
			<point x="136" y="262" type="line"/>
			<point x="159" y="262" type="line"/>
			<point x="147" y="309" type="line"/>
			<point x="236" y="332" type="line"/>
			<point x="231" y="357" type="line"/>
			<point x="255" y="357" type="line"/>
			<point x="243" y="404" type="line"/>
			<point x="332" y="428" type="line"/>
			<point x="325" y="451" type="line"/>
			<point x="349" y="451" type="line"/>
			<point x="344" y="477" type="line"/>
			<point x="243" y="500" type="line"/>
			<point x="248" y="477" type="line"/>
			<point x="147" y="500" type="line"/>
			<point x="159" y="451" type="line"/>
			<point x="136" y="451" type="line"/>
			<point x="159" y="357" type="line"/>
			<point x="136" y="357" type="line"/>
			<point x="141" y="332" type="line"/>
			<point x="52" y="309" type="line"/>
			<point x="63" y="262" type="line"/>
			<point x="40" y="262" type="line"/>
			<point x="52" y="215" type="line"/>
			<point x="152" y="191" type="line"/>
			<point x="159" y="166" type="line"/>
			<point x="136" y="166" type="line"/>
			<point x="159" y="72" type="line"/>
			<point x="136" y="72" type="line"/>
			<point x="147" y="23" type="line"/>
			<point x="236" y="47" type="line"/>
			<point x="243" y="23" type="line"/>
			<point x="344" y="0" type="line"/>
			<point x="325" y="72" type="line"/>
			<point x="349" y="72" type="line"/>
			<point x="344" y="96" type="line"/>
			<point x="243" y="119" type="line"/>
		</contour>
	</outline>
</glyph>
<glyph name="bar" format="2">
	<advance width="319"/>
	<unicode hex="007C"/>
	<outline>
		<contour>
			<point x="112" y="500" type="line"/>
			<point x="213" y="476" type="line"/>
			<point x="219" y="452" type="line"/>
			<point x="195" y="452" type="line"/>
			<point x="219" y="357" type="line"/>
			<point x="195" y="357" type="line"/>
			<point x="219" y="261" type="line"/>
			<point x="195" y="261" type="line"/>
			<point x="219" y="166" type="line"/>
			<point x="195" y="166" type="line"/>
			<point x="219" y="71" type="line"/>
			<point x="195" y="71" type="line"/>
			<point x="213" y="0" type="line"/>
			<point x="112" y="24" type="line"/>
			<point x="100" y="71" type="line"/>
			<point x="124" y="71" type="line"/>
			<point x="100" y="166" type="line"/>
			<point x="124" y="166" type="line"/>
			<point x="100" y="261" type="line"/>
			<point x="124" y="261" type="line"/>
			<point x="100" y="357" type="line"/>
			<point x="124" y="357" type="line"/>
			<point x="100" y="452" type="line"/>
			<point x="124" y="452" type="line"/>
		</contour>
	</outline>
</glyph>
<glyph name="braceright" format="2">
	<advance width="409"/>
	<unicode hex="007D"/>
	<outline>
		<contour>
			<point x="173" y="96" type="line"/>
			<point x="72" y="120" type="line"/>
			<point x="84" y="72" type="line"/>
			<point x="60" y="72" type="line"/>
			<point x="72" y="24" type="line"/>
			<point x="173" y="0" type="line"/>
			<point x="168" y="25" type="line"/>
			<point x="256" y="49" type="line"/>
			<point x="249" y="72" type="line"/>
			<point x="273" y="72" type="line"/>
			<point x="249" y="167" type="line"/>
			<point x="273" y="167" type="line"/>
			<point x="261" y="214" type="line"/>
			<point x="350" y="238" type="line"/>
			<point x="345" y="262" type="line"/>
			<point x="369" y="262" type="line"/>
			<point x="362" y="285" type="line"/>
			<point x="261" y="310" type="line"/>
			<point x="249" y="358" type="line"/>
			<point x="273" y="358" type="line"/>
			<point x="249" y="453" type="line"/>
			<point x="273" y="453" type="line"/>
			<point x="268" y="476" type="line"/>
			<point x="168" y="500" type="line"/>
			<point x="173" y="476" type="line"/>
			<point x="72" y="500" type="line"/>
			<point x="84" y="453" type="line"/>
			<point x="60" y="453" type="line"/>
			<point x="72" y="404" type="line"/>
			<point x="161" y="427" type="line"/>
			<point x="180" y="356" type="line"/>
			<point x="156" y="356" type="line"/>
			<point x="168" y="310" type="line"/>
			<point x="268" y="285" type="line"/>
			<point x="273" y="262" type="line"/>
			<point x="249" y="262" type="line"/>
			<point x="256" y="238" type="line"/>
			<point x="168" y="214" type="line"/>
			<point x="180" y="166" type="line"/>
			<point x="156" y="167" type="line"/>
		</contour>
	</outline>
</glyph>
<glyph name="asciitilde" format="2">
	<advance width="429"/>
	<unicode hex="007E"/>
	<outline>
		<contour>
			<point x="72" y="215" type="line"/>
			<point x="60" y="262" type="line"/>
			<point x="84" y="262" type="line"/>
			<point x="72" y="310" type="line"/>
			<point x="161" y="334" type="line"/>
			<point x="167" y="310" type="line"/>
			<point x="268" y="286" type="line"/>
			<point x="262" y="310" type="line"/>
			<point x="352" y="334" type="line"/>
			<point x="369" y="262" type="line"/>
			<point x="346" y="262" type="line"/>
			<point x="352" y="238" type="line"/>
			<point x="262" y="215" type="line"/>
			<point x="268" y="191" type="line"/>
			<point x="167" y="215" type="line"/>
			<point x="161" y="239" type="line"/>
		</contour>
	</outline>
</glyph>
<glyph name="exclamdown" format="2">
	<advance width="189"/>
	<unicode hex="00A1"/>
	<note>
		exclamdown
	</note>
	<outline>
		<contour>
			<point x="42" y="500" type="line"/>
			<point x="143" y="476" type="line"/>
			<point x="149" y="453" type="line"/>
			<point x="125" y="452" type="line"/>
			<point x="143" y="381" type="line"/>
			<point x="42" y="404" type="line"/>
			<point x="30" y="452" type="line"/>
			<point x="54" y="453" type="line"/>
		</contour>
		<contour>
			<point x="42" y="309" type="line"/>
			<point x="131" y="333" type="line"/>
			<point x="149" y="262" type="line"/>
			<point x="125" y="262" type="line"/>
			<point x="149" y="167" type="line"/>
			<point x="125" y="167" type="line"/>
			<point x="149" y="71" type="line"/>
			<point x="125" y="71" type="line"/>
			<point x="143" y="0" type="line"/>
			<point x="42" y="24" type="line"/>
			<point x="30" y="71" type="line"/>
			<point x="53" y="71" type="line"/>
			<point x="30" y="167" type="line"/>
			<point x="53" y="167" type="line"/>
			<point x="30" y="262" type="line"/>
			<point x="53" y="262" type="line"/>
		</contour>
	</outline>
</glyph>
<glyph name="brokenbar" format="2">
	<advance width="320"/>
	<unicode hex="00A6"/>
	<outline>
		<contour>
			<point x="196" y="357" type="line"/>
			<point x="220" y="357" type="line"/>
			<point x="196" y="452" type="line"/>
			<point x="220" y="453" type="line"/>
			<point x="214" y="477" type="line"/>
			<point x="112" y="500" type="line"/>
			<point x="124" y="453" type="line"/>
			<point x="100" y="452" type="line"/>
			<point x="124" y="357" type="line"/>
			<point x="100" y="357" type="line"/>
			<point x="111" y="309" type="line"/>
			<point x="212" y="285" type="line"/>
		</contour>
		<contour>
			<point x="220" y="166" type="line"/>
			<point x="196" y="166" type="line"/>
			<point x="220" y="71" type="line"/>
			<point x="196" y="71" type="line"/>
			<point x="214" y="0" type="line"/>
			<point x="112" y="24" type="line"/>
			<point x="100" y="71" type="line"/>
			<point x="124" y="71" type="line"/>
			<point x="100" y="166" type="line"/>
			<point x="124" y="166" type="line"/>
			<point x="111" y="214" type="line"/>
			<point x="212" y="190" type="line"/>
		</contour>
	</outline>
</glyph>
<glyph name="guillemetleft" format="2">
	<advance width="792"/>
	<unicode hex="00AB"/>
	<outline>
		<contour>
			<point x="52" y="214" type="line"/>
			<point x="40" y="261" type="line"/>
			<point x="64" y="261" type="line"/>
			<point x="52" y="310" type="line"/>
			<point x="141" y="333" type="line"/>
			<point x="134" y="357" type="line"/>
			<point x="160" y="357" type="line"/>
			<point x="146" y="404" type="line"/>
			<point x="237" y="429" type="line"/>
			<point x="230" y="453" type="line"/>
			<point x="254" y="453" type="line"/>
			<point x="242" y="500" type="line"/>
			<point x="343" y="476" type="line"/>
			<point x="338" y="500" type="line"/>
			<point x="439" y="476" type="line"/>
			<point x="446" y="453" type="line"/>
			<point x="420" y="453" type="line"/>
			<point x="427" y="429" type="line"/>
			<point x="338" y="404" type="line"/>
			<point x="331" y="429" type="line"/>
			<point x="242" y="404" type="line"/>
			<point x="254" y="357" type="line"/>
			<point x="230" y="357" type="line"/>
			<point x="237" y="333" type="line"/>
			<point x="146" y="310" type="line"/>
			<point x="160" y="261" type="line"/>
			<point x="134" y="261" type="line"/>
			<point x="146" y="214" type="line"/>
			<point x="249" y="190" type="line"/>
			<point x="254" y="167" type="line"/>
			<point x="230" y="167" type="line"/>
			<point x="242" y="118" type="line"/>
			<point x="343" y="94" type="line"/>
			<point x="338" y="118" type="line"/>
			<point x="439" y="94" type="line"/>
			<point x="446" y="71" type="line"/>
			<point x="420" y="71" type="line"/>
			<point x="439" y="0" type="line"/>
			<point x="338" y="24" type="line"/>
			<point x="343" y="0" type="line"/>
			<point x="242" y="24" type="line"/>
			<point x="230" y="71" type="line"/>
			<point x="254" y="71" type="line"/>
			<point x="249" y="94" type="line"/>
			<point x="146" y="118" type="line"/>
			<point x="134" y="167" type="line"/>
			<point x="160" y="167" type="line"/>
			<point x="153" y="190" type="line"/>
		</contour>
		<contour>
			<point x="338" y="214" type="line"/>
			<point x="326" y="261" type="line"/>
			<point x="350" y="261" type="line"/>
			<point x="338" y="310" type="line"/>
			<point x="427" y="333" type="line"/>
			<point x="420" y="357" type="line"/>
			<point x="446" y="357" type="line"/>
			<point x="434" y="404" type="line"/>
			<point x="523" y="429" type="line"/>
			<point x="516" y="453" type="line"/>
			<point x="540" y="453" type="line"/>
			<point x="528" y="500" type="line"/>
			<point x="629" y="476" type="line"/>
			<point x="624" y="500" type="line"/>
			<point x="725" y="476" type="line"/>
			<point x="732" y="453" type="line"/>
			<point x="708" y="453" type="line"/>
			<point x="713" y="429" type="line"/>
			<point x="624" y="404" type="line"/>
			<point x="617" y="429" type="line"/>
			<point x="528" y="404" type="line"/>
			<point x="540" y="357" type="line"/>
			<point x="516" y="357" type="line"/>
			<point x="523" y="333" type="line"/>
			<point x="434" y="310" type="line"/>
			<point x="446" y="261" type="line"/>
			<point x="420" y="261" type="line"/>
			<point x="434" y="214" type="line"/>
			<point x="535" y="190" type="line"/>
			<point x="540" y="167" type="line"/>
			<point x="516" y="167" type="line"/>
			<point x="528" y="118" type="line"/>
			<point x="629" y="94" type="line"/>
			<point x="624" y="118" type="line"/>
			<point x="725" y="94" type="line"/>
			<point x="732" y="71" type="line"/>
			<point x="708" y="71" type="line"/>
			<point x="725" y="0" type="line"/>
			<point x="624" y="24" type="line"/>
			<point x="629" y="0" type="line"/>
			<point x="528" y="24" type="line"/>
			<point x="516" y="71" type="line"/>
			<point x="540" y="71" type="line"/>
			<point x="535" y="94" type="line"/>
			<point x="434" y="118" type="line"/>
			<point x="420" y="167" type="line"/>
			<point x="446" y="167" type="line"/>
			<point x="439" y="190" type="line"/>
		</contour>
	</outline>
</glyph>
<glyph name="periodcentered" format="2">
	<advance width="138"/>
	<unicode hex="00B7"/>
	<note>
		periodcentered
	</note>
	<outline>
		<contour>
			<point x="22" y="309" type="line"/>
			<point x="122" y="286" type="line"/>
			<point x="128" y="262" type="line"/>
			<point x="104" y="262" type="line"/>
			<point x="122" y="191" type="line"/>
			<point x="22" y="214" type="line"/>
			<point x="10" y="262" type="line"/>
			<point x="33" y="262" type="line"/>
		</contour>
	</outline>
</glyph>
<glyph name="guillemetright" format="2">
	<advance width="826"/>
	<unicode hex="00BB"/>
	<outline>
		<contour>
			<point x="73" y="500" type="line"/>
			<point x="179" y="475" type="line"/>
			<point x="173" y="500" type="line"/>
			<point x="279" y="475" type="line"/>
			<point x="286" y="450" type="line"/>
			<point x="260" y="450" type="line"/>
			<point x="273" y="400" type="line"/>
			<point x="379" y="375" type="line"/>
			<point x="386" y="350" type="line"/>
			<point x="361" y="350" type="line"/>
			<point x="373" y="300" type="line"/>
			<point x="479" y="275" type="line"/>
			<point x="486" y="250" type="line"/>
			<point x="461" y="250" type="line"/>
			<point x="467" y="225" type="line"/>
			<point x="373" y="199" type="line"/>
			<point x="386" y="149" type="line"/>
			<point x="361" y="149" type="line"/>
			<point x="367" y="124" type="line"/>
			<point x="273" y="99" type="line"/>
			<point x="286" y="49" type="line"/>
			<point x="261" y="50" type="line"/>
			<point x="267" y="25" type="line"/>
			<point x="173" y="0" type="line"/>
			<point x="167" y="25" type="line"/>
			<point x="73" y="0" type="line"/>
			<point x="60" y="50" type="line"/>
			<point x="85" y="49" type="line"/>
			<point x="73" y="99" type="line"/>
			<point x="179" y="74" type="line"/>
			<point x="173" y="99" type="line"/>
			<point x="267" y="124" type="line"/>
			<point x="261" y="149" type="line"/>
			<point x="286" y="149" type="line"/>
			<point x="273" y="200" type="line"/>
			<point x="367" y="225" type="line"/>
			<point x="361" y="250" type="line"/>
			<point x="386" y="250" type="line"/>
			<point x="379" y="275" type="line"/>
			<point x="273" y="300" type="line"/>
			<point x="261" y="350" type="line"/>
			<point x="286" y="350" type="line"/>
			<point x="279" y="375" type="line"/>
			<point x="173" y="400" type="line"/>
			<point x="167" y="425" type="line"/>
			<point x="73" y="400" type="line"/>
			<point x="60" y="450" type="line"/>
			<point x="85" y="450" type="line"/>
		</contour>
		<contour>
			<point x="373" y="500" type="line"/>
			<point x="480" y="475" type="line"/>
			<point x="473" y="500" type="line"/>
			<point x="580" y="475" type="line"/>
			<point x="586" y="450" type="line"/>
			<point x="561" y="450" type="line"/>
			<point x="573" y="400" type="line"/>
			<point x="680" y="375" type="line"/>
			<point x="686" y="350" type="line"/>
			<point x="661" y="350" type="line"/>
			<point x="674" y="300" type="line"/>
			<point x="780" y="275" type="line"/>
			<point x="786" y="250" type="line"/>
			<point x="761" y="250" type="line"/>
			<point x="767" y="225" type="line"/>
			<point x="674" y="199" type="line"/>
			<point x="686" y="149" type="line"/>
			<point x="661" y="149" type="line"/>
			<point x="667" y="124" type="line"/>
			<point x="573" y="99" type="line"/>
			<point x="586" y="49" type="line"/>
			<point x="561" y="50" type="line"/>
			<point x="567" y="25" type="line"/>
			<point x="473" y="0" type="line"/>
			<point x="467" y="25" type="line"/>
			<point x="373" y="0" type="line"/>
			<point x="361" y="50" type="line"/>
			<point x="386" y="49" type="line"/>
			<point x="373" y="99" type="line"/>
			<point x="480" y="74" type="line"/>
			<point x="473" y="99" type="line"/>
			<point x="567" y="124" type="line"/>
			<point x="561" y="149" type="line"/>
			<point x="586" y="149" type="line"/>
			<point x="573" y="200" type="line"/>
			<point x="667" y="225" type="line"/>
			<point x="661" y="250" type="line"/>
			<point x="686" y="250" type="line"/>
			<point x="680" y="275" type="line"/>
			<point x="573" y="300" type="line"/>
			<point x="561" y="350" type="line"/>
			<point x="586" y="350" type="line"/>
			<point x="580" y="375" type="line"/>
			<point x="473" y="400" type="line"/>
			<point x="467" y="425" type="line"/>
			<point x="373" y="400" type="line"/>
			<point x="361" y="450" type="line"/>
			<point x="386" y="450" type="line"/>
		</contour>
	</outline>
</glyph>
<glyph name="questiondown" format="2">
	<advance width="430"/>
	<unicode hex="00BF"/>
	<note>
		questiondown
	</note>
	<outline>
		<contour>
			<point x="177" y="500" type="line"/>
			<point x="279" y="476" type="line"/>
			<point x="285" y="452" type="line"/>
			<point x="261" y="452" type="line"/>
			<point x="279" y="380" type="line"/>
			<point x="177" y="404" type="line"/>
			<point x="165" y="452" type="line"/>
			<point x="189" y="452" type="line"/>
		</contour>
		<contour>
			<point x="273" y="119" type="line"/>
			<point x="362" y="144" type="line"/>
			<point x="380" y="72" type="line"/>
			<point x="356" y="72" type="line"/>
			<point x="362" y="48" type="line"/>
			<point x="273" y="24" type="line"/>
			<point x="279" y="0" type="line"/>
			<point x="177" y="24" type="line"/>
			<point x="171" y="48" type="line"/>
			<point x="82" y="24" type="line"/>
			<point x="70" y="72" type="line"/>
			<point x="94" y="72" type="line"/>
			<point x="70" y="167" type="line"/>
			<point x="94" y="167" type="line"/>
			<point x="82" y="215" type="line"/>
			<point x="171" y="239" type="line"/>
			<point x="165" y="263" type="line"/>
			<point x="189" y="263" type="line"/>
			<point x="177" y="310" type="line"/>
			<point x="267" y="334" type="line"/>
			<point x="285" y="263" type="line"/>
			<point x="261" y="263" type="line"/>
			<point x="267" y="239" type="line"/>
			<point x="177" y="215" type="line"/>
			<point x="189" y="167" type="line"/>
			<point x="165" y="167" type="line"/>
			<point x="177" y="119" type="line"/>
			<point x="279" y="96" type="line"/>
		</contour>
	</outline>
</glyph>
<glyph name="Aacute" format="2">
	<advance width="390"/>
	<unicode hex="00C1"/>
	<note>
		Aacute
	</note>
	<outline>
		<contour>
			<point x="148" y="310" type="line"/>
			<point x="237" y="333" type="line"/>
			<point x="230" y="357" type="line"/>
			<point x="254" y="357" type="line"/>
			<point x="242" y="406" type="line"/>
			<point x="331" y="429" type="line"/>
			<point x="326" y="453" type="line"/>
			<point x="350" y="453" type="line"/>
			<point x="343" y="476" type="line"/>
			<point x="242" y="500" type="line"/>
			<point x="254" y="453" type="line"/>
			<point x="230" y="453" type="line"/>
			<point x="237" y="429" type="line"/>
			<point x="148" y="406" type="line"/>
			<point x="160" y="357" type="line"/>
			<point x="136" y="357" type="line"/>
		</contour>
		<contour>
			<point x="326" y="263" type="line"/>
			<point x="350" y="263" type="line"/>
			<point x="343" y="286" type="line"/>
			<point x="242" y="310" type="line"/>
			<point x="249" y="286" type="line"/>
			<point x="148" y="310" type="line"/>
			<point x="153" y="286" type="line"/>
			<point x="52" y="310" type="line"/>
			<point x="64" y="263" type="line"/>
			<point x="40" y="263" type="line"/>
			<point x="64" y="167" type="line"/>
			<point x="40" y="167" type="line"/>
			<point x="64" y="71" type="line"/>
			<point x="40" y="71" type="line"/>
			<point x="52" y="24" type="line"/>
			<point x="153" y="0" type="line"/>
			<point x="136" y="71" type="line"/>
			<point x="160" y="71" type="line"/>
			<point x="148" y="120" type="line"/>
			<point x="237" y="143" type="line"/>
			<point x="254" y="71" type="line"/>
			<point x="230" y="71" type="line"/>
			<point x="242" y="24" type="line"/>
			<point x="343" y="0" type="line"/>
			<point x="326" y="71" type="line"/>
			<point x="350" y="71" type="line"/>
			<point x="326" y="167" type="line"/>
			<point x="350" y="167" type="line"/>
		</contour>
		<contour>
			<point x="148" y="215" type="line"/>
			<point x="237" y="239" type="line"/>
			<point x="249" y="190" type="line"/>
		</contour>
	</outline>
</glyph>
<glyph name="Acircumflex" format="2">
	<advance width="389"/>
	<unicode hex="00C2"/>
	<note>
		Acircumflex
	</note>
	<outline>
		<contour>
			<point x="52" y="309" type="line"/>
			<point x="141" y="332" type="line"/>
			<point x="136" y="356" type="line"/>
			<point x="159" y="357" type="line"/>
			<point x="147" y="404" type="line"/>
			<point x="248" y="381" type="line"/>
			<point x="253" y="357" type="line"/>
			<point x="230" y="356" type="line"/>
			<point x="241" y="309" type="line"/>
			<point x="332" y="332" type="line"/>
			<point x="325" y="356" type="line"/>
			<point x="349" y="357" type="line"/>
			<point x="332" y="428" type="line"/>
			<point x="241" y="404" type="line"/>
			<point x="230" y="451" type="line"/>
			<point x="253" y="451" type="line"/>
			<point x="248" y="477" type="line"/>
			<point x="147" y="500" type="line"/>
			<point x="159" y="451" type="line"/>
			<point x="136" y="451" type="line"/>
			<point x="141" y="428" type="line"/>
			<point x="52" y="404" type="line"/>
			<point x="63" y="357" type="line"/>
			<point x="40" y="356" type="line"/>
		</contour>
		<contour>
			<point x="325" y="262" type="line"/>
			<point x="349" y="262" type="line"/>
			<point x="344" y="285" type="line"/>
			<point x="241" y="309" type="line"/>
			<point x="248" y="285" type="line"/>
			<point x="147" y="309" type="line"/>
			<point x="152" y="285" type="line"/>
			<point x="52" y="309" type="line"/>
			<point x="63" y="262" type="line"/>
			<point x="40" y="262" type="line"/>
			<point x="63" y="166" type="line"/>
			<point x="40" y="166" type="line"/>
			<point x="63" y="70" type="line"/>
			<point x="40" y="70" type="line"/>
			<point x="52" y="23" type="line"/>
			<point x="152" y="0" type="line"/>
			<point x="136" y="70" type="line"/>
			<point x="159" y="70" type="line"/>
			<point x="147" y="119" type="line"/>
			<point x="236" y="143" type="line"/>
			<point x="253" y="70" type="line"/>
			<point x="230" y="70" type="line"/>
			<point x="241" y="23" type="line"/>
			<point x="344" y="0" type="line"/>
			<point x="325" y="70" type="line"/>
			<point x="349" y="70" type="line"/>
			<point x="325" y="166" type="line"/>
			<point x="349" y="166" type="line"/>
		</contour>
		<contour>
			<point x="147" y="213" type="line"/>
			<point x="236" y="238" type="line"/>
			<point x="248" y="190" type="line"/>
		</contour>
	</outline>
</glyph>
<glyph name="Adieresis" format="2">
	<advance width="391"/>
	<unicode hex="00C4"/>
	<note>
		Adieresis
	</note>
	<outline>
		<contour>
			<point x="244" y="406" type="line"/>
			<point x="345" y="382" type="line"/>
			<point x="326" y="453" type="line"/>
			<point x="351" y="453" type="line"/>
			<point x="345" y="476" type="line"/>
			<point x="244" y="500" type="line"/>
			<point x="255" y="453" type="line"/>
			<point x="232" y="453" type="line"/>
		</contour>
		<contour>
			<point x="53" y="406" type="line"/>
			<point x="42" y="453" type="line"/>
			<point x="65" y="453" type="line"/>
			<point x="53" y="500" type="line"/>
			<point x="154" y="476" type="line"/>
			<point x="160" y="453" type="line"/>
			<point x="136" y="453" type="line"/>
			<point x="154" y="382" type="line"/>
		</contour>
		<contour>
			<point x="326" y="263" type="line"/>
			<point x="351" y="263" type="line"/>
			<point x="345" y="286" type="line"/>
			<point x="244" y="310" type="line"/>
			<point x="249" y="286" type="line"/>
			<point x="148" y="310" type="line"/>
			<point x="154" y="286" type="line"/>
			<point x="53" y="310" type="line"/>
			<point x="65" y="263" type="line"/>
			<point x="40" y="263" type="line"/>
			<point x="65" y="167" type="line"/>
			<point x="40" y="167" type="line"/>
			<point x="65" y="71" type="line"/>
			<point x="40" y="71" type="line"/>
			<point x="53" y="24" type="line"/>
			<point x="154" y="0" type="line"/>
			<point x="136" y="71" type="line"/>
			<point x="160" y="71" type="line"/>
			<point x="148" y="120" type="line"/>
			<point x="237" y="143" type="line"/>
			<point x="255" y="71" type="line"/>
			<point x="232" y="71" type="line"/>
			<point x="244" y="24" type="line"/>
			<point x="345" y="0" type="line"/>
			<point x="326" y="71" type="line"/>
			<point x="351" y="71" type="line"/>
			<point x="326" y="167" type="line"/>
			<point x="351" y="167" type="line"/>
		</contour>
		<contour>
			<point x="148" y="214" type="line"/>
			<point x="237" y="239" type="line"/>
			<point x="249" y="190" type="line"/>
		</contour>
	</outline>
</glyph>
<glyph name="AE" format="2">
	<advance width="767"/>
	<unicode hex="00C6"/>
	<note>
		AE
	</note>
	<outline>
		<contour>
			<point x="709" y="142" type="line"/>
			<point x="620" y="119" type="line"/>
			<point x="625" y="95" type="line"/>
			<point x="525" y="119" type="line"/>
			<point x="532" y="95" type="line"/>
			<point x="431" y="119" type="line"/>
			<point x="420" y="166" type="line"/>
			<point x="441" y="166" type="line"/>
			<point x="431" y="214" type="line"/>
			<point x="532" y="191" type="line"/>
			<point x="525" y="214" type="line"/>
			<point x="625" y="191" type="line"/>
			<point x="609" y="261" type="line"/>
			<point x="632" y="261" type="line"/>
			<point x="625" y="286" type="line"/>
			<point x="525" y="309" type="line"/>
			<point x="532" y="286" type="line"/>
			<point x="431" y="309" type="line"/>
			<point x="418" y="356" type="line"/>
			<point x="441" y="356" type="line"/>
			<point x="431" y="405" type="line"/>
			<point x="532" y="380" type="line"/>
			<point x="525" y="403" type="line"/>
			<point x="625" y="380" type="line"/>
			<point x="620" y="405" type="line"/>
			<point x="721" y="380" type="line"/>
			<point x="702" y="452" type="line"/>
			<point x="727" y="452" type="line"/>
			<point x="721" y="477" type="line"/>
			<point x="620" y="500" type="line"/>
			<point x="625" y="477" type="line"/>
			<point x="525" y="500" type="line"/>
			<point x="532" y="477" type="line"/>
			<point x="430" y="500" type="line"/>
			<point x="436" y="477" type="line"/>
			<point x="336" y="500" type="line"/>
			<point x="341" y="475" type="line"/>
			<point x="241" y="500" type="line"/>
			<point x="247" y="475" type="line"/>
			<point x="145" y="500" type="line"/>
			<point x="152" y="475" type="line"/>
			<point x="52" y="500" type="line"/>
			<point x="63" y="452" type="line"/>
			<point x="40" y="452" type="line"/>
			<point x="63" y="358" type="line"/>
			<point x="40" y="358" type="line"/>
			<point x="63" y="263" type="line"/>
			<point x="40" y="263" type="line"/>
			<point x="63" y="167" type="line"/>
			<point x="40" y="167" type="line"/>
			<point x="63" y="74" type="line"/>
			<point x="40" y="74" type="line"/>
			<point x="52" y="25" type="line"/>
			<point x="152" y="2" type="line"/>
			<point x="134" y="74" type="line"/>
			<point x="157" y="74" type="line"/>
			<point x="134" y="167" type="line"/>
			<point x="157" y="167" type="line"/>
			<point x="145" y="214" type="line"/>
			<point x="247" y="191" type="line"/>
			<point x="241" y="214" type="line"/>
			<point x="341" y="191" type="line"/>
			<point x="348" y="167" type="line"/>
			<point x="324" y="167" type="line"/>
			<point x="348" y="74" type="line"/>
			<point x="324" y="74" type="line"/>
			<point x="336" y="23" type="line"/>
			<point x="436" y="0" type="line"/>
			<point x="431" y="23" type="line"/>
			<point x="532" y="0" type="line"/>
			<point x="525" y="23" type="line"/>
			<point x="625" y="0" type="line"/>
			<point x="620" y="23" type="line"/>
			<point x="709" y="47" type="line"/>
			<point x="702" y="72" type="line"/>
			<point x="727" y="72" type="line"/>
		</contour>
		<contour>
			<point x="145" y="309" type="line"/>
			<point x="134" y="358" type="line"/>
			<point x="157" y="358" type="line"/>
			<point x="145" y="405" type="line"/>
			<point x="234" y="428" type="line"/>
			<point x="241" y="405" type="line"/>
			<point x="329" y="428" type="line"/>
			<point x="348" y="358" type="line"/>
			<point x="324" y="358" type="line"/>
			<point x="341" y="286" type="line"/>
			<point x="241" y="309" type="line"/>
			<point x="247" y="286" type="line"/>
		</contour>
	</outline>
</glyph>
<glyph name="Ccedilla" format="2">
	<advance width="391"/>
	<unicode hex="00C7"/>
	<note>
		Ccedilla
	</note>
	<outline>
		<contour>
			<point x="148" y="214" type="line"/>
			<point x="142" y="238" type="line"/>
			<point x="52" y="214" type="line"/>
			<point x="40" y="262" type="line"/>
			<point x="64" y="262" type="line"/>
			<point x="40" y="357" type="line"/>
			<point x="64" y="357" type="line"/>
			<point x="40" y="452" type="line"/>
			<point x="64" y="452" type="line"/>
			<point x="52" y="500" type="line"/>
			<point x="154" y="476" type="line"/>
			<point x="148" y="500" type="line"/>
			<point x="249" y="476" type="line"/>
			<point x="243" y="500" type="line"/>
			<point x="344" y="476" type="line"/>
			<point x="350" y="452" type="line"/>
			<point x="327" y="452" type="line"/>
			<point x="333" y="429" type="line"/>
			<point x="243" y="405" type="line"/>
			<point x="237" y="429" type="line"/>
			<point x="148" y="405" type="line"/>
			<point x="160" y="357" type="line"/>
			<point x="136" y="357" type="line"/>
			<point x="148" y="309" type="line"/>
			<point x="249" y="286" type="line"/>
			<point x="243" y="309" type="line"/>
			<point x="344" y="286" type="line"/>
			<point x="350" y="262" type="line"/>
			<point x="327" y="262" type="line"/>
			<point x="333" y="238" type="line"/>
			<point x="243" y="214" type="line"/>
			<point x="344" y="190" type="line"/>
			<point x="350" y="166" type="line"/>
			<point x="327" y="166" type="line"/>
			<point x="351" y="71" type="line"/>
			<point x="327" y="71" type="line"/>
			<point x="333" y="48" type="line"/>
			<point x="243" y="24" type="line"/>
			<point x="249" y="0" type="line"/>
			<point x="148" y="24" type="line"/>
			<point x="136" y="71" type="line"/>
			<point x="160" y="71" type="line"/>
			<point x="148" y="118" type="line"/>
			<point x="249" y="95" type="line"/>
			<point x="231" y="166" type="line"/>
			<point x="255" y="166" type="line"/>
			<point x="249" y="190" type="line"/>
		</contour>
	</outline>
</glyph>
<glyph name="Egrave" format="2">
	<advance width="389"/>
	<unicode hex="00C8"/>
	<note>
		Egrave
	</note>
	<outline>
		<contour>
			<point x="343" y="95" type="line"/>
			<point x="242" y="120" type="line"/>
			<point x="248" y="96" type="line"/>
			<point x="147" y="120" type="line"/>
			<point x="236" y="143" type="line"/>
			<point x="230" y="167" type="line"/>
			<point x="254" y="167" type="line"/>
			<point x="248" y="191" type="line"/>
			<point x="147" y="215" type="line"/>
			<point x="236" y="239" type="line"/>
			<point x="242" y="215" type="line"/>
			<point x="343" y="191" type="line"/>
			<point x="325" y="262" type="line"/>
			<point x="349" y="262" type="line"/>
			<point x="343" y="286" type="line"/>
			<point x="242" y="310" type="line"/>
			<point x="248" y="286" type="line"/>
			<point x="230" y="357" type="line"/>
			<point x="254" y="357" type="line"/>
			<point x="248" y="381" type="line"/>
			<point x="147" y="405" type="line"/>
			<point x="135" y="452" type="line"/>
			<point x="159" y="453" type="line"/>
			<point x="153" y="476" type="line"/>
			<point x="52" y="500" type="line"/>
			<point x="64" y="453" type="line"/>
			<point x="40" y="452" type="line"/>
			<point x="52" y="405" type="line"/>
			<point x="153" y="381" type="line"/>
			<point x="159" y="357" type="line"/>
			<point x="135" y="357" type="line"/>
			<point x="147" y="310" type="line"/>
			<point x="153" y="286" type="line"/>
			<point x="52" y="310" type="line"/>
			<point x="64" y="262" type="line"/>
			<point x="40" y="262" type="line"/>
			<point x="64" y="167" type="line"/>
			<point x="40" y="167" type="line"/>
			<point x="64" y="72" type="line"/>
			<point x="40" y="72" type="line"/>
			<point x="52" y="25" type="line"/>
			<point x="153" y="0" type="line"/>
			<point x="147" y="25" type="line"/>
			<point x="248" y="1" type="line"/>
			<point x="242" y="25" type="line"/>
			<point x="343" y="0" type="line"/>
			<point x="325" y="72" type="line"/>
			<point x="349" y="72" type="line"/>
		</contour>
	</outline>
</glyph>
<glyph name="Ecircumflex" format="2">
	<advance width="389"/>
	<unicode hex="00CA"/>
	<note>
		Ecircumflex
	</note>
	<outline>
		<contour>
			<point x="52" y="310" type="line"/>
			<point x="141" y="334" type="line"/>
			<point x="135" y="357" type="line"/>
			<point x="159" y="358" type="line"/>
			<point x="147" y="405" type="line"/>
			<point x="248" y="381" type="line"/>
			<point x="254" y="358" type="line"/>
			<point x="230" y="357" type="line"/>
			<point x="242" y="310" type="line"/>
			<point x="331" y="334" type="line"/>
			<point x="325" y="357" type="line"/>
			<point x="349" y="358" type="line"/>
			<point x="331" y="429" type="line"/>
			<point x="242" y="405" type="line"/>
			<point x="230" y="453" type="line"/>
			<point x="254" y="453" type="line"/>
			<point x="248" y="476" type="line"/>
			<point x="147" y="500" type="line"/>
			<point x="159" y="453" type="line"/>
			<point x="135" y="453" type="line"/>
			<point x="141" y="429" type="line"/>
			<point x="52" y="405" type="line"/>
			<point x="64" y="358" type="line"/>
			<point x="40" y="357" type="line"/>
		</contour>
		<contour>
			<point x="343" y="95" type="line"/>
			<point x="242" y="119" type="line"/>
			<point x="248" y="96" type="line"/>
			<point x="147" y="119" type="line"/>
			<point x="236" y="143" type="line"/>
			<point x="230" y="167" type="line"/>
			<point x="254" y="167" type="line"/>
			<point x="248" y="191" type="line"/>
			<point x="147" y="214" type="line"/>
			<point x="236" y="238" type="line"/>
			<point x="242" y="214" type="line"/>
			<point x="343" y="191" type="line"/>
			<point x="325" y="262" type="line"/>
			<point x="349" y="262" type="line"/>
			<point x="343" y="286" type="line"/>
			<point x="242" y="309" type="line"/>
			<point x="248" y="286" type="line"/>
			<point x="147" y="309" type="line"/>
			<point x="153" y="286" type="line"/>
			<point x="52" y="309" type="line"/>
			<point x="64" y="262" type="line"/>
			<point x="40" y="262" type="line"/>
			<point x="64" y="167" type="line"/>
			<point x="40" y="167" type="line"/>
			<point x="64" y="72" type="line"/>
			<point x="40" y="72" type="line"/>
			<point x="52" y="25" type="line"/>
			<point x="153" y="0" type="line"/>
			<point x="147" y="25" type="line"/>
			<point x="248" y="1" type="line"/>
			<point x="242" y="25" type="line"/>
			<point x="343" y="0" type="line"/>
			<point x="325" y="72" type="line"/>
			<point x="349" y="72" type="line"/>
		</contour>
	</outline>
</glyph>
<glyph name="Igrave" format="2">
	<advance width="389"/>
	<unicode hex="00CC"/>
	<note>
		Igrave
	</note>
	<outline>
		<contour>
			<point x="343" y="95" type="line"/>
			<point x="242" y="119" type="line"/>
			<point x="230" y="166" type="line"/>
			<point x="254" y="166" type="line"/>
			<point x="242" y="214" type="line"/>
			<point x="343" y="190" type="line"/>
			<point x="326" y="261" type="line"/>
			<point x="349" y="262" type="line"/>
			<point x="343" y="285" type="line"/>
			<point x="242" y="309" type="line"/>
			<point x="230" y="357" type="line"/>
			<point x="254" y="357" type="line"/>
			<point x="248" y="381" type="line"/>
			<point x="147" y="405" type="line"/>
			<point x="135" y="452" type="line"/>
			<point x="159" y="453" type="line"/>
			<point x="153" y="476" type="line"/>
			<point x="52" y="500" type="line"/>
			<point x="64" y="453" type="line"/>
			<point x="40" y="452" type="line"/>
			<point x="52" y="405" type="line"/>
			<point x="153" y="381" type="line"/>
			<point x="159" y="357" type="line"/>
			<point x="135" y="357" type="line"/>
			<point x="147" y="310" type="line"/>
			<point x="153" y="285" type="line"/>
			<point x="52" y="309" type="line"/>
			<point x="64" y="262" type="line"/>
			<point x="40" y="261" type="line"/>
			<point x="52" y="214" type="line"/>
			<point x="141" y="238" type="line"/>
			<point x="159" y="166" type="line"/>
			<point x="135" y="166" type="line"/>
			<point x="153" y="95" type="line"/>
			<point x="52" y="119" type="line"/>
			<point x="64" y="71" type="line"/>
			<point x="40" y="71" type="line"/>
			<point x="52" y="24" type="line"/>
			<point x="153" y="0" type="line"/>
			<point x="147" y="24" type="line"/>
			<point x="248" y="0" type="line"/>
			<point x="242" y="24" type="line"/>
			<point x="343" y="0" type="line"/>
			<point x="326" y="71" type="line"/>
			<point x="349" y="71" type="line"/>
		</contour>
	</outline>
</glyph>
<glyph name="Iacute" format="2">
	<advance width="390"/>
	<unicode hex="00CD"/>
	<note>
		Iacute
	</note>
	<outline>
		<contour>
			<point x="147" y="310" type="line"/>
			<point x="236" y="333" type="line"/>
			<point x="230" y="357" type="line"/>
			<point x="254" y="357" type="line"/>
			<point x="242" y="405" type="line"/>
			<point x="332" y="429" type="line"/>
			<point x="326" y="452" type="line"/>
			<point x="350" y="453" type="line"/>
			<point x="344" y="476" type="line"/>
			<point x="242" y="500" type="line"/>
			<point x="254" y="453" type="line"/>
			<point x="230" y="452" type="line"/>
			<point x="236" y="429" type="line"/>
			<point x="147" y="405" type="line"/>
			<point x="159" y="357" type="line"/>
			<point x="135" y="357" type="line"/>
		</contour>
		<contour>
			<point x="243" y="214" type="line"/>
			<point x="344" y="190" type="line"/>
			<point x="326" y="262" type="line"/>
			<point x="350" y="262" type="line"/>
			<point x="344" y="286" type="line"/>
			<point x="243" y="309" type="line"/>
			<point x="249" y="286" type="line"/>
			<point x="147" y="310" type="line"/>
			<point x="153" y="286" type="line"/>
			<point x="52" y="310" type="line"/>
			<point x="64" y="262" type="line"/>
			<point x="40" y="262" type="line"/>
			<point x="52" y="214" type="line"/>
			<point x="141" y="238" type="line"/>
			<point x="159" y="167" type="line"/>
			<point x="135" y="167" type="line"/>
			<point x="153" y="95" type="line"/>
			<point x="52" y="119" type="line"/>
			<point x="64" y="71" type="line"/>
			<point x="40" y="71" type="line"/>
			<point x="52" y="24" type="line"/>
			<point x="153" y="0" type="line"/>
			<point x="147" y="24" type="line"/>
			<point x="249" y="0" type="line"/>
			<point x="243" y="24" type="line"/>
			<point x="344" y="0" type="line"/>
			<point x="326" y="71" type="line"/>
			<point x="350" y="71" type="line"/>
			<point x="344" y="95" type="line"/>
			<point x="243" y="119" type="line"/>
			<point x="231" y="167" type="line"/>
			<point x="255" y="167" type="line"/>
		</contour>
	</outline>
</glyph>
<glyph name="Icircumflex" format="2">
	<advance width="390"/>
	<unicode hex="00CE"/>
	<note>
		Icircumflex
	</note>
	<outline>
		<contour>
			<point x="344" y="286" type="line"/>
			<point x="243" y="310" type="line"/>
			<point x="249" y="287" type="line"/>
			<point x="147" y="311" type="line"/>
			<point x="153" y="286" type="line"/>
			<point x="54" y="310" type="line"/>
			<point x="142" y="333" type="line"/>
			<point x="136" y="357" type="line"/>
			<point x="160" y="357" type="line"/>
			<point x="148" y="405" type="line"/>
			<point x="249" y="381" type="line"/>
			<point x="255" y="357" type="line"/>
			<point x="231" y="357" type="line"/>
			<point x="243" y="310" type="line"/>
			<point x="332" y="333" type="line"/>
			<point x="327" y="357" type="line"/>
			<point x="350" y="357" type="line"/>
			<point x="332" y="429" type="line"/>
			<point x="243" y="405" type="line"/>
			<point x="231" y="453" type="line"/>
			<point x="255" y="453" type="line"/>
			<point x="249" y="477" type="line"/>
			<point x="148" y="500" type="line"/>
			<point x="160" y="453" type="line"/>
			<point x="136" y="453" type="line"/>
			<point x="142" y="429" type="line"/>
			<point x="52" y="405" type="line"/>
			<point x="64" y="357" type="line"/>
			<point x="40" y="357" type="line"/>
			<point x="52" y="309" type="line"/>
			<point x="64" y="262" type="line"/>
			<point x="40" y="262" type="line"/>
			<point x="52" y="214" type="line"/>
			<point x="142" y="238" type="line"/>
			<point x="159" y="167" type="line"/>
			<point x="136" y="167" type="line"/>
			<point x="153" y="95" type="line"/>
			<point x="52" y="119" type="line"/>
			<point x="64" y="71" type="line"/>
			<point x="40" y="71" type="line"/>
			<point x="52" y="24" type="line"/>
			<point x="153" y="0" type="line"/>
			<point x="148" y="24" type="line"/>
			<point x="249" y="0" type="line"/>
			<point x="243" y="24" type="line"/>
			<point x="344" y="0" type="line"/>
			<point x="326" y="71" type="line"/>
			<point x="350" y="71" type="line"/>
			<point x="344" y="95" type="line"/>
			<point x="243" y="119" type="line"/>
			<point x="231" y="167" type="line"/>
			<point x="255" y="167" type="line"/>
			<point x="243" y="214" type="line"/>
			<point x="344" y="191" type="line"/>
			<point x="326" y="262" type="line"/>
			<point x="350" y="262" type="line"/>
		</contour>
	</outline>
</glyph>
<glyph name="Idieresis" format="2">
	<advance width="390"/>
	<unicode hex="00CF"/>
	<note>
		Idieresis
	</note>
	<outline>
		<contour>
			<point x="52" y="405" type="line"/>
			<point x="40" y="452" type="line"/>
			<point x="64" y="452" type="line"/>
			<point x="52" y="500" type="line"/>
			<point x="153" y="477" type="line"/>
			<point x="159" y="452" type="line"/>
			<point x="135" y="452" type="line"/>
			<point x="153" y="381" type="line"/>
		</contour>
		<contour>
			<point x="242" y="405" type="line"/>
			<point x="344" y="381" type="line"/>
			<point x="325" y="452" type="line"/>
			<point x="350" y="452" type="line"/>
			<point x="344" y="477" type="line"/>
			<point x="242" y="500" type="line"/>
			<point x="255" y="452" type="line"/>
			<point x="230" y="452" type="line"/>
		</contour>
		<contour>
			<point x="242" y="214" type="line"/>
			<point x="344" y="190" type="line"/>
			<point x="326" y="262" type="line"/>
			<point x="350" y="262" type="line"/>
			<point x="344" y="285" type="line"/>
			<point x="242" y="310" type="line"/>
			<point x="249" y="286" type="line"/>
			<point x="147" y="310" type="line"/>
			<point x="153" y="286" type="line"/>
			<point x="52" y="310" type="line"/>
			<point x="64" y="262" type="line"/>
			<point x="40" y="262" type="line"/>
			<point x="52" y="215" type="line"/>
			<point x="141" y="238" type="line"/>
			<point x="159" y="167" type="line"/>
			<point x="135" y="167" type="line"/>
			<point x="153" y="95" type="line"/>
			<point x="52" y="119" type="line"/>
			<point x="64" y="72" type="line"/>
			<point x="40" y="71" type="line"/>
			<point x="52" y="23" type="line"/>
			<point x="153" y="0" type="line"/>
			<point x="147" y="23" type="line"/>
			<point x="249" y="0" type="line"/>
			<point x="242" y="23" type="line"/>
			<point x="344" y="0" type="line"/>
			<point x="326" y="71" type="line"/>
			<point x="350" y="72" type="line"/>
			<point x="344" y="95" type="line"/>
			<point x="242" y="119" type="line"/>
			<point x="231" y="167" type="line"/>
			<point x="255" y="167" type="line"/>
		</contour>
	</outline>
</glyph>
<glyph name="Oacute" format="2">
	<advance width="390"/>
	<unicode hex="00D3"/>
	<note>
		Oacute
	</note>
	<outline>
		<contour>
			<point x="148" y="310" type="line"/>
			<point x="237" y="334" type="line"/>
			<point x="231" y="358" type="line"/>
			<point x="255" y="358" type="line"/>
			<point x="243" y="405" type="line"/>
			<point x="332" y="429" type="line"/>
			<point x="326" y="453" type="line"/>
			<point x="350" y="453" type="line"/>
			<point x="344" y="477" type="line"/>
			<point x="243" y="500" type="line"/>
			<point x="255" y="453" type="line"/>
			<point x="231" y="453" type="line"/>
			<point x="237" y="429" type="line"/>
			<point x="148" y="405" type="line"/>
			<point x="159" y="358" type="line"/>
			<point x="136" y="358" type="line"/>
		</contour>
		<contour>
			<point x="326" y="71" type="line"/>
			<point x="350" y="71" type="line"/>
			<point x="326" y="167" type="line"/>
			<point x="350" y="167" type="line"/>
			<point x="326" y="262" type="line"/>
			<point x="350" y="262" type="line"/>
			<point x="344" y="286" type="line"/>
			<point x="243" y="310" type="line"/>
			<point x="248" y="286" type="line"/>
			<point x="147" y="310" type="line"/>
			<point x="153" y="286" type="line"/>
			<point x="52" y="310" type="line"/>
			<point x="64" y="262" type="line"/>
			<point x="40" y="262" type="line"/>
			<point x="64" y="167" type="line"/>
			<point x="40" y="167" type="line"/>
			<point x="64" y="71" type="line"/>
			<point x="40" y="71" type="line"/>
			<point x="52" y="24" type="line"/>
			<point x="141" y="48" type="line"/>
			<point x="148" y="24" type="line"/>
			<point x="249" y="0" type="line"/>
			<point x="243" y="24" type="line"/>
			<point x="332" y="48" type="line"/>
		</contour>
		<contour>
			<point x="148" y="119" type="line"/>
			<point x="136" y="167" type="line"/>
			<point x="159" y="167" type="line"/>
			<point x="148" y="215" type="line"/>
			<point x="237" y="239" type="line"/>
			<point x="254" y="167" type="line"/>
			<point x="231" y="167" type="line"/>
			<point x="249" y="95" type="line"/>
		</contour>
	</outline>
</glyph>
